G04 #@! TF.GenerationSoftware,KiCad,Pcbnew,(5.0.0-3-g5ebb6b6)*
G04 #@! TF.CreationDate,2021-02-23T05:46:04-05:00*
G04 #@! TF.ProjectId,PIC16F74Breakout,5049433136463734427265616B6F7574,rev?*
G04 #@! TF.SameCoordinates,Original*
G04 #@! TF.FileFunction,Legend,Top*
G04 #@! TF.FilePolarity,Positive*
%FSLAX46Y46*%
G04 Gerber Fmt 4.6, Leading zero omitted, Abs format (unit mm)*
G04 Created by KiCad (PCBNEW (5.0.0-3-g5ebb6b6)) date Tuesday, February 23, 2021 at 05:46:04 AM*
%MOMM*%
%LPD*%
G01*
G04 APERTURE LIST*
%ADD10C,0.300000*%
%ADD11C,0.152400*%
%ADD12C,0.120000*%
%ADD13C,0.150000*%
G04 APERTURE END LIST*
D10*
X149984285Y-123797142D02*
X149841428Y-123868571D01*
X149555714Y-123868571D01*
X149412857Y-123797142D01*
X149341428Y-123725714D01*
X149270000Y-123582857D01*
X149270000Y-123154285D01*
X149341428Y-123011428D01*
X149412857Y-122940000D01*
X149555714Y-122868571D01*
X149841428Y-122868571D01*
X149984285Y-122940000D01*
X150627142Y-123868571D02*
X150627142Y-122868571D01*
X150627142Y-123154285D02*
X150698571Y-123011428D01*
X150770000Y-122940000D01*
X150912857Y-122868571D01*
X151055714Y-122868571D01*
X152198571Y-122868571D02*
X152198571Y-124082857D01*
X152127142Y-124225714D01*
X152055714Y-124297142D01*
X151912857Y-124368571D01*
X151698571Y-124368571D01*
X151555714Y-124297142D01*
X152198571Y-123797142D02*
X152055714Y-123868571D01*
X151770000Y-123868571D01*
X151627142Y-123797142D01*
X151555714Y-123725714D01*
X151484285Y-123582857D01*
X151484285Y-123154285D01*
X151555714Y-123011428D01*
X151627142Y-122940000D01*
X151770000Y-122868571D01*
X152055714Y-122868571D01*
X152198571Y-122940000D01*
X153841428Y-123154285D02*
X153770000Y-123082857D01*
X153627142Y-123011428D01*
X153484285Y-123011428D01*
X153341428Y-123082857D01*
X153270000Y-123154285D01*
X153198571Y-123297142D01*
X153198571Y-123440000D01*
X153270000Y-123582857D01*
X153341428Y-123654285D01*
X153484285Y-123725714D01*
X153627142Y-123725714D01*
X153770000Y-123654285D01*
X153841428Y-123582857D01*
X153841428Y-123011428D02*
X153841428Y-123582857D01*
X153912857Y-123654285D01*
X153984285Y-123654285D01*
X154127142Y-123582857D01*
X154198571Y-123440000D01*
X154198571Y-123082857D01*
X154055714Y-122868571D01*
X153841428Y-122725714D01*
X153555714Y-122654285D01*
X153270000Y-122725714D01*
X153055714Y-122868571D01*
X152912857Y-123082857D01*
X152841428Y-123368571D01*
X152912857Y-123654285D01*
X153055714Y-123868571D01*
X153270000Y-124011428D01*
X153555714Y-124082857D01*
X153841428Y-124011428D01*
X154055714Y-123868571D01*
X155484285Y-122868571D02*
X155484285Y-124368571D01*
X155484285Y-123797142D02*
X155341428Y-123868571D01*
X155055714Y-123868571D01*
X154912857Y-123797142D01*
X154841428Y-123725714D01*
X154770000Y-123582857D01*
X154770000Y-123154285D01*
X154841428Y-123011428D01*
X154912857Y-122940000D01*
X155055714Y-122868571D01*
X155341428Y-122868571D01*
X155484285Y-122940000D01*
X156841428Y-122868571D02*
X156841428Y-123868571D01*
X156198571Y-122868571D02*
X156198571Y-123654285D01*
X156270000Y-123797142D01*
X156412857Y-123868571D01*
X156627142Y-123868571D01*
X156770000Y-123797142D01*
X156841428Y-123725714D01*
X158198571Y-123868571D02*
X158198571Y-123082857D01*
X158127142Y-122940000D01*
X157984285Y-122868571D01*
X157698571Y-122868571D01*
X157555714Y-122940000D01*
X158198571Y-123797142D02*
X158055714Y-123868571D01*
X157698571Y-123868571D01*
X157555714Y-123797142D01*
X157484285Y-123654285D01*
X157484285Y-123511428D01*
X157555714Y-123368571D01*
X157698571Y-123297142D01*
X158055714Y-123297142D01*
X158198571Y-123225714D01*
X159127142Y-123868571D02*
X158984285Y-123797142D01*
X158912857Y-123654285D01*
X158912857Y-122368571D01*
X159912857Y-123868571D02*
X159770000Y-123797142D01*
X159698571Y-123654285D01*
X159698571Y-122368571D01*
X160484285Y-123868571D02*
X160484285Y-122868571D01*
X160484285Y-122368571D02*
X160412857Y-122440000D01*
X160484285Y-122511428D01*
X160555714Y-122440000D01*
X160484285Y-122368571D01*
X160484285Y-122511428D01*
X161841428Y-122868571D02*
X161841428Y-124082857D01*
X161770000Y-124225714D01*
X161698571Y-124297142D01*
X161555714Y-124368571D01*
X161341428Y-124368571D01*
X161198571Y-124297142D01*
X161841428Y-123797142D02*
X161698571Y-123868571D01*
X161412857Y-123868571D01*
X161270000Y-123797142D01*
X161198571Y-123725714D01*
X161127142Y-123582857D01*
X161127142Y-123154285D01*
X161198571Y-123011428D01*
X161270000Y-122940000D01*
X161412857Y-122868571D01*
X161698571Y-122868571D01*
X161841428Y-122940000D01*
X163127142Y-123797142D02*
X162984285Y-123868571D01*
X162698571Y-123868571D01*
X162555714Y-123797142D01*
X162484285Y-123654285D01*
X162484285Y-123082857D01*
X162555714Y-122940000D01*
X162698571Y-122868571D01*
X162984285Y-122868571D01*
X163127142Y-122940000D01*
X163198571Y-123082857D01*
X163198571Y-123225714D01*
X162484285Y-123368571D01*
X163841428Y-122868571D02*
X163841428Y-123868571D01*
X163841428Y-123011428D02*
X163912857Y-122940000D01*
X164055714Y-122868571D01*
X164270000Y-122868571D01*
X164412857Y-122940000D01*
X164484285Y-123082857D01*
X164484285Y-123868571D01*
X164984285Y-122868571D02*
X165555714Y-122868571D01*
X165198571Y-122368571D02*
X165198571Y-123654285D01*
X165270000Y-123797142D01*
X165412857Y-123868571D01*
X165555714Y-123868571D01*
X166055714Y-123725714D02*
X166127142Y-123797142D01*
X166055714Y-123868571D01*
X165984285Y-123797142D01*
X166055714Y-123725714D01*
X166055714Y-123868571D01*
X167412857Y-123797142D02*
X167270000Y-123868571D01*
X166984285Y-123868571D01*
X166841428Y-123797142D01*
X166770000Y-123725714D01*
X166698571Y-123582857D01*
X166698571Y-123154285D01*
X166770000Y-123011428D01*
X166841428Y-122940000D01*
X166984285Y-122868571D01*
X167270000Y-122868571D01*
X167412857Y-122940000D01*
X168270000Y-123868571D02*
X168127142Y-123797142D01*
X168055714Y-123725714D01*
X167984285Y-123582857D01*
X167984285Y-123154285D01*
X168055714Y-123011428D01*
X168127142Y-122940000D01*
X168270000Y-122868571D01*
X168484285Y-122868571D01*
X168627142Y-122940000D01*
X168698571Y-123011428D01*
X168770000Y-123154285D01*
X168770000Y-123582857D01*
X168698571Y-123725714D01*
X168627142Y-123797142D01*
X168484285Y-123868571D01*
X168270000Y-123868571D01*
X169412857Y-123868571D02*
X169412857Y-122868571D01*
X169412857Y-123011428D02*
X169484285Y-122940000D01*
X169627142Y-122868571D01*
X169841428Y-122868571D01*
X169984285Y-122940000D01*
X170055714Y-123082857D01*
X170055714Y-123868571D01*
X170055714Y-123082857D02*
X170127142Y-122940000D01*
X170270000Y-122868571D01*
X170484285Y-122868571D01*
X170627142Y-122940000D01*
X170698571Y-123082857D01*
X170698571Y-123868571D01*
X114214285Y-124503571D02*
X114214285Y-123003571D01*
X114785714Y-123003571D01*
X114928571Y-123075000D01*
X115000000Y-123146428D01*
X115071428Y-123289285D01*
X115071428Y-123503571D01*
X115000000Y-123646428D01*
X114928571Y-123717857D01*
X114785714Y-123789285D01*
X114214285Y-123789285D01*
X115714285Y-124503571D02*
X115714285Y-123003571D01*
X117285714Y-124360714D02*
X117214285Y-124432142D01*
X117000000Y-124503571D01*
X116857142Y-124503571D01*
X116642857Y-124432142D01*
X116500000Y-124289285D01*
X116428571Y-124146428D01*
X116357142Y-123860714D01*
X116357142Y-123646428D01*
X116428571Y-123360714D01*
X116500000Y-123217857D01*
X116642857Y-123075000D01*
X116857142Y-123003571D01*
X117000000Y-123003571D01*
X117214285Y-123075000D01*
X117285714Y-123146428D01*
X118714285Y-124503571D02*
X117857142Y-124503571D01*
X118285714Y-124503571D02*
X118285714Y-123003571D01*
X118142857Y-123217857D01*
X118000000Y-123360714D01*
X117857142Y-123432142D01*
X120000000Y-123003571D02*
X119714285Y-123003571D01*
X119571428Y-123075000D01*
X119500000Y-123146428D01*
X119357142Y-123360714D01*
X119285714Y-123646428D01*
X119285714Y-124217857D01*
X119357142Y-124360714D01*
X119428571Y-124432142D01*
X119571428Y-124503571D01*
X119857142Y-124503571D01*
X120000000Y-124432142D01*
X120071428Y-124360714D01*
X120142857Y-124217857D01*
X120142857Y-123860714D01*
X120071428Y-123717857D01*
X120000000Y-123646428D01*
X119857142Y-123575000D01*
X119571428Y-123575000D01*
X119428571Y-123646428D01*
X119357142Y-123717857D01*
X119285714Y-123860714D01*
X121285714Y-123717857D02*
X120785714Y-123717857D01*
X120785714Y-124503571D02*
X120785714Y-123003571D01*
X121500000Y-123003571D01*
X121928571Y-123003571D02*
X122928571Y-123003571D01*
X122285714Y-124503571D01*
X124142857Y-123503571D02*
X124142857Y-124503571D01*
X123785714Y-122932142D02*
X123428571Y-124003571D01*
X124357142Y-124003571D01*
X126571428Y-123717857D02*
X126785714Y-123789285D01*
X126857142Y-123860714D01*
X126928571Y-124003571D01*
X126928571Y-124217857D01*
X126857142Y-124360714D01*
X126785714Y-124432142D01*
X126642857Y-124503571D01*
X126071428Y-124503571D01*
X126071428Y-123003571D01*
X126571428Y-123003571D01*
X126714285Y-123075000D01*
X126785714Y-123146428D01*
X126857142Y-123289285D01*
X126857142Y-123432142D01*
X126785714Y-123575000D01*
X126714285Y-123646428D01*
X126571428Y-123717857D01*
X126071428Y-123717857D01*
X127571428Y-124503571D02*
X127571428Y-123503571D01*
X127571428Y-123789285D02*
X127642857Y-123646428D01*
X127714285Y-123575000D01*
X127857142Y-123503571D01*
X128000000Y-123503571D01*
X129071428Y-124432142D02*
X128928571Y-124503571D01*
X128642857Y-124503571D01*
X128500000Y-124432142D01*
X128428571Y-124289285D01*
X128428571Y-123717857D01*
X128500000Y-123575000D01*
X128642857Y-123503571D01*
X128928571Y-123503571D01*
X129071428Y-123575000D01*
X129142857Y-123717857D01*
X129142857Y-123860714D01*
X128428571Y-124003571D01*
X130428571Y-124503571D02*
X130428571Y-123717857D01*
X130357142Y-123575000D01*
X130214285Y-123503571D01*
X129928571Y-123503571D01*
X129785714Y-123575000D01*
X130428571Y-124432142D02*
X130285714Y-124503571D01*
X129928571Y-124503571D01*
X129785714Y-124432142D01*
X129714285Y-124289285D01*
X129714285Y-124146428D01*
X129785714Y-124003571D01*
X129928571Y-123932142D01*
X130285714Y-123932142D01*
X130428571Y-123860714D01*
X131142857Y-124503571D02*
X131142857Y-123003571D01*
X131285714Y-123932142D02*
X131714285Y-124503571D01*
X131714285Y-123503571D02*
X131142857Y-124075000D01*
X132571428Y-124503571D02*
X132428571Y-124432142D01*
X132357142Y-124360714D01*
X132285714Y-124217857D01*
X132285714Y-123789285D01*
X132357142Y-123646428D01*
X132428571Y-123575000D01*
X132571428Y-123503571D01*
X132785714Y-123503571D01*
X132928571Y-123575000D01*
X133000000Y-123646428D01*
X133071428Y-123789285D01*
X133071428Y-124217857D01*
X133000000Y-124360714D01*
X132928571Y-124432142D01*
X132785714Y-124503571D01*
X132571428Y-124503571D01*
X134357142Y-123503571D02*
X134357142Y-124503571D01*
X133714285Y-123503571D02*
X133714285Y-124289285D01*
X133785714Y-124432142D01*
X133928571Y-124503571D01*
X134142857Y-124503571D01*
X134285714Y-124432142D01*
X134357142Y-124360714D01*
X134857142Y-123503571D02*
X135428571Y-123503571D01*
X135071428Y-123003571D02*
X135071428Y-124289285D01*
X135142857Y-124432142D01*
X135285714Y-124503571D01*
X135428571Y-124503571D01*
X136857142Y-123003571D02*
X137357142Y-124503571D01*
X137857142Y-123003571D01*
X138357142Y-124360714D02*
X138428571Y-124432142D01*
X138357142Y-124503571D01*
X138285714Y-124432142D01*
X138357142Y-124360714D01*
X138357142Y-124503571D01*
X139000000Y-123146428D02*
X139071428Y-123075000D01*
X139214285Y-123003571D01*
X139571428Y-123003571D01*
X139714285Y-123075000D01*
X139785714Y-123146428D01*
X139857142Y-123289285D01*
X139857142Y-123432142D01*
X139785714Y-123646428D01*
X138928571Y-124503571D01*
X139857142Y-124503571D01*
X137132857Y-120058571D02*
X137132857Y-118558571D01*
X137704285Y-118558571D01*
X137847142Y-118630000D01*
X137918571Y-118701428D01*
X137990000Y-118844285D01*
X137990000Y-119058571D01*
X137918571Y-119201428D01*
X137847142Y-119272857D01*
X137704285Y-119344285D01*
X137132857Y-119344285D01*
X138632857Y-120058571D02*
X138632857Y-119058571D01*
X138632857Y-119344285D02*
X138704285Y-119201428D01*
X138775714Y-119130000D01*
X138918571Y-119058571D01*
X139061428Y-119058571D01*
X139775714Y-120058571D02*
X139632857Y-119987142D01*
X139561428Y-119915714D01*
X139490000Y-119772857D01*
X139490000Y-119344285D01*
X139561428Y-119201428D01*
X139632857Y-119130000D01*
X139775714Y-119058571D01*
X139990000Y-119058571D01*
X140132857Y-119130000D01*
X140204285Y-119201428D01*
X140275714Y-119344285D01*
X140275714Y-119772857D01*
X140204285Y-119915714D01*
X140132857Y-119987142D01*
X139990000Y-120058571D01*
X139775714Y-120058571D01*
X141561428Y-119058571D02*
X141561428Y-120272857D01*
X141490000Y-120415714D01*
X141418571Y-120487142D01*
X141275714Y-120558571D01*
X141061428Y-120558571D01*
X140918571Y-120487142D01*
X141561428Y-119987142D02*
X141418571Y-120058571D01*
X141132857Y-120058571D01*
X140990000Y-119987142D01*
X140918571Y-119915714D01*
X140847142Y-119772857D01*
X140847142Y-119344285D01*
X140918571Y-119201428D01*
X140990000Y-119130000D01*
X141132857Y-119058571D01*
X141418571Y-119058571D01*
X141561428Y-119130000D01*
X143418571Y-120058571D02*
X143418571Y-118558571D01*
X143990000Y-118558571D01*
X144132857Y-118630000D01*
X144204285Y-118701428D01*
X144275714Y-118844285D01*
X144275714Y-119058571D01*
X144204285Y-119201428D01*
X144132857Y-119272857D01*
X143990000Y-119344285D01*
X143418571Y-119344285D01*
X145132857Y-120058571D02*
X144990000Y-119987142D01*
X144918571Y-119915714D01*
X144847142Y-119772857D01*
X144847142Y-119344285D01*
X144918571Y-119201428D01*
X144990000Y-119130000D01*
X145132857Y-119058571D01*
X145347142Y-119058571D01*
X145490000Y-119130000D01*
X145561428Y-119201428D01*
X145632857Y-119344285D01*
X145632857Y-119772857D01*
X145561428Y-119915714D01*
X145490000Y-119987142D01*
X145347142Y-120058571D01*
X145132857Y-120058571D01*
X146275714Y-120058571D02*
X146275714Y-119058571D01*
X146275714Y-119344285D02*
X146347142Y-119201428D01*
X146418571Y-119130000D01*
X146561428Y-119058571D01*
X146704285Y-119058571D01*
X146990000Y-119058571D02*
X147561428Y-119058571D01*
X147204285Y-118558571D02*
X147204285Y-119844285D01*
X147275714Y-119987142D01*
X147418571Y-120058571D01*
X147561428Y-120058571D01*
D11*
G04 #@! TO.C,U1*
X161592001Y-109148000D02*
X154637999Y-109148000D01*
X154637999Y-109148000D02*
X154637999Y-113102000D01*
X154637999Y-113102000D02*
X161592001Y-113102000D01*
X161592001Y-113102000D02*
X161592001Y-109148000D01*
X162862000Y-107475000D02*
G75*
G03X162862000Y-107475000I-127000J0D01*
G01*
D12*
G04 #@! TO.C,D1*
X166735000Y-98150000D02*
X163850000Y-98150000D01*
X163850000Y-98150000D02*
X163850000Y-99970000D01*
X163850000Y-99970000D02*
X166735000Y-99970000D01*
D13*
G04 #@! TO.C,IC1*
X135795000Y-88170000D02*
X135795000Y-88745000D01*
X146145000Y-88170000D02*
X146145000Y-88845000D01*
X146145000Y-98520000D02*
X146145000Y-97845000D01*
X135795000Y-98520000D02*
X135795000Y-97845000D01*
X135795000Y-88170000D02*
X136470000Y-88170000D01*
X135795000Y-98520000D02*
X136470000Y-98520000D01*
X146145000Y-98520000D02*
X145470000Y-98520000D01*
X146145000Y-88170000D02*
X145470000Y-88170000D01*
X135795000Y-88745000D02*
X134520000Y-88745000D01*
D12*
G04 #@! TO.C,J1*
X149920000Y-117535000D02*
X149920000Y-114875000D01*
X137160000Y-117535000D02*
X149920000Y-117535000D01*
X137160000Y-114875000D02*
X149920000Y-114875000D01*
X137160000Y-117535000D02*
X137160000Y-114875000D01*
X135890000Y-117535000D02*
X134560000Y-117535000D01*
X134560000Y-117535000D02*
X134560000Y-116205000D01*
G04 #@! TO.C,J2*
X168970000Y-116900000D02*
X168970000Y-114240000D01*
X166370000Y-116900000D02*
X168970000Y-116900000D01*
X166370000Y-114240000D02*
X168970000Y-114240000D01*
X166370000Y-116900000D02*
X166370000Y-114240000D01*
X165100000Y-116900000D02*
X163770000Y-116900000D01*
X163770000Y-116900000D02*
X163770000Y-115570000D01*
G04 #@! TO.C,J3*
X115510000Y-104200000D02*
X118170000Y-104200000D01*
X115510000Y-86360000D02*
X115510000Y-104200000D01*
X118170000Y-86360000D02*
X118170000Y-104200000D01*
X115510000Y-86360000D02*
X118170000Y-86360000D01*
X115510000Y-85090000D02*
X115510000Y-83760000D01*
X115510000Y-83760000D02*
X116840000Y-83760000D01*
G04 #@! TO.C,J4*
X134560000Y-109915000D02*
X134560000Y-108585000D01*
X135890000Y-109915000D02*
X134560000Y-109915000D01*
X137160000Y-109915000D02*
X137160000Y-107255000D01*
X137160000Y-107255000D02*
X149920000Y-107255000D01*
X137160000Y-109915000D02*
X149920000Y-109915000D01*
X149920000Y-109915000D02*
X149920000Y-107255000D01*
G04 #@! TO.C,J5*
X123130000Y-104200000D02*
X125790000Y-104200000D01*
X123130000Y-86360000D02*
X123130000Y-104200000D01*
X125790000Y-86360000D02*
X125790000Y-104200000D01*
X123130000Y-86360000D02*
X125790000Y-86360000D01*
X123130000Y-85090000D02*
X123130000Y-83760000D01*
X123130000Y-83760000D02*
X124460000Y-83760000D01*
G04 #@! TO.C,J6*
X155000000Y-72965000D02*
X155000000Y-74295000D01*
X153670000Y-72965000D02*
X155000000Y-72965000D01*
X152400000Y-72965000D02*
X152400000Y-75625000D01*
X152400000Y-75625000D02*
X134560000Y-75625000D01*
X152400000Y-72965000D02*
X134560000Y-72965000D01*
X134560000Y-72965000D02*
X134560000Y-75625000D01*
G04 #@! TO.C,J7*
X167700000Y-83125000D02*
X165040000Y-83125000D01*
X167700000Y-88265000D02*
X167700000Y-83125000D01*
X165040000Y-88265000D02*
X165040000Y-83125000D01*
X167700000Y-88265000D02*
X165040000Y-88265000D01*
X167700000Y-89535000D02*
X167700000Y-90865000D01*
X167700000Y-90865000D02*
X166370000Y-90865000D01*
G04 #@! TO.C,R1*
X126741422Y-107875000D02*
X127258578Y-107875000D01*
X126741422Y-109295000D02*
X127258578Y-109295000D01*
G04 #@! TO.C,R2*
X165993578Y-103430000D02*
X165476422Y-103430000D01*
X165993578Y-104850000D02*
X165476422Y-104850000D01*
G04 #@! TO.C,Y1*
X157930000Y-80020000D02*
X170530000Y-80020000D01*
X170530000Y-80020000D02*
X170530000Y-74920000D01*
X170530000Y-74920000D02*
X157930000Y-74920000D01*
G04 #@! TO.C,U1*
D13*
X157353095Y-110577380D02*
X157353095Y-111386904D01*
X157400714Y-111482142D01*
X157448333Y-111529761D01*
X157543571Y-111577380D01*
X157734047Y-111577380D01*
X157829285Y-111529761D01*
X157876904Y-111482142D01*
X157924523Y-111386904D01*
X157924523Y-110577380D01*
X158924523Y-111577380D02*
X158353095Y-111577380D01*
X158638809Y-111577380D02*
X158638809Y-110577380D01*
X158543571Y-110720238D01*
X158448333Y-110815476D01*
X158353095Y-110863095D01*
X154876904Y-111577380D02*
X154876904Y-110577380D01*
X155210238Y-111291666D01*
X155543571Y-110577380D01*
X155543571Y-111577380D01*
X156591190Y-111482142D02*
X156543571Y-111529761D01*
X156400714Y-111577380D01*
X156305476Y-111577380D01*
X156162619Y-111529761D01*
X156067380Y-111434523D01*
X156019761Y-111339285D01*
X155972142Y-111148809D01*
X155972142Y-111005952D01*
X156019761Y-110815476D01*
X156067380Y-110720238D01*
X156162619Y-110625000D01*
X156305476Y-110577380D01*
X156400714Y-110577380D01*
X156543571Y-110625000D01*
X156591190Y-110672619D01*
X157019761Y-111577380D02*
X157019761Y-110577380D01*
X157400714Y-110577380D01*
X157495952Y-110625000D01*
X157543571Y-110672619D01*
X157591190Y-110767857D01*
X157591190Y-110910714D01*
X157543571Y-111005952D01*
X157495952Y-111053571D01*
X157400714Y-111101190D01*
X157019761Y-111101190D01*
X158543571Y-111577380D02*
X157972142Y-111577380D01*
X158257857Y-111577380D02*
X158257857Y-110577380D01*
X158162619Y-110720238D01*
X158067380Y-110815476D01*
X157972142Y-110863095D01*
X158876904Y-110577380D02*
X159543571Y-110577380D01*
X159115000Y-111577380D01*
X159972142Y-111577380D02*
X160162619Y-111577380D01*
X160257857Y-111529761D01*
X160305476Y-111482142D01*
X160400714Y-111339285D01*
X160448333Y-111148809D01*
X160448333Y-110767857D01*
X160400714Y-110672619D01*
X160353095Y-110625000D01*
X160257857Y-110577380D01*
X160067380Y-110577380D01*
X159972142Y-110625000D01*
X159924523Y-110672619D01*
X159876904Y-110767857D01*
X159876904Y-111005952D01*
X159924523Y-111101190D01*
X159972142Y-111148809D01*
X160067380Y-111196428D01*
X160257857Y-111196428D01*
X160353095Y-111148809D01*
X160400714Y-111101190D01*
X160448333Y-111005952D01*
X161067380Y-110577380D02*
X161162619Y-110577380D01*
X161257857Y-110625000D01*
X161305476Y-110672619D01*
X161353095Y-110767857D01*
X161400714Y-110958333D01*
X161400714Y-111196428D01*
X161353095Y-111386904D01*
X161305476Y-111482142D01*
X161257857Y-111529761D01*
X161162619Y-111577380D01*
X161067380Y-111577380D01*
X160972142Y-111529761D01*
X160924523Y-111482142D01*
X160876904Y-111386904D01*
X160829285Y-111196428D01*
X160829285Y-110958333D01*
X160876904Y-110767857D01*
X160924523Y-110672619D01*
X160972142Y-110625000D01*
X161067380Y-110577380D01*
X158115000Y-110577380D02*
X158115000Y-110815476D01*
X157876904Y-110720238D02*
X158115000Y-110815476D01*
X158353095Y-110720238D01*
X157972142Y-111005952D02*
X158115000Y-110815476D01*
X158257857Y-111005952D01*
G04 #@! TO.C,C1*
X154762142Y-87946666D02*
X154809761Y-87994285D01*
X154857380Y-88137142D01*
X154857380Y-88232380D01*
X154809761Y-88375238D01*
X154714523Y-88470476D01*
X154619285Y-88518095D01*
X154428809Y-88565714D01*
X154285952Y-88565714D01*
X154095476Y-88518095D01*
X154000238Y-88470476D01*
X153905000Y-88375238D01*
X153857380Y-88232380D01*
X153857380Y-88137142D01*
X153905000Y-87994285D01*
X153952619Y-87946666D01*
X154857380Y-86994285D02*
X154857380Y-87565714D01*
X154857380Y-87280000D02*
X153857380Y-87280000D01*
X154000238Y-87375238D01*
X154095476Y-87470476D01*
X154143095Y-87565714D01*
G04 #@! TO.C,C2*
X154762142Y-84471666D02*
X154809761Y-84519285D01*
X154857380Y-84662142D01*
X154857380Y-84757380D01*
X154809761Y-84900238D01*
X154714523Y-84995476D01*
X154619285Y-85043095D01*
X154428809Y-85090714D01*
X154285952Y-85090714D01*
X154095476Y-85043095D01*
X154000238Y-84995476D01*
X153905000Y-84900238D01*
X153857380Y-84757380D01*
X153857380Y-84662142D01*
X153905000Y-84519285D01*
X153952619Y-84471666D01*
X153952619Y-84090714D02*
X153905000Y-84043095D01*
X153857380Y-83947857D01*
X153857380Y-83709761D01*
X153905000Y-83614523D01*
X153952619Y-83566904D01*
X154047857Y-83519285D01*
X154143095Y-83519285D01*
X154285952Y-83566904D01*
X154857380Y-84138333D01*
X154857380Y-83519285D01*
G04 #@! TO.C,C3*
X154773333Y-92652142D02*
X154725714Y-92699761D01*
X154582857Y-92747380D01*
X154487619Y-92747380D01*
X154344761Y-92699761D01*
X154249523Y-92604523D01*
X154201904Y-92509285D01*
X154154285Y-92318809D01*
X154154285Y-92175952D01*
X154201904Y-91985476D01*
X154249523Y-91890238D01*
X154344761Y-91795000D01*
X154487619Y-91747380D01*
X154582857Y-91747380D01*
X154725714Y-91795000D01*
X154773333Y-91842619D01*
X155106666Y-91747380D02*
X155725714Y-91747380D01*
X155392380Y-92128333D01*
X155535238Y-92128333D01*
X155630476Y-92175952D01*
X155678095Y-92223571D01*
X155725714Y-92318809D01*
X155725714Y-92556904D01*
X155678095Y-92652142D01*
X155630476Y-92699761D01*
X155535238Y-92747380D01*
X155249523Y-92747380D01*
X155154285Y-92699761D01*
X155106666Y-92652142D01*
G04 #@! TO.C,D1*
X164996904Y-97912380D02*
X164996904Y-96912380D01*
X165235000Y-96912380D01*
X165377857Y-96960000D01*
X165473095Y-97055238D01*
X165520714Y-97150476D01*
X165568333Y-97340952D01*
X165568333Y-97483809D01*
X165520714Y-97674285D01*
X165473095Y-97769523D01*
X165377857Y-97864761D01*
X165235000Y-97912380D01*
X164996904Y-97912380D01*
X166520714Y-97912380D02*
X165949285Y-97912380D01*
X166235000Y-97912380D02*
X166235000Y-96912380D01*
X166139761Y-97055238D01*
X166044523Y-97150476D01*
X165949285Y-97198095D01*
G04 #@! TO.C,IC1*
X139993809Y-86347380D02*
X139993809Y-85347380D01*
X141041428Y-86252142D02*
X140993809Y-86299761D01*
X140850952Y-86347380D01*
X140755714Y-86347380D01*
X140612857Y-86299761D01*
X140517619Y-86204523D01*
X140470000Y-86109285D01*
X140422380Y-85918809D01*
X140422380Y-85775952D01*
X140470000Y-85585476D01*
X140517619Y-85490238D01*
X140612857Y-85395000D01*
X140755714Y-85347380D01*
X140850952Y-85347380D01*
X140993809Y-85395000D01*
X141041428Y-85442619D01*
X141993809Y-86347380D02*
X141422380Y-86347380D01*
X141708095Y-86347380D02*
X141708095Y-85347380D01*
X141612857Y-85490238D01*
X141517619Y-85585476D01*
X141422380Y-85633095D01*
G04 #@! TO.C,J1*
X133012380Y-116538333D02*
X133726666Y-116538333D01*
X133869523Y-116585952D01*
X133964761Y-116681190D01*
X134012380Y-116824047D01*
X134012380Y-116919285D01*
X134012380Y-115538333D02*
X134012380Y-116109761D01*
X134012380Y-115824047D02*
X133012380Y-115824047D01*
X133155238Y-115919285D01*
X133250476Y-116014523D01*
X133298095Y-116109761D01*
G04 #@! TO.C,J2*
X162222380Y-115903333D02*
X162936666Y-115903333D01*
X163079523Y-115950952D01*
X163174761Y-116046190D01*
X163222380Y-116189047D01*
X163222380Y-116284285D01*
X162317619Y-115474761D02*
X162270000Y-115427142D01*
X162222380Y-115331904D01*
X162222380Y-115093809D01*
X162270000Y-114998571D01*
X162317619Y-114950952D01*
X162412857Y-114903333D01*
X162508095Y-114903333D01*
X162650952Y-114950952D01*
X163222380Y-115522380D01*
X163222380Y-114903333D01*
G04 #@! TO.C,J3*
X116506666Y-82212380D02*
X116506666Y-82926666D01*
X116459047Y-83069523D01*
X116363809Y-83164761D01*
X116220952Y-83212380D01*
X116125714Y-83212380D01*
X116887619Y-82212380D02*
X117506666Y-82212380D01*
X117173333Y-82593333D01*
X117316190Y-82593333D01*
X117411428Y-82640952D01*
X117459047Y-82688571D01*
X117506666Y-82783809D01*
X117506666Y-83021904D01*
X117459047Y-83117142D01*
X117411428Y-83164761D01*
X117316190Y-83212380D01*
X117030476Y-83212380D01*
X116935238Y-83164761D01*
X116887619Y-83117142D01*
G04 #@! TO.C,J4*
X133012380Y-108918333D02*
X133726666Y-108918333D01*
X133869523Y-108965952D01*
X133964761Y-109061190D01*
X134012380Y-109204047D01*
X134012380Y-109299285D01*
X133345714Y-108013571D02*
X134012380Y-108013571D01*
X132964761Y-108251666D02*
X133679047Y-108489761D01*
X133679047Y-107870714D01*
G04 #@! TO.C,J5*
X124126666Y-82212380D02*
X124126666Y-82926666D01*
X124079047Y-83069523D01*
X123983809Y-83164761D01*
X123840952Y-83212380D01*
X123745714Y-83212380D01*
X125079047Y-82212380D02*
X124602857Y-82212380D01*
X124555238Y-82688571D01*
X124602857Y-82640952D01*
X124698095Y-82593333D01*
X124936190Y-82593333D01*
X125031428Y-82640952D01*
X125079047Y-82688571D01*
X125126666Y-82783809D01*
X125126666Y-83021904D01*
X125079047Y-83117142D01*
X125031428Y-83164761D01*
X124936190Y-83212380D01*
X124698095Y-83212380D01*
X124602857Y-83164761D01*
X124555238Y-83117142D01*
G04 #@! TO.C,J6*
X155452380Y-74628333D02*
X156166666Y-74628333D01*
X156309523Y-74675952D01*
X156404761Y-74771190D01*
X156452380Y-74914047D01*
X156452380Y-75009285D01*
X155452380Y-73723571D02*
X155452380Y-73914047D01*
X155500000Y-74009285D01*
X155547619Y-74056904D01*
X155690476Y-74152142D01*
X155880952Y-74199761D01*
X156261904Y-74199761D01*
X156357142Y-74152142D01*
X156404761Y-74104523D01*
X156452380Y-74009285D01*
X156452380Y-73818809D01*
X156404761Y-73723571D01*
X156357142Y-73675952D01*
X156261904Y-73628333D01*
X156023809Y-73628333D01*
X155928571Y-73675952D01*
X155880952Y-73723571D01*
X155833333Y-73818809D01*
X155833333Y-74009285D01*
X155880952Y-74104523D01*
X155928571Y-74152142D01*
X156023809Y-74199761D01*
G04 #@! TO.C,J7*
X166036666Y-91317380D02*
X166036666Y-92031666D01*
X165989047Y-92174523D01*
X165893809Y-92269761D01*
X165750952Y-92317380D01*
X165655714Y-92317380D01*
X166417619Y-91317380D02*
X167084285Y-91317380D01*
X166655714Y-92317380D01*
G04 #@! TO.C,R1*
X126833333Y-107387380D02*
X126500000Y-106911190D01*
X126261904Y-107387380D02*
X126261904Y-106387380D01*
X126642857Y-106387380D01*
X126738095Y-106435000D01*
X126785714Y-106482619D01*
X126833333Y-106577857D01*
X126833333Y-106720714D01*
X126785714Y-106815952D01*
X126738095Y-106863571D01*
X126642857Y-106911190D01*
X126261904Y-106911190D01*
X127785714Y-107387380D02*
X127214285Y-107387380D01*
X127500000Y-107387380D02*
X127500000Y-106387380D01*
X127404761Y-106530238D01*
X127309523Y-106625476D01*
X127214285Y-106673095D01*
G04 #@! TO.C,R2*
X165568333Y-106242380D02*
X165235000Y-105766190D01*
X164996904Y-106242380D02*
X164996904Y-105242380D01*
X165377857Y-105242380D01*
X165473095Y-105290000D01*
X165520714Y-105337619D01*
X165568333Y-105432857D01*
X165568333Y-105575714D01*
X165520714Y-105670952D01*
X165473095Y-105718571D01*
X165377857Y-105766190D01*
X164996904Y-105766190D01*
X165949285Y-105337619D02*
X165996904Y-105290000D01*
X166092142Y-105242380D01*
X166330238Y-105242380D01*
X166425476Y-105290000D01*
X166473095Y-105337619D01*
X166520714Y-105432857D01*
X166520714Y-105528095D01*
X166473095Y-105670952D01*
X165901666Y-106242380D01*
X166520714Y-106242380D01*
G04 #@! TO.C,Y1*
X163353809Y-80996190D02*
X163353809Y-81472380D01*
X163020476Y-80472380D02*
X163353809Y-80996190D01*
X163687142Y-80472380D01*
X164544285Y-81472380D02*
X163972857Y-81472380D01*
X164258571Y-81472380D02*
X164258571Y-80472380D01*
X164163333Y-80615238D01*
X164068095Y-80710476D01*
X163972857Y-80758095D01*
G04 #@! TD*
M02*
