M48
;DRILL file {KiCad (5.0.0-3-g5ebb6b6)} date Tuesday, February 23, 2021 at 05:48:39 AM
;FORMAT={2:4/ absolute / inch / suppress trailing zeros}
FMAT,2
INCH,LZ
T1C0.0157
T2C0.0394
%
G90
G05
M72
T1
X04875Y-04275
X04975Y-0335
X04975Y-03475
X04975Y-0355
X04975Y-03625
X04975Y-0375
X04975Y-0385
X04975Y-03975
X04975Y-0405
X052Y-03475
X052Y-03525
X052Y-03575
X05225Y-03625
X05425Y-03725
X055Y-03375
X05525Y-03325
X0555Y-03275
X05575Y-03225
X0595Y-03725
X0595Y-03775
X0595Y-03825
X06425Y-03325
X06425Y-03425
X06425Y-03525
T2
X0535Y-04275
X0545Y-04275
X0555Y-04275
X0565Y-04275
X0575Y-04275
X0585Y-04275
X065Y-0455
X066Y-0455
X0655Y-03325
X0655Y-03425
X0655Y-03525
X049Y-0335
X049Y-0345
X049Y-0355
X049Y-0365
X049Y-0375
X049Y-0385
X049Y-0395
X049Y-0405
X046Y-0335
X046Y-0345
X046Y-0355
X046Y-0365
X046Y-0375
X046Y-0385
X046Y-0395
X046Y-0405
X0535Y-02925
X0545Y-02925
X0555Y-02925
X0565Y-02925
X0575Y-02925
X0585Y-02925
X0595Y-02925
X0605Y-02925
X0535Y-04575
X0545Y-04575
X0555Y-04575
X0565Y-04575
X0575Y-04575
X0585Y-04575
T0
M30
