G04 #@! TF.GenerationSoftware,KiCad,Pcbnew,(5.0.0-3-g5ebb6b6)*
G04 #@! TF.CreationDate,2021-02-23T05:46:04-05:00*
G04 #@! TF.ProjectId,PIC16F74Breakout,5049433136463734427265616B6F7574,rev?*
G04 #@! TF.SameCoordinates,Original*
G04 #@! TF.FileFunction,Soldermask,Top*
G04 #@! TF.FilePolarity,Negative*
%FSLAX46Y46*%
G04 Gerber Fmt 4.6, Leading zero omitted, Abs format (unit mm)*
G04 Created by KiCad (PCBNEW (5.0.0-3-g5ebb6b6)) date Tuesday, February 23, 2021 at 05:46:04 AM*
%MOMM*%
%LPD*%
G01*
G04 APERTURE LIST*
%ADD10C,0.150000*%
%ADD11R,0.889000X1.473200*%
%ADD12R,2.000000X1.500000*%
%ADD13C,0.100000*%
%ADD14C,0.590000*%
%ADD15C,0.400000*%
%ADD16C,1.300000*%
%ADD17R,1.500000X0.550000*%
%ADD18R,0.550000X1.500000*%
%ADD19R,1.700000X1.700000*%
%ADD20O,1.700000X1.700000*%
%ADD21C,0.975000*%
%ADD22R,4.500000X2.000000*%
G04 APERTURE END LIST*
D10*
G36*
X156845000Y-113665000D02*
X156845000Y-114935000D01*
X159385000Y-114935000D01*
X159385000Y-113665000D01*
X156845000Y-113665000D01*
G37*
X156845000Y-113665000D02*
X156845000Y-114935000D01*
X159385000Y-114935000D01*
X159385000Y-113665000D01*
X156845000Y-113665000D01*
D11*
G04 #@! TO.C,U1*
X160415000Y-107856000D03*
X158115000Y-107856000D03*
X155815000Y-107856000D03*
D12*
X158115000Y-113665000D03*
G04 #@! TD*
D13*
G04 #@! TO.C,C1*
G36*
X155761958Y-87970710D02*
X155776276Y-87972834D01*
X155790317Y-87976351D01*
X155803946Y-87981228D01*
X155817031Y-87987417D01*
X155829447Y-87994858D01*
X155841073Y-88003481D01*
X155851798Y-88013202D01*
X155861519Y-88023927D01*
X155870142Y-88035553D01*
X155877583Y-88047969D01*
X155883772Y-88061054D01*
X155888649Y-88074683D01*
X155892166Y-88088724D01*
X155894290Y-88103042D01*
X155895000Y-88117500D01*
X155895000Y-88412500D01*
X155894290Y-88426958D01*
X155892166Y-88441276D01*
X155888649Y-88455317D01*
X155883772Y-88468946D01*
X155877583Y-88482031D01*
X155870142Y-88494447D01*
X155861519Y-88506073D01*
X155851798Y-88516798D01*
X155841073Y-88526519D01*
X155829447Y-88535142D01*
X155817031Y-88542583D01*
X155803946Y-88548772D01*
X155790317Y-88553649D01*
X155776276Y-88557166D01*
X155761958Y-88559290D01*
X155747500Y-88560000D01*
X155402500Y-88560000D01*
X155388042Y-88559290D01*
X155373724Y-88557166D01*
X155359683Y-88553649D01*
X155346054Y-88548772D01*
X155332969Y-88542583D01*
X155320553Y-88535142D01*
X155308927Y-88526519D01*
X155298202Y-88516798D01*
X155288481Y-88506073D01*
X155279858Y-88494447D01*
X155272417Y-88482031D01*
X155266228Y-88468946D01*
X155261351Y-88455317D01*
X155257834Y-88441276D01*
X155255710Y-88426958D01*
X155255000Y-88412500D01*
X155255000Y-88117500D01*
X155255710Y-88103042D01*
X155257834Y-88088724D01*
X155261351Y-88074683D01*
X155266228Y-88061054D01*
X155272417Y-88047969D01*
X155279858Y-88035553D01*
X155288481Y-88023927D01*
X155298202Y-88013202D01*
X155308927Y-88003481D01*
X155320553Y-87994858D01*
X155332969Y-87987417D01*
X155346054Y-87981228D01*
X155359683Y-87976351D01*
X155373724Y-87972834D01*
X155388042Y-87970710D01*
X155402500Y-87970000D01*
X155747500Y-87970000D01*
X155761958Y-87970710D01*
X155761958Y-87970710D01*
G37*
D14*
X155575000Y-88265000D03*
D13*
G36*
X155761958Y-87000710D02*
X155776276Y-87002834D01*
X155790317Y-87006351D01*
X155803946Y-87011228D01*
X155817031Y-87017417D01*
X155829447Y-87024858D01*
X155841073Y-87033481D01*
X155851798Y-87043202D01*
X155861519Y-87053927D01*
X155870142Y-87065553D01*
X155877583Y-87077969D01*
X155883772Y-87091054D01*
X155888649Y-87104683D01*
X155892166Y-87118724D01*
X155894290Y-87133042D01*
X155895000Y-87147500D01*
X155895000Y-87442500D01*
X155894290Y-87456958D01*
X155892166Y-87471276D01*
X155888649Y-87485317D01*
X155883772Y-87498946D01*
X155877583Y-87512031D01*
X155870142Y-87524447D01*
X155861519Y-87536073D01*
X155851798Y-87546798D01*
X155841073Y-87556519D01*
X155829447Y-87565142D01*
X155817031Y-87572583D01*
X155803946Y-87578772D01*
X155790317Y-87583649D01*
X155776276Y-87587166D01*
X155761958Y-87589290D01*
X155747500Y-87590000D01*
X155402500Y-87590000D01*
X155388042Y-87589290D01*
X155373724Y-87587166D01*
X155359683Y-87583649D01*
X155346054Y-87578772D01*
X155332969Y-87572583D01*
X155320553Y-87565142D01*
X155308927Y-87556519D01*
X155298202Y-87546798D01*
X155288481Y-87536073D01*
X155279858Y-87524447D01*
X155272417Y-87512031D01*
X155266228Y-87498946D01*
X155261351Y-87485317D01*
X155257834Y-87471276D01*
X155255710Y-87456958D01*
X155255000Y-87442500D01*
X155255000Y-87147500D01*
X155255710Y-87133042D01*
X155257834Y-87118724D01*
X155261351Y-87104683D01*
X155266228Y-87091054D01*
X155272417Y-87077969D01*
X155279858Y-87065553D01*
X155288481Y-87053927D01*
X155298202Y-87043202D01*
X155308927Y-87033481D01*
X155320553Y-87024858D01*
X155332969Y-87017417D01*
X155346054Y-87011228D01*
X155359683Y-87006351D01*
X155373724Y-87002834D01*
X155388042Y-87000710D01*
X155402500Y-87000000D01*
X155747500Y-87000000D01*
X155761958Y-87000710D01*
X155761958Y-87000710D01*
G37*
D14*
X155575000Y-87295000D03*
G04 #@! TD*
D13*
G04 #@! TO.C,C2*
G36*
X155761958Y-83525710D02*
X155776276Y-83527834D01*
X155790317Y-83531351D01*
X155803946Y-83536228D01*
X155817031Y-83542417D01*
X155829447Y-83549858D01*
X155841073Y-83558481D01*
X155851798Y-83568202D01*
X155861519Y-83578927D01*
X155870142Y-83590553D01*
X155877583Y-83602969D01*
X155883772Y-83616054D01*
X155888649Y-83629683D01*
X155892166Y-83643724D01*
X155894290Y-83658042D01*
X155895000Y-83672500D01*
X155895000Y-83967500D01*
X155894290Y-83981958D01*
X155892166Y-83996276D01*
X155888649Y-84010317D01*
X155883772Y-84023946D01*
X155877583Y-84037031D01*
X155870142Y-84049447D01*
X155861519Y-84061073D01*
X155851798Y-84071798D01*
X155841073Y-84081519D01*
X155829447Y-84090142D01*
X155817031Y-84097583D01*
X155803946Y-84103772D01*
X155790317Y-84108649D01*
X155776276Y-84112166D01*
X155761958Y-84114290D01*
X155747500Y-84115000D01*
X155402500Y-84115000D01*
X155388042Y-84114290D01*
X155373724Y-84112166D01*
X155359683Y-84108649D01*
X155346054Y-84103772D01*
X155332969Y-84097583D01*
X155320553Y-84090142D01*
X155308927Y-84081519D01*
X155298202Y-84071798D01*
X155288481Y-84061073D01*
X155279858Y-84049447D01*
X155272417Y-84037031D01*
X155266228Y-84023946D01*
X155261351Y-84010317D01*
X155257834Y-83996276D01*
X155255710Y-83981958D01*
X155255000Y-83967500D01*
X155255000Y-83672500D01*
X155255710Y-83658042D01*
X155257834Y-83643724D01*
X155261351Y-83629683D01*
X155266228Y-83616054D01*
X155272417Y-83602969D01*
X155279858Y-83590553D01*
X155288481Y-83578927D01*
X155298202Y-83568202D01*
X155308927Y-83558481D01*
X155320553Y-83549858D01*
X155332969Y-83542417D01*
X155346054Y-83536228D01*
X155359683Y-83531351D01*
X155373724Y-83527834D01*
X155388042Y-83525710D01*
X155402500Y-83525000D01*
X155747500Y-83525000D01*
X155761958Y-83525710D01*
X155761958Y-83525710D01*
G37*
D14*
X155575000Y-83820000D03*
D13*
G36*
X155761958Y-84495710D02*
X155776276Y-84497834D01*
X155790317Y-84501351D01*
X155803946Y-84506228D01*
X155817031Y-84512417D01*
X155829447Y-84519858D01*
X155841073Y-84528481D01*
X155851798Y-84538202D01*
X155861519Y-84548927D01*
X155870142Y-84560553D01*
X155877583Y-84572969D01*
X155883772Y-84586054D01*
X155888649Y-84599683D01*
X155892166Y-84613724D01*
X155894290Y-84628042D01*
X155895000Y-84642500D01*
X155895000Y-84937500D01*
X155894290Y-84951958D01*
X155892166Y-84966276D01*
X155888649Y-84980317D01*
X155883772Y-84993946D01*
X155877583Y-85007031D01*
X155870142Y-85019447D01*
X155861519Y-85031073D01*
X155851798Y-85041798D01*
X155841073Y-85051519D01*
X155829447Y-85060142D01*
X155817031Y-85067583D01*
X155803946Y-85073772D01*
X155790317Y-85078649D01*
X155776276Y-85082166D01*
X155761958Y-85084290D01*
X155747500Y-85085000D01*
X155402500Y-85085000D01*
X155388042Y-85084290D01*
X155373724Y-85082166D01*
X155359683Y-85078649D01*
X155346054Y-85073772D01*
X155332969Y-85067583D01*
X155320553Y-85060142D01*
X155308927Y-85051519D01*
X155298202Y-85041798D01*
X155288481Y-85031073D01*
X155279858Y-85019447D01*
X155272417Y-85007031D01*
X155266228Y-84993946D01*
X155261351Y-84980317D01*
X155257834Y-84966276D01*
X155255710Y-84951958D01*
X155255000Y-84937500D01*
X155255000Y-84642500D01*
X155255710Y-84628042D01*
X155257834Y-84613724D01*
X155261351Y-84599683D01*
X155266228Y-84586054D01*
X155272417Y-84572969D01*
X155279858Y-84560553D01*
X155288481Y-84548927D01*
X155298202Y-84538202D01*
X155308927Y-84528481D01*
X155320553Y-84519858D01*
X155332969Y-84512417D01*
X155346054Y-84506228D01*
X155359683Y-84501351D01*
X155373724Y-84497834D01*
X155388042Y-84495710D01*
X155402500Y-84495000D01*
X155747500Y-84495000D01*
X155761958Y-84495710D01*
X155761958Y-84495710D01*
G37*
D14*
X155575000Y-84790000D03*
G04 #@! TD*
D13*
G04 #@! TO.C,C3*
G36*
X154759802Y-93145482D02*
X154769509Y-93146921D01*
X154779028Y-93149306D01*
X154788268Y-93152612D01*
X154797140Y-93156808D01*
X154805557Y-93161853D01*
X154813439Y-93167699D01*
X154820711Y-93174289D01*
X154827301Y-93181561D01*
X154833147Y-93189443D01*
X154838192Y-93197860D01*
X154842388Y-93206732D01*
X154845694Y-93215972D01*
X154848079Y-93225491D01*
X154849518Y-93235198D01*
X154850000Y-93245000D01*
X154850000Y-93445000D01*
X154849518Y-93454802D01*
X154848079Y-93464509D01*
X154845694Y-93474028D01*
X154842388Y-93483268D01*
X154838192Y-93492140D01*
X154833147Y-93500557D01*
X154827301Y-93508439D01*
X154820711Y-93515711D01*
X154813439Y-93522301D01*
X154805557Y-93528147D01*
X154797140Y-93533192D01*
X154788268Y-93537388D01*
X154779028Y-93540694D01*
X154769509Y-93543079D01*
X154759802Y-93544518D01*
X154750000Y-93545000D01*
X154490000Y-93545000D01*
X154480198Y-93544518D01*
X154470491Y-93543079D01*
X154460972Y-93540694D01*
X154451732Y-93537388D01*
X154442860Y-93533192D01*
X154434443Y-93528147D01*
X154426561Y-93522301D01*
X154419289Y-93515711D01*
X154412699Y-93508439D01*
X154406853Y-93500557D01*
X154401808Y-93492140D01*
X154397612Y-93483268D01*
X154394306Y-93474028D01*
X154391921Y-93464509D01*
X154390482Y-93454802D01*
X154390000Y-93445000D01*
X154390000Y-93245000D01*
X154390482Y-93235198D01*
X154391921Y-93225491D01*
X154394306Y-93215972D01*
X154397612Y-93206732D01*
X154401808Y-93197860D01*
X154406853Y-93189443D01*
X154412699Y-93181561D01*
X154419289Y-93174289D01*
X154426561Y-93167699D01*
X154434443Y-93161853D01*
X154442860Y-93156808D01*
X154451732Y-93152612D01*
X154460972Y-93149306D01*
X154470491Y-93146921D01*
X154480198Y-93145482D01*
X154490000Y-93145000D01*
X154750000Y-93145000D01*
X154759802Y-93145482D01*
X154759802Y-93145482D01*
G37*
D15*
X154620000Y-93345000D03*
D13*
G36*
X155399802Y-93145482D02*
X155409509Y-93146921D01*
X155419028Y-93149306D01*
X155428268Y-93152612D01*
X155437140Y-93156808D01*
X155445557Y-93161853D01*
X155453439Y-93167699D01*
X155460711Y-93174289D01*
X155467301Y-93181561D01*
X155473147Y-93189443D01*
X155478192Y-93197860D01*
X155482388Y-93206732D01*
X155485694Y-93215972D01*
X155488079Y-93225491D01*
X155489518Y-93235198D01*
X155490000Y-93245000D01*
X155490000Y-93445000D01*
X155489518Y-93454802D01*
X155488079Y-93464509D01*
X155485694Y-93474028D01*
X155482388Y-93483268D01*
X155478192Y-93492140D01*
X155473147Y-93500557D01*
X155467301Y-93508439D01*
X155460711Y-93515711D01*
X155453439Y-93522301D01*
X155445557Y-93528147D01*
X155437140Y-93533192D01*
X155428268Y-93537388D01*
X155419028Y-93540694D01*
X155409509Y-93543079D01*
X155399802Y-93544518D01*
X155390000Y-93545000D01*
X155130000Y-93545000D01*
X155120198Y-93544518D01*
X155110491Y-93543079D01*
X155100972Y-93540694D01*
X155091732Y-93537388D01*
X155082860Y-93533192D01*
X155074443Y-93528147D01*
X155066561Y-93522301D01*
X155059289Y-93515711D01*
X155052699Y-93508439D01*
X155046853Y-93500557D01*
X155041808Y-93492140D01*
X155037612Y-93483268D01*
X155034306Y-93474028D01*
X155031921Y-93464509D01*
X155030482Y-93454802D01*
X155030000Y-93445000D01*
X155030000Y-93245000D01*
X155030482Y-93235198D01*
X155031921Y-93225491D01*
X155034306Y-93215972D01*
X155037612Y-93206732D01*
X155041808Y-93197860D01*
X155046853Y-93189443D01*
X155052699Y-93181561D01*
X155059289Y-93174289D01*
X155066561Y-93167699D01*
X155074443Y-93161853D01*
X155082860Y-93156808D01*
X155091732Y-93152612D01*
X155100972Y-93149306D01*
X155110491Y-93146921D01*
X155120198Y-93145482D01*
X155130000Y-93145000D01*
X155390000Y-93145000D01*
X155399802Y-93145482D01*
X155399802Y-93145482D01*
G37*
D15*
X155260000Y-93345000D03*
G04 #@! TD*
D13*
G04 #@! TO.C,D1*
G36*
X165209504Y-98411204D02*
X165233773Y-98414804D01*
X165257571Y-98420765D01*
X165280671Y-98429030D01*
X165302849Y-98439520D01*
X165323893Y-98452133D01*
X165343598Y-98466747D01*
X165361777Y-98483223D01*
X165378253Y-98501402D01*
X165392867Y-98521107D01*
X165405480Y-98542151D01*
X165415970Y-98564329D01*
X165424235Y-98587429D01*
X165430196Y-98611227D01*
X165433796Y-98635496D01*
X165435000Y-98660000D01*
X165435000Y-99460000D01*
X165433796Y-99484504D01*
X165430196Y-99508773D01*
X165424235Y-99532571D01*
X165415970Y-99555671D01*
X165405480Y-99577849D01*
X165392867Y-99598893D01*
X165378253Y-99618598D01*
X165361777Y-99636777D01*
X165343598Y-99653253D01*
X165323893Y-99667867D01*
X165302849Y-99680480D01*
X165280671Y-99690970D01*
X165257571Y-99699235D01*
X165233773Y-99705196D01*
X165209504Y-99708796D01*
X165185000Y-99710000D01*
X164360000Y-99710000D01*
X164335496Y-99708796D01*
X164311227Y-99705196D01*
X164287429Y-99699235D01*
X164264329Y-99690970D01*
X164242151Y-99680480D01*
X164221107Y-99667867D01*
X164201402Y-99653253D01*
X164183223Y-99636777D01*
X164166747Y-99618598D01*
X164152133Y-99598893D01*
X164139520Y-99577849D01*
X164129030Y-99555671D01*
X164120765Y-99532571D01*
X164114804Y-99508773D01*
X164111204Y-99484504D01*
X164110000Y-99460000D01*
X164110000Y-98660000D01*
X164111204Y-98635496D01*
X164114804Y-98611227D01*
X164120765Y-98587429D01*
X164129030Y-98564329D01*
X164139520Y-98542151D01*
X164152133Y-98521107D01*
X164166747Y-98501402D01*
X164183223Y-98483223D01*
X164201402Y-98466747D01*
X164221107Y-98452133D01*
X164242151Y-98439520D01*
X164264329Y-98429030D01*
X164287429Y-98420765D01*
X164311227Y-98414804D01*
X164335496Y-98411204D01*
X164360000Y-98410000D01*
X165185000Y-98410000D01*
X165209504Y-98411204D01*
X165209504Y-98411204D01*
G37*
D16*
X164772500Y-99060000D03*
D13*
G36*
X167134504Y-98411204D02*
X167158773Y-98414804D01*
X167182571Y-98420765D01*
X167205671Y-98429030D01*
X167227849Y-98439520D01*
X167248893Y-98452133D01*
X167268598Y-98466747D01*
X167286777Y-98483223D01*
X167303253Y-98501402D01*
X167317867Y-98521107D01*
X167330480Y-98542151D01*
X167340970Y-98564329D01*
X167349235Y-98587429D01*
X167355196Y-98611227D01*
X167358796Y-98635496D01*
X167360000Y-98660000D01*
X167360000Y-99460000D01*
X167358796Y-99484504D01*
X167355196Y-99508773D01*
X167349235Y-99532571D01*
X167340970Y-99555671D01*
X167330480Y-99577849D01*
X167317867Y-99598893D01*
X167303253Y-99618598D01*
X167286777Y-99636777D01*
X167268598Y-99653253D01*
X167248893Y-99667867D01*
X167227849Y-99680480D01*
X167205671Y-99690970D01*
X167182571Y-99699235D01*
X167158773Y-99705196D01*
X167134504Y-99708796D01*
X167110000Y-99710000D01*
X166285000Y-99710000D01*
X166260496Y-99708796D01*
X166236227Y-99705196D01*
X166212429Y-99699235D01*
X166189329Y-99690970D01*
X166167151Y-99680480D01*
X166146107Y-99667867D01*
X166126402Y-99653253D01*
X166108223Y-99636777D01*
X166091747Y-99618598D01*
X166077133Y-99598893D01*
X166064520Y-99577849D01*
X166054030Y-99555671D01*
X166045765Y-99532571D01*
X166039804Y-99508773D01*
X166036204Y-99484504D01*
X166035000Y-99460000D01*
X166035000Y-98660000D01*
X166036204Y-98635496D01*
X166039804Y-98611227D01*
X166045765Y-98587429D01*
X166054030Y-98564329D01*
X166064520Y-98542151D01*
X166077133Y-98521107D01*
X166091747Y-98501402D01*
X166108223Y-98483223D01*
X166126402Y-98466747D01*
X166146107Y-98452133D01*
X166167151Y-98439520D01*
X166189329Y-98429030D01*
X166212429Y-98420765D01*
X166236227Y-98414804D01*
X166260496Y-98411204D01*
X166285000Y-98410000D01*
X167110000Y-98410000D01*
X167134504Y-98411204D01*
X167134504Y-98411204D01*
G37*
D16*
X166697500Y-99060000D03*
G04 #@! TD*
D17*
G04 #@! TO.C,IC1*
X135270000Y-89345000D03*
X135270000Y-90145000D03*
X135270000Y-90945000D03*
X135270000Y-91745000D03*
X135270000Y-92545000D03*
X135270000Y-93345000D03*
X135270000Y-94145000D03*
X135270000Y-94945000D03*
X135270000Y-95745000D03*
X135270000Y-96545000D03*
X135270000Y-97345000D03*
D18*
X136970000Y-99045000D03*
X137770000Y-99045000D03*
X138570000Y-99045000D03*
X139370000Y-99045000D03*
X140170000Y-99045000D03*
X140970000Y-99045000D03*
X141770000Y-99045000D03*
X142570000Y-99045000D03*
X143370000Y-99045000D03*
X144170000Y-99045000D03*
X144970000Y-99045000D03*
D17*
X146670000Y-97345000D03*
X146670000Y-96545000D03*
X146670000Y-95745000D03*
X146670000Y-94945000D03*
X146670000Y-94145000D03*
X146670000Y-93345000D03*
X146670000Y-92545000D03*
X146670000Y-91745000D03*
X146670000Y-90945000D03*
X146670000Y-90145000D03*
X146670000Y-89345000D03*
D18*
X144970000Y-87645000D03*
X144170000Y-87645000D03*
X143370000Y-87645000D03*
X142570000Y-87645000D03*
X141770000Y-87645000D03*
X140970000Y-87645000D03*
X140170000Y-87645000D03*
X139370000Y-87645000D03*
X138570000Y-87645000D03*
X137770000Y-87645000D03*
X136970000Y-87645000D03*
G04 #@! TD*
D19*
G04 #@! TO.C,J1*
X135890000Y-116205000D03*
D20*
X138430000Y-116205000D03*
X140970000Y-116205000D03*
X143510000Y-116205000D03*
X146050000Y-116205000D03*
X148590000Y-116205000D03*
G04 #@! TD*
D19*
G04 #@! TO.C,J2*
X165100000Y-115570000D03*
D20*
X167640000Y-115570000D03*
G04 #@! TD*
D19*
G04 #@! TO.C,J3*
X116840000Y-85090000D03*
D20*
X116840000Y-87630000D03*
X116840000Y-90170000D03*
X116840000Y-92710000D03*
X116840000Y-95250000D03*
X116840000Y-97790000D03*
X116840000Y-100330000D03*
X116840000Y-102870000D03*
G04 #@! TD*
G04 #@! TO.C,J4*
X148590000Y-108585000D03*
X146050000Y-108585000D03*
X143510000Y-108585000D03*
X140970000Y-108585000D03*
X138430000Y-108585000D03*
D19*
X135890000Y-108585000D03*
G04 #@! TD*
G04 #@! TO.C,J5*
X124460000Y-85090000D03*
D20*
X124460000Y-87630000D03*
X124460000Y-90170000D03*
X124460000Y-92710000D03*
X124460000Y-95250000D03*
X124460000Y-97790000D03*
X124460000Y-100330000D03*
X124460000Y-102870000D03*
G04 #@! TD*
G04 #@! TO.C,J6*
X135890000Y-74295000D03*
X138430000Y-74295000D03*
X140970000Y-74295000D03*
X143510000Y-74295000D03*
X146050000Y-74295000D03*
X148590000Y-74295000D03*
X151130000Y-74295000D03*
D19*
X153670000Y-74295000D03*
G04 #@! TD*
G04 #@! TO.C,J7*
X166370000Y-89535000D03*
D20*
X166370000Y-86995000D03*
X166370000Y-84455000D03*
G04 #@! TD*
D13*
G04 #@! TO.C,R1*
G36*
X126330142Y-107886174D02*
X126353803Y-107889684D01*
X126377007Y-107895496D01*
X126399529Y-107903554D01*
X126421153Y-107913782D01*
X126441670Y-107926079D01*
X126460883Y-107940329D01*
X126478607Y-107956393D01*
X126494671Y-107974117D01*
X126508921Y-107993330D01*
X126521218Y-108013847D01*
X126531446Y-108035471D01*
X126539504Y-108057993D01*
X126545316Y-108081197D01*
X126548826Y-108104858D01*
X126550000Y-108128750D01*
X126550000Y-109041250D01*
X126548826Y-109065142D01*
X126545316Y-109088803D01*
X126539504Y-109112007D01*
X126531446Y-109134529D01*
X126521218Y-109156153D01*
X126508921Y-109176670D01*
X126494671Y-109195883D01*
X126478607Y-109213607D01*
X126460883Y-109229671D01*
X126441670Y-109243921D01*
X126421153Y-109256218D01*
X126399529Y-109266446D01*
X126377007Y-109274504D01*
X126353803Y-109280316D01*
X126330142Y-109283826D01*
X126306250Y-109285000D01*
X125818750Y-109285000D01*
X125794858Y-109283826D01*
X125771197Y-109280316D01*
X125747993Y-109274504D01*
X125725471Y-109266446D01*
X125703847Y-109256218D01*
X125683330Y-109243921D01*
X125664117Y-109229671D01*
X125646393Y-109213607D01*
X125630329Y-109195883D01*
X125616079Y-109176670D01*
X125603782Y-109156153D01*
X125593554Y-109134529D01*
X125585496Y-109112007D01*
X125579684Y-109088803D01*
X125576174Y-109065142D01*
X125575000Y-109041250D01*
X125575000Y-108128750D01*
X125576174Y-108104858D01*
X125579684Y-108081197D01*
X125585496Y-108057993D01*
X125593554Y-108035471D01*
X125603782Y-108013847D01*
X125616079Y-107993330D01*
X125630329Y-107974117D01*
X125646393Y-107956393D01*
X125664117Y-107940329D01*
X125683330Y-107926079D01*
X125703847Y-107913782D01*
X125725471Y-107903554D01*
X125747993Y-107895496D01*
X125771197Y-107889684D01*
X125794858Y-107886174D01*
X125818750Y-107885000D01*
X126306250Y-107885000D01*
X126330142Y-107886174D01*
X126330142Y-107886174D01*
G37*
D21*
X126062500Y-108585000D03*
D13*
G36*
X128205142Y-107886174D02*
X128228803Y-107889684D01*
X128252007Y-107895496D01*
X128274529Y-107903554D01*
X128296153Y-107913782D01*
X128316670Y-107926079D01*
X128335883Y-107940329D01*
X128353607Y-107956393D01*
X128369671Y-107974117D01*
X128383921Y-107993330D01*
X128396218Y-108013847D01*
X128406446Y-108035471D01*
X128414504Y-108057993D01*
X128420316Y-108081197D01*
X128423826Y-108104858D01*
X128425000Y-108128750D01*
X128425000Y-109041250D01*
X128423826Y-109065142D01*
X128420316Y-109088803D01*
X128414504Y-109112007D01*
X128406446Y-109134529D01*
X128396218Y-109156153D01*
X128383921Y-109176670D01*
X128369671Y-109195883D01*
X128353607Y-109213607D01*
X128335883Y-109229671D01*
X128316670Y-109243921D01*
X128296153Y-109256218D01*
X128274529Y-109266446D01*
X128252007Y-109274504D01*
X128228803Y-109280316D01*
X128205142Y-109283826D01*
X128181250Y-109285000D01*
X127693750Y-109285000D01*
X127669858Y-109283826D01*
X127646197Y-109280316D01*
X127622993Y-109274504D01*
X127600471Y-109266446D01*
X127578847Y-109256218D01*
X127558330Y-109243921D01*
X127539117Y-109229671D01*
X127521393Y-109213607D01*
X127505329Y-109195883D01*
X127491079Y-109176670D01*
X127478782Y-109156153D01*
X127468554Y-109134529D01*
X127460496Y-109112007D01*
X127454684Y-109088803D01*
X127451174Y-109065142D01*
X127450000Y-109041250D01*
X127450000Y-108128750D01*
X127451174Y-108104858D01*
X127454684Y-108081197D01*
X127460496Y-108057993D01*
X127468554Y-108035471D01*
X127478782Y-108013847D01*
X127491079Y-107993330D01*
X127505329Y-107974117D01*
X127521393Y-107956393D01*
X127539117Y-107940329D01*
X127558330Y-107926079D01*
X127578847Y-107913782D01*
X127600471Y-107903554D01*
X127622993Y-107895496D01*
X127646197Y-107889684D01*
X127669858Y-107886174D01*
X127693750Y-107885000D01*
X128181250Y-107885000D01*
X128205142Y-107886174D01*
X128205142Y-107886174D01*
G37*
D21*
X127937500Y-108585000D03*
G04 #@! TD*
D13*
G04 #@! TO.C,R2*
G36*
X165065142Y-103441174D02*
X165088803Y-103444684D01*
X165112007Y-103450496D01*
X165134529Y-103458554D01*
X165156153Y-103468782D01*
X165176670Y-103481079D01*
X165195883Y-103495329D01*
X165213607Y-103511393D01*
X165229671Y-103529117D01*
X165243921Y-103548330D01*
X165256218Y-103568847D01*
X165266446Y-103590471D01*
X165274504Y-103612993D01*
X165280316Y-103636197D01*
X165283826Y-103659858D01*
X165285000Y-103683750D01*
X165285000Y-104596250D01*
X165283826Y-104620142D01*
X165280316Y-104643803D01*
X165274504Y-104667007D01*
X165266446Y-104689529D01*
X165256218Y-104711153D01*
X165243921Y-104731670D01*
X165229671Y-104750883D01*
X165213607Y-104768607D01*
X165195883Y-104784671D01*
X165176670Y-104798921D01*
X165156153Y-104811218D01*
X165134529Y-104821446D01*
X165112007Y-104829504D01*
X165088803Y-104835316D01*
X165065142Y-104838826D01*
X165041250Y-104840000D01*
X164553750Y-104840000D01*
X164529858Y-104838826D01*
X164506197Y-104835316D01*
X164482993Y-104829504D01*
X164460471Y-104821446D01*
X164438847Y-104811218D01*
X164418330Y-104798921D01*
X164399117Y-104784671D01*
X164381393Y-104768607D01*
X164365329Y-104750883D01*
X164351079Y-104731670D01*
X164338782Y-104711153D01*
X164328554Y-104689529D01*
X164320496Y-104667007D01*
X164314684Y-104643803D01*
X164311174Y-104620142D01*
X164310000Y-104596250D01*
X164310000Y-103683750D01*
X164311174Y-103659858D01*
X164314684Y-103636197D01*
X164320496Y-103612993D01*
X164328554Y-103590471D01*
X164338782Y-103568847D01*
X164351079Y-103548330D01*
X164365329Y-103529117D01*
X164381393Y-103511393D01*
X164399117Y-103495329D01*
X164418330Y-103481079D01*
X164438847Y-103468782D01*
X164460471Y-103458554D01*
X164482993Y-103450496D01*
X164506197Y-103444684D01*
X164529858Y-103441174D01*
X164553750Y-103440000D01*
X165041250Y-103440000D01*
X165065142Y-103441174D01*
X165065142Y-103441174D01*
G37*
D21*
X164797500Y-104140000D03*
D13*
G36*
X166940142Y-103441174D02*
X166963803Y-103444684D01*
X166987007Y-103450496D01*
X167009529Y-103458554D01*
X167031153Y-103468782D01*
X167051670Y-103481079D01*
X167070883Y-103495329D01*
X167088607Y-103511393D01*
X167104671Y-103529117D01*
X167118921Y-103548330D01*
X167131218Y-103568847D01*
X167141446Y-103590471D01*
X167149504Y-103612993D01*
X167155316Y-103636197D01*
X167158826Y-103659858D01*
X167160000Y-103683750D01*
X167160000Y-104596250D01*
X167158826Y-104620142D01*
X167155316Y-104643803D01*
X167149504Y-104667007D01*
X167141446Y-104689529D01*
X167131218Y-104711153D01*
X167118921Y-104731670D01*
X167104671Y-104750883D01*
X167088607Y-104768607D01*
X167070883Y-104784671D01*
X167051670Y-104798921D01*
X167031153Y-104811218D01*
X167009529Y-104821446D01*
X166987007Y-104829504D01*
X166963803Y-104835316D01*
X166940142Y-104838826D01*
X166916250Y-104840000D01*
X166428750Y-104840000D01*
X166404858Y-104838826D01*
X166381197Y-104835316D01*
X166357993Y-104829504D01*
X166335471Y-104821446D01*
X166313847Y-104811218D01*
X166293330Y-104798921D01*
X166274117Y-104784671D01*
X166256393Y-104768607D01*
X166240329Y-104750883D01*
X166226079Y-104731670D01*
X166213782Y-104711153D01*
X166203554Y-104689529D01*
X166195496Y-104667007D01*
X166189684Y-104643803D01*
X166186174Y-104620142D01*
X166185000Y-104596250D01*
X166185000Y-103683750D01*
X166186174Y-103659858D01*
X166189684Y-103636197D01*
X166195496Y-103612993D01*
X166203554Y-103590471D01*
X166213782Y-103568847D01*
X166226079Y-103548330D01*
X166240329Y-103529117D01*
X166256393Y-103511393D01*
X166274117Y-103495329D01*
X166293330Y-103481079D01*
X166313847Y-103468782D01*
X166335471Y-103458554D01*
X166357993Y-103450496D01*
X166381197Y-103444684D01*
X166404858Y-103441174D01*
X166428750Y-103440000D01*
X166916250Y-103440000D01*
X166940142Y-103441174D01*
X166940142Y-103441174D01*
G37*
D21*
X166672500Y-104140000D03*
G04 #@! TD*
D22*
G04 #@! TO.C,Y1*
X168080000Y-77470000D03*
X159580000Y-77470000D03*
G04 #@! TD*
M02*
