G04 #@! TF.GenerationSoftware,KiCad,Pcbnew,(5.0.0-3-g5ebb6b6)*
G04 #@! TF.CreationDate,2021-02-23T05:46:04-05:00*
G04 #@! TF.ProjectId,PIC16F74Breakout,5049433136463734427265616B6F7574,rev?*
G04 #@! TF.SameCoordinates,Original*
G04 #@! TF.FileFunction,Soldermask,Bot*
G04 #@! TF.FilePolarity,Negative*
%FSLAX46Y46*%
G04 Gerber Fmt 4.6, Leading zero omitted, Abs format (unit mm)*
G04 Created by KiCad (PCBNEW (5.0.0-3-g5ebb6b6)) date Tuesday, February 23, 2021 at 05:46:04 AM*
%MOMM*%
%LPD*%
G01*
G04 APERTURE LIST*
%ADD10R,1.700000X1.700000*%
%ADD11O,1.700000X1.700000*%
G04 APERTURE END LIST*
D10*
G04 #@! TO.C,J1*
X135890000Y-116205000D03*
D11*
X138430000Y-116205000D03*
X140970000Y-116205000D03*
X143510000Y-116205000D03*
X146050000Y-116205000D03*
X148590000Y-116205000D03*
G04 #@! TD*
D10*
G04 #@! TO.C,J2*
X165100000Y-115570000D03*
D11*
X167640000Y-115570000D03*
G04 #@! TD*
D10*
G04 #@! TO.C,J3*
X116840000Y-85090000D03*
D11*
X116840000Y-87630000D03*
X116840000Y-90170000D03*
X116840000Y-92710000D03*
X116840000Y-95250000D03*
X116840000Y-97790000D03*
X116840000Y-100330000D03*
X116840000Y-102870000D03*
G04 #@! TD*
G04 #@! TO.C,J4*
X148590000Y-108585000D03*
X146050000Y-108585000D03*
X143510000Y-108585000D03*
X140970000Y-108585000D03*
X138430000Y-108585000D03*
D10*
X135890000Y-108585000D03*
G04 #@! TD*
G04 #@! TO.C,J5*
X124460000Y-85090000D03*
D11*
X124460000Y-87630000D03*
X124460000Y-90170000D03*
X124460000Y-92710000D03*
X124460000Y-95250000D03*
X124460000Y-97790000D03*
X124460000Y-100330000D03*
X124460000Y-102870000D03*
G04 #@! TD*
G04 #@! TO.C,J6*
X135890000Y-74295000D03*
X138430000Y-74295000D03*
X140970000Y-74295000D03*
X143510000Y-74295000D03*
X146050000Y-74295000D03*
X148590000Y-74295000D03*
X151130000Y-74295000D03*
D10*
X153670000Y-74295000D03*
G04 #@! TD*
G04 #@! TO.C,J7*
X166370000Y-89535000D03*
D11*
X166370000Y-86995000D03*
X166370000Y-84455000D03*
G04 #@! TD*
M02*
