G04 #@! TF.GenerationSoftware,KiCad,Pcbnew,(5.0.0-3-g5ebb6b6)*
G04 #@! TF.CreationDate,2021-02-23T05:46:04-05:00*
G04 #@! TF.ProjectId,PIC16F74Breakout,5049433136463734427265616B6F7574,rev?*
G04 #@! TF.SameCoordinates,Original*
G04 #@! TF.FileFunction,Copper,L1,Top,Signal*
G04 #@! TF.FilePolarity,Positive*
%FSLAX46Y46*%
G04 Gerber Fmt 4.6, Leading zero omitted, Abs format (unit mm)*
G04 Created by KiCad (PCBNEW (5.0.0-3-g5ebb6b6)) date Tuesday, February 23, 2021 at 05:46:04 AM*
%MOMM*%
%LPD*%
G01*
G04 APERTURE LIST*
G04 #@! TA.AperFunction,SMDPad,CuDef*
%ADD10R,0.889000X1.473200*%
G04 #@! TD*
G04 #@! TA.AperFunction,SMDPad,CuDef*
%ADD11R,2.000000X1.500000*%
G04 #@! TD*
G04 #@! TA.AperFunction,Conductor*
%ADD12C,0.100000*%
G04 #@! TD*
G04 #@! TA.AperFunction,SMDPad,CuDef*
%ADD13C,0.590000*%
G04 #@! TD*
G04 #@! TA.AperFunction,SMDPad,CuDef*
%ADD14C,0.400000*%
G04 #@! TD*
G04 #@! TA.AperFunction,SMDPad,CuDef*
%ADD15C,1.300000*%
G04 #@! TD*
G04 #@! TA.AperFunction,SMDPad,CuDef*
%ADD16R,1.500000X0.550000*%
G04 #@! TD*
G04 #@! TA.AperFunction,SMDPad,CuDef*
%ADD17R,0.550000X1.500000*%
G04 #@! TD*
G04 #@! TA.AperFunction,ComponentPad*
%ADD18R,1.700000X1.700000*%
G04 #@! TD*
G04 #@! TA.AperFunction,ComponentPad*
%ADD19O,1.700000X1.700000*%
G04 #@! TD*
G04 #@! TA.AperFunction,SMDPad,CuDef*
%ADD20C,0.975000*%
G04 #@! TD*
G04 #@! TA.AperFunction,SMDPad,CuDef*
%ADD21R,4.500000X2.000000*%
G04 #@! TD*
G04 #@! TA.AperFunction,ViaPad*
%ADD22C,0.800000*%
G04 #@! TD*
G04 #@! TA.AperFunction,Conductor*
%ADD23C,0.250000*%
G04 #@! TD*
G04 #@! TA.AperFunction,Conductor*
%ADD24C,0.254000*%
G04 #@! TD*
G04 APERTURE END LIST*
D10*
G04 #@! TO.P,U1,1*
G04 #@! TO.N,Net-(J2-Pad1)*
X160415000Y-107856000D03*
G04 #@! TO.P,U1,2*
G04 #@! TO.N,GND*
X158115000Y-107856000D03*
G04 #@! TO.P,U1,3*
G04 #@! TO.N,Net-(C3-Pad1)*
X155815000Y-107856000D03*
D11*
G04 #@! TO.P,U1,4*
G04 #@! TO.N,N/C*
X158115000Y-113665000D03*
G04 #@! TD*
D12*
G04 #@! TO.N,Net-(C1-Pad1)*
G04 #@! TO.C,C1*
G36*
X155761958Y-87970710D02*
X155776276Y-87972834D01*
X155790317Y-87976351D01*
X155803946Y-87981228D01*
X155817031Y-87987417D01*
X155829447Y-87994858D01*
X155841073Y-88003481D01*
X155851798Y-88013202D01*
X155861519Y-88023927D01*
X155870142Y-88035553D01*
X155877583Y-88047969D01*
X155883772Y-88061054D01*
X155888649Y-88074683D01*
X155892166Y-88088724D01*
X155894290Y-88103042D01*
X155895000Y-88117500D01*
X155895000Y-88412500D01*
X155894290Y-88426958D01*
X155892166Y-88441276D01*
X155888649Y-88455317D01*
X155883772Y-88468946D01*
X155877583Y-88482031D01*
X155870142Y-88494447D01*
X155861519Y-88506073D01*
X155851798Y-88516798D01*
X155841073Y-88526519D01*
X155829447Y-88535142D01*
X155817031Y-88542583D01*
X155803946Y-88548772D01*
X155790317Y-88553649D01*
X155776276Y-88557166D01*
X155761958Y-88559290D01*
X155747500Y-88560000D01*
X155402500Y-88560000D01*
X155388042Y-88559290D01*
X155373724Y-88557166D01*
X155359683Y-88553649D01*
X155346054Y-88548772D01*
X155332969Y-88542583D01*
X155320553Y-88535142D01*
X155308927Y-88526519D01*
X155298202Y-88516798D01*
X155288481Y-88506073D01*
X155279858Y-88494447D01*
X155272417Y-88482031D01*
X155266228Y-88468946D01*
X155261351Y-88455317D01*
X155257834Y-88441276D01*
X155255710Y-88426958D01*
X155255000Y-88412500D01*
X155255000Y-88117500D01*
X155255710Y-88103042D01*
X155257834Y-88088724D01*
X155261351Y-88074683D01*
X155266228Y-88061054D01*
X155272417Y-88047969D01*
X155279858Y-88035553D01*
X155288481Y-88023927D01*
X155298202Y-88013202D01*
X155308927Y-88003481D01*
X155320553Y-87994858D01*
X155332969Y-87987417D01*
X155346054Y-87981228D01*
X155359683Y-87976351D01*
X155373724Y-87972834D01*
X155388042Y-87970710D01*
X155402500Y-87970000D01*
X155747500Y-87970000D01*
X155761958Y-87970710D01*
X155761958Y-87970710D01*
G37*
D13*
G04 #@! TD*
G04 #@! TO.P,C1,1*
G04 #@! TO.N,Net-(C1-Pad1)*
X155575000Y-88265000D03*
D12*
G04 #@! TO.N,GND*
G04 #@! TO.C,C1*
G36*
X155761958Y-87000710D02*
X155776276Y-87002834D01*
X155790317Y-87006351D01*
X155803946Y-87011228D01*
X155817031Y-87017417D01*
X155829447Y-87024858D01*
X155841073Y-87033481D01*
X155851798Y-87043202D01*
X155861519Y-87053927D01*
X155870142Y-87065553D01*
X155877583Y-87077969D01*
X155883772Y-87091054D01*
X155888649Y-87104683D01*
X155892166Y-87118724D01*
X155894290Y-87133042D01*
X155895000Y-87147500D01*
X155895000Y-87442500D01*
X155894290Y-87456958D01*
X155892166Y-87471276D01*
X155888649Y-87485317D01*
X155883772Y-87498946D01*
X155877583Y-87512031D01*
X155870142Y-87524447D01*
X155861519Y-87536073D01*
X155851798Y-87546798D01*
X155841073Y-87556519D01*
X155829447Y-87565142D01*
X155817031Y-87572583D01*
X155803946Y-87578772D01*
X155790317Y-87583649D01*
X155776276Y-87587166D01*
X155761958Y-87589290D01*
X155747500Y-87590000D01*
X155402500Y-87590000D01*
X155388042Y-87589290D01*
X155373724Y-87587166D01*
X155359683Y-87583649D01*
X155346054Y-87578772D01*
X155332969Y-87572583D01*
X155320553Y-87565142D01*
X155308927Y-87556519D01*
X155298202Y-87546798D01*
X155288481Y-87536073D01*
X155279858Y-87524447D01*
X155272417Y-87512031D01*
X155266228Y-87498946D01*
X155261351Y-87485317D01*
X155257834Y-87471276D01*
X155255710Y-87456958D01*
X155255000Y-87442500D01*
X155255000Y-87147500D01*
X155255710Y-87133042D01*
X155257834Y-87118724D01*
X155261351Y-87104683D01*
X155266228Y-87091054D01*
X155272417Y-87077969D01*
X155279858Y-87065553D01*
X155288481Y-87053927D01*
X155298202Y-87043202D01*
X155308927Y-87033481D01*
X155320553Y-87024858D01*
X155332969Y-87017417D01*
X155346054Y-87011228D01*
X155359683Y-87006351D01*
X155373724Y-87002834D01*
X155388042Y-87000710D01*
X155402500Y-87000000D01*
X155747500Y-87000000D01*
X155761958Y-87000710D01*
X155761958Y-87000710D01*
G37*
D13*
G04 #@! TD*
G04 #@! TO.P,C1,2*
G04 #@! TO.N,GND*
X155575000Y-87295000D03*
D12*
G04 #@! TO.N,GND*
G04 #@! TO.C,C2*
G36*
X155761958Y-83525710D02*
X155776276Y-83527834D01*
X155790317Y-83531351D01*
X155803946Y-83536228D01*
X155817031Y-83542417D01*
X155829447Y-83549858D01*
X155841073Y-83558481D01*
X155851798Y-83568202D01*
X155861519Y-83578927D01*
X155870142Y-83590553D01*
X155877583Y-83602969D01*
X155883772Y-83616054D01*
X155888649Y-83629683D01*
X155892166Y-83643724D01*
X155894290Y-83658042D01*
X155895000Y-83672500D01*
X155895000Y-83967500D01*
X155894290Y-83981958D01*
X155892166Y-83996276D01*
X155888649Y-84010317D01*
X155883772Y-84023946D01*
X155877583Y-84037031D01*
X155870142Y-84049447D01*
X155861519Y-84061073D01*
X155851798Y-84071798D01*
X155841073Y-84081519D01*
X155829447Y-84090142D01*
X155817031Y-84097583D01*
X155803946Y-84103772D01*
X155790317Y-84108649D01*
X155776276Y-84112166D01*
X155761958Y-84114290D01*
X155747500Y-84115000D01*
X155402500Y-84115000D01*
X155388042Y-84114290D01*
X155373724Y-84112166D01*
X155359683Y-84108649D01*
X155346054Y-84103772D01*
X155332969Y-84097583D01*
X155320553Y-84090142D01*
X155308927Y-84081519D01*
X155298202Y-84071798D01*
X155288481Y-84061073D01*
X155279858Y-84049447D01*
X155272417Y-84037031D01*
X155266228Y-84023946D01*
X155261351Y-84010317D01*
X155257834Y-83996276D01*
X155255710Y-83981958D01*
X155255000Y-83967500D01*
X155255000Y-83672500D01*
X155255710Y-83658042D01*
X155257834Y-83643724D01*
X155261351Y-83629683D01*
X155266228Y-83616054D01*
X155272417Y-83602969D01*
X155279858Y-83590553D01*
X155288481Y-83578927D01*
X155298202Y-83568202D01*
X155308927Y-83558481D01*
X155320553Y-83549858D01*
X155332969Y-83542417D01*
X155346054Y-83536228D01*
X155359683Y-83531351D01*
X155373724Y-83527834D01*
X155388042Y-83525710D01*
X155402500Y-83525000D01*
X155747500Y-83525000D01*
X155761958Y-83525710D01*
X155761958Y-83525710D01*
G37*
D13*
G04 #@! TD*
G04 #@! TO.P,C2,2*
G04 #@! TO.N,GND*
X155575000Y-83820000D03*
D12*
G04 #@! TO.N,Net-(C2-Pad1)*
G04 #@! TO.C,C2*
G36*
X155761958Y-84495710D02*
X155776276Y-84497834D01*
X155790317Y-84501351D01*
X155803946Y-84506228D01*
X155817031Y-84512417D01*
X155829447Y-84519858D01*
X155841073Y-84528481D01*
X155851798Y-84538202D01*
X155861519Y-84548927D01*
X155870142Y-84560553D01*
X155877583Y-84572969D01*
X155883772Y-84586054D01*
X155888649Y-84599683D01*
X155892166Y-84613724D01*
X155894290Y-84628042D01*
X155895000Y-84642500D01*
X155895000Y-84937500D01*
X155894290Y-84951958D01*
X155892166Y-84966276D01*
X155888649Y-84980317D01*
X155883772Y-84993946D01*
X155877583Y-85007031D01*
X155870142Y-85019447D01*
X155861519Y-85031073D01*
X155851798Y-85041798D01*
X155841073Y-85051519D01*
X155829447Y-85060142D01*
X155817031Y-85067583D01*
X155803946Y-85073772D01*
X155790317Y-85078649D01*
X155776276Y-85082166D01*
X155761958Y-85084290D01*
X155747500Y-85085000D01*
X155402500Y-85085000D01*
X155388042Y-85084290D01*
X155373724Y-85082166D01*
X155359683Y-85078649D01*
X155346054Y-85073772D01*
X155332969Y-85067583D01*
X155320553Y-85060142D01*
X155308927Y-85051519D01*
X155298202Y-85041798D01*
X155288481Y-85031073D01*
X155279858Y-85019447D01*
X155272417Y-85007031D01*
X155266228Y-84993946D01*
X155261351Y-84980317D01*
X155257834Y-84966276D01*
X155255710Y-84951958D01*
X155255000Y-84937500D01*
X155255000Y-84642500D01*
X155255710Y-84628042D01*
X155257834Y-84613724D01*
X155261351Y-84599683D01*
X155266228Y-84586054D01*
X155272417Y-84572969D01*
X155279858Y-84560553D01*
X155288481Y-84548927D01*
X155298202Y-84538202D01*
X155308927Y-84528481D01*
X155320553Y-84519858D01*
X155332969Y-84512417D01*
X155346054Y-84506228D01*
X155359683Y-84501351D01*
X155373724Y-84497834D01*
X155388042Y-84495710D01*
X155402500Y-84495000D01*
X155747500Y-84495000D01*
X155761958Y-84495710D01*
X155761958Y-84495710D01*
G37*
D13*
G04 #@! TD*
G04 #@! TO.P,C2,1*
G04 #@! TO.N,Net-(C2-Pad1)*
X155575000Y-84790000D03*
D12*
G04 #@! TO.N,Net-(C3-Pad1)*
G04 #@! TO.C,C3*
G36*
X154759802Y-93145482D02*
X154769509Y-93146921D01*
X154779028Y-93149306D01*
X154788268Y-93152612D01*
X154797140Y-93156808D01*
X154805557Y-93161853D01*
X154813439Y-93167699D01*
X154820711Y-93174289D01*
X154827301Y-93181561D01*
X154833147Y-93189443D01*
X154838192Y-93197860D01*
X154842388Y-93206732D01*
X154845694Y-93215972D01*
X154848079Y-93225491D01*
X154849518Y-93235198D01*
X154850000Y-93245000D01*
X154850000Y-93445000D01*
X154849518Y-93454802D01*
X154848079Y-93464509D01*
X154845694Y-93474028D01*
X154842388Y-93483268D01*
X154838192Y-93492140D01*
X154833147Y-93500557D01*
X154827301Y-93508439D01*
X154820711Y-93515711D01*
X154813439Y-93522301D01*
X154805557Y-93528147D01*
X154797140Y-93533192D01*
X154788268Y-93537388D01*
X154779028Y-93540694D01*
X154769509Y-93543079D01*
X154759802Y-93544518D01*
X154750000Y-93545000D01*
X154490000Y-93545000D01*
X154480198Y-93544518D01*
X154470491Y-93543079D01*
X154460972Y-93540694D01*
X154451732Y-93537388D01*
X154442860Y-93533192D01*
X154434443Y-93528147D01*
X154426561Y-93522301D01*
X154419289Y-93515711D01*
X154412699Y-93508439D01*
X154406853Y-93500557D01*
X154401808Y-93492140D01*
X154397612Y-93483268D01*
X154394306Y-93474028D01*
X154391921Y-93464509D01*
X154390482Y-93454802D01*
X154390000Y-93445000D01*
X154390000Y-93245000D01*
X154390482Y-93235198D01*
X154391921Y-93225491D01*
X154394306Y-93215972D01*
X154397612Y-93206732D01*
X154401808Y-93197860D01*
X154406853Y-93189443D01*
X154412699Y-93181561D01*
X154419289Y-93174289D01*
X154426561Y-93167699D01*
X154434443Y-93161853D01*
X154442860Y-93156808D01*
X154451732Y-93152612D01*
X154460972Y-93149306D01*
X154470491Y-93146921D01*
X154480198Y-93145482D01*
X154490000Y-93145000D01*
X154750000Y-93145000D01*
X154759802Y-93145482D01*
X154759802Y-93145482D01*
G37*
D14*
G04 #@! TD*
G04 #@! TO.P,C3,1*
G04 #@! TO.N,Net-(C3-Pad1)*
X154620000Y-93345000D03*
D12*
G04 #@! TO.N,GND*
G04 #@! TO.C,C3*
G36*
X155399802Y-93145482D02*
X155409509Y-93146921D01*
X155419028Y-93149306D01*
X155428268Y-93152612D01*
X155437140Y-93156808D01*
X155445557Y-93161853D01*
X155453439Y-93167699D01*
X155460711Y-93174289D01*
X155467301Y-93181561D01*
X155473147Y-93189443D01*
X155478192Y-93197860D01*
X155482388Y-93206732D01*
X155485694Y-93215972D01*
X155488079Y-93225491D01*
X155489518Y-93235198D01*
X155490000Y-93245000D01*
X155490000Y-93445000D01*
X155489518Y-93454802D01*
X155488079Y-93464509D01*
X155485694Y-93474028D01*
X155482388Y-93483268D01*
X155478192Y-93492140D01*
X155473147Y-93500557D01*
X155467301Y-93508439D01*
X155460711Y-93515711D01*
X155453439Y-93522301D01*
X155445557Y-93528147D01*
X155437140Y-93533192D01*
X155428268Y-93537388D01*
X155419028Y-93540694D01*
X155409509Y-93543079D01*
X155399802Y-93544518D01*
X155390000Y-93545000D01*
X155130000Y-93545000D01*
X155120198Y-93544518D01*
X155110491Y-93543079D01*
X155100972Y-93540694D01*
X155091732Y-93537388D01*
X155082860Y-93533192D01*
X155074443Y-93528147D01*
X155066561Y-93522301D01*
X155059289Y-93515711D01*
X155052699Y-93508439D01*
X155046853Y-93500557D01*
X155041808Y-93492140D01*
X155037612Y-93483268D01*
X155034306Y-93474028D01*
X155031921Y-93464509D01*
X155030482Y-93454802D01*
X155030000Y-93445000D01*
X155030000Y-93245000D01*
X155030482Y-93235198D01*
X155031921Y-93225491D01*
X155034306Y-93215972D01*
X155037612Y-93206732D01*
X155041808Y-93197860D01*
X155046853Y-93189443D01*
X155052699Y-93181561D01*
X155059289Y-93174289D01*
X155066561Y-93167699D01*
X155074443Y-93161853D01*
X155082860Y-93156808D01*
X155091732Y-93152612D01*
X155100972Y-93149306D01*
X155110491Y-93146921D01*
X155120198Y-93145482D01*
X155130000Y-93145000D01*
X155390000Y-93145000D01*
X155399802Y-93145482D01*
X155399802Y-93145482D01*
G37*
D14*
G04 #@! TD*
G04 #@! TO.P,C3,2*
G04 #@! TO.N,GND*
X155260000Y-93345000D03*
D12*
G04 #@! TO.N,GND*
G04 #@! TO.C,D1*
G36*
X165209504Y-98411204D02*
X165233773Y-98414804D01*
X165257571Y-98420765D01*
X165280671Y-98429030D01*
X165302849Y-98439520D01*
X165323893Y-98452133D01*
X165343598Y-98466747D01*
X165361777Y-98483223D01*
X165378253Y-98501402D01*
X165392867Y-98521107D01*
X165405480Y-98542151D01*
X165415970Y-98564329D01*
X165424235Y-98587429D01*
X165430196Y-98611227D01*
X165433796Y-98635496D01*
X165435000Y-98660000D01*
X165435000Y-99460000D01*
X165433796Y-99484504D01*
X165430196Y-99508773D01*
X165424235Y-99532571D01*
X165415970Y-99555671D01*
X165405480Y-99577849D01*
X165392867Y-99598893D01*
X165378253Y-99618598D01*
X165361777Y-99636777D01*
X165343598Y-99653253D01*
X165323893Y-99667867D01*
X165302849Y-99680480D01*
X165280671Y-99690970D01*
X165257571Y-99699235D01*
X165233773Y-99705196D01*
X165209504Y-99708796D01*
X165185000Y-99710000D01*
X164360000Y-99710000D01*
X164335496Y-99708796D01*
X164311227Y-99705196D01*
X164287429Y-99699235D01*
X164264329Y-99690970D01*
X164242151Y-99680480D01*
X164221107Y-99667867D01*
X164201402Y-99653253D01*
X164183223Y-99636777D01*
X164166747Y-99618598D01*
X164152133Y-99598893D01*
X164139520Y-99577849D01*
X164129030Y-99555671D01*
X164120765Y-99532571D01*
X164114804Y-99508773D01*
X164111204Y-99484504D01*
X164110000Y-99460000D01*
X164110000Y-98660000D01*
X164111204Y-98635496D01*
X164114804Y-98611227D01*
X164120765Y-98587429D01*
X164129030Y-98564329D01*
X164139520Y-98542151D01*
X164152133Y-98521107D01*
X164166747Y-98501402D01*
X164183223Y-98483223D01*
X164201402Y-98466747D01*
X164221107Y-98452133D01*
X164242151Y-98439520D01*
X164264329Y-98429030D01*
X164287429Y-98420765D01*
X164311227Y-98414804D01*
X164335496Y-98411204D01*
X164360000Y-98410000D01*
X165185000Y-98410000D01*
X165209504Y-98411204D01*
X165209504Y-98411204D01*
G37*
D15*
G04 #@! TD*
G04 #@! TO.P,D1,1*
G04 #@! TO.N,GND*
X164772500Y-99060000D03*
D12*
G04 #@! TO.N,Net-(D1-Pad2)*
G04 #@! TO.C,D1*
G36*
X167134504Y-98411204D02*
X167158773Y-98414804D01*
X167182571Y-98420765D01*
X167205671Y-98429030D01*
X167227849Y-98439520D01*
X167248893Y-98452133D01*
X167268598Y-98466747D01*
X167286777Y-98483223D01*
X167303253Y-98501402D01*
X167317867Y-98521107D01*
X167330480Y-98542151D01*
X167340970Y-98564329D01*
X167349235Y-98587429D01*
X167355196Y-98611227D01*
X167358796Y-98635496D01*
X167360000Y-98660000D01*
X167360000Y-99460000D01*
X167358796Y-99484504D01*
X167355196Y-99508773D01*
X167349235Y-99532571D01*
X167340970Y-99555671D01*
X167330480Y-99577849D01*
X167317867Y-99598893D01*
X167303253Y-99618598D01*
X167286777Y-99636777D01*
X167268598Y-99653253D01*
X167248893Y-99667867D01*
X167227849Y-99680480D01*
X167205671Y-99690970D01*
X167182571Y-99699235D01*
X167158773Y-99705196D01*
X167134504Y-99708796D01*
X167110000Y-99710000D01*
X166285000Y-99710000D01*
X166260496Y-99708796D01*
X166236227Y-99705196D01*
X166212429Y-99699235D01*
X166189329Y-99690970D01*
X166167151Y-99680480D01*
X166146107Y-99667867D01*
X166126402Y-99653253D01*
X166108223Y-99636777D01*
X166091747Y-99618598D01*
X166077133Y-99598893D01*
X166064520Y-99577849D01*
X166054030Y-99555671D01*
X166045765Y-99532571D01*
X166039804Y-99508773D01*
X166036204Y-99484504D01*
X166035000Y-99460000D01*
X166035000Y-98660000D01*
X166036204Y-98635496D01*
X166039804Y-98611227D01*
X166045765Y-98587429D01*
X166054030Y-98564329D01*
X166064520Y-98542151D01*
X166077133Y-98521107D01*
X166091747Y-98501402D01*
X166108223Y-98483223D01*
X166126402Y-98466747D01*
X166146107Y-98452133D01*
X166167151Y-98439520D01*
X166189329Y-98429030D01*
X166212429Y-98420765D01*
X166236227Y-98414804D01*
X166260496Y-98411204D01*
X166285000Y-98410000D01*
X167110000Y-98410000D01*
X167134504Y-98411204D01*
X167134504Y-98411204D01*
G37*
D15*
G04 #@! TD*
G04 #@! TO.P,D1,2*
G04 #@! TO.N,Net-(D1-Pad2)*
X166697500Y-99060000D03*
D16*
G04 #@! TO.P,IC1,1*
G04 #@! TO.N,Net-(IC1-Pad1)*
X135270000Y-89345000D03*
G04 #@! TO.P,IC1,2*
G04 #@! TO.N,Net-(IC1-Pad2)*
X135270000Y-90145000D03*
G04 #@! TO.P,IC1,3*
G04 #@! TO.N,Net-(IC1-Pad3)*
X135270000Y-90945000D03*
G04 #@! TO.P,IC1,4*
G04 #@! TO.N,Net-(IC1-Pad4)*
X135270000Y-91745000D03*
G04 #@! TO.P,IC1,5*
G04 #@! TO.N,Net-(IC1-Pad5)*
X135270000Y-92545000D03*
G04 #@! TO.P,IC1,6*
G04 #@! TO.N,GND*
X135270000Y-93345000D03*
G04 #@! TO.P,IC1,7*
G04 #@! TO.N,Net-(IC1-Pad7)*
X135270000Y-94145000D03*
G04 #@! TO.P,IC1,8*
G04 #@! TO.N,Net-(IC1-Pad8)*
X135270000Y-94945000D03*
G04 #@! TO.P,IC1,9*
G04 #@! TO.N,Net-(IC1-Pad9)*
X135270000Y-95745000D03*
G04 #@! TO.P,IC1,10*
G04 #@! TO.N,Net-(IC1-Pad10)*
X135270000Y-96545000D03*
G04 #@! TO.P,IC1,11*
G04 #@! TO.N,Net-(IC1-Pad11)*
X135270000Y-97345000D03*
D17*
G04 #@! TO.P,IC1,12*
G04 #@! TO.N,Net-(IC1-Pad12)*
X136970000Y-99045000D03*
G04 #@! TO.P,IC1,13*
G04 #@! TO.N,Net-(IC1-Pad13)*
X137770000Y-99045000D03*
G04 #@! TO.P,IC1,14*
G04 #@! TO.N,Net-(IC1-Pad14)*
X138570000Y-99045000D03*
G04 #@! TO.P,IC1,15*
G04 #@! TO.N,Net-(IC1-Pad15)*
X139370000Y-99045000D03*
G04 #@! TO.P,IC1,16*
G04 #@! TO.N,Net-(IC1-Pad16)*
X140170000Y-99045000D03*
G04 #@! TO.P,IC1,17*
G04 #@! TO.N,Net-(IC1-Pad17)*
X140970000Y-99045000D03*
G04 #@! TO.P,IC1,18*
G04 #@! TO.N,Net-(IC1-Pad18)*
X141770000Y-99045000D03*
G04 #@! TO.P,IC1,19*
G04 #@! TO.N,Net-(IC1-Pad19)*
X142570000Y-99045000D03*
G04 #@! TO.P,IC1,20*
G04 #@! TO.N,Net-(IC1-Pad20)*
X143370000Y-99045000D03*
G04 #@! TO.P,IC1,21*
G04 #@! TO.N,Net-(IC1-Pad21)*
X144170000Y-99045000D03*
G04 #@! TO.P,IC1,22*
G04 #@! TO.N,Net-(IC1-Pad22)*
X144970000Y-99045000D03*
D16*
G04 #@! TO.P,IC1,23*
G04 #@! TO.N,Net-(IC1-Pad23)*
X146670000Y-97345000D03*
G04 #@! TO.P,IC1,24*
G04 #@! TO.N,Net-(IC1-Pad24)*
X146670000Y-96545000D03*
G04 #@! TO.P,IC1,25*
G04 #@! TO.N,Net-(IC1-Pad25)*
X146670000Y-95745000D03*
G04 #@! TO.P,IC1,26*
G04 #@! TO.N,Net-(IC1-Pad26)*
X146670000Y-94945000D03*
G04 #@! TO.P,IC1,27*
G04 #@! TO.N,Net-(IC1-Pad27)*
X146670000Y-94145000D03*
G04 #@! TO.P,IC1,28*
G04 #@! TO.N,Net-(C3-Pad1)*
X146670000Y-93345000D03*
G04 #@! TO.P,IC1,29*
G04 #@! TO.N,GND*
X146670000Y-92545000D03*
G04 #@! TO.P,IC1,30*
G04 #@! TO.N,Net-(C1-Pad1)*
X146670000Y-91745000D03*
G04 #@! TO.P,IC1,31*
G04 #@! TO.N,Net-(C2-Pad1)*
X146670000Y-90945000D03*
G04 #@! TO.P,IC1,32*
G04 #@! TO.N,Net-(IC1-Pad32)*
X146670000Y-90145000D03*
G04 #@! TO.P,IC1,33*
G04 #@! TO.N,Net-(IC1-Pad33)*
X146670000Y-89345000D03*
D17*
G04 #@! TO.P,IC1,34*
G04 #@! TO.N,Net-(IC1-Pad34)*
X144970000Y-87645000D03*
G04 #@! TO.P,IC1,35*
G04 #@! TO.N,Net-(IC1-Pad35)*
X144170000Y-87645000D03*
G04 #@! TO.P,IC1,36*
G04 #@! TO.N,Net-(IC1-Pad36)*
X143370000Y-87645000D03*
G04 #@! TO.P,IC1,37*
G04 #@! TO.N,Net-(IC1-Pad37)*
X142570000Y-87645000D03*
G04 #@! TO.P,IC1,38*
G04 #@! TO.N,Net-(IC1-Pad38)*
X141770000Y-87645000D03*
G04 #@! TO.P,IC1,39*
G04 #@! TO.N,Net-(IC1-Pad39)*
X140970000Y-87645000D03*
G04 #@! TO.P,IC1,40*
G04 #@! TO.N,Net-(IC1-Pad40)*
X140170000Y-87645000D03*
G04 #@! TO.P,IC1,41*
G04 #@! TO.N,Net-(IC1-Pad41)*
X139370000Y-87645000D03*
G04 #@! TO.P,IC1,42*
G04 #@! TO.N,Net-(IC1-Pad42)*
X138570000Y-87645000D03*
G04 #@! TO.P,IC1,43*
G04 #@! TO.N,Net-(IC1-Pad43)*
X137770000Y-87645000D03*
G04 #@! TO.P,IC1,44*
G04 #@! TO.N,Net-(IC1-Pad44)*
X136970000Y-87645000D03*
G04 #@! TD*
D18*
G04 #@! TO.P,J1,1*
G04 #@! TO.N,Net-(IC1-Pad18)*
X135890000Y-116205000D03*
D19*
G04 #@! TO.P,J1,2*
G04 #@! TO.N,Net-(IC1-Pad7)*
X138430000Y-116205000D03*
G04 #@! TO.P,J1,3*
G04 #@! TO.N,GND*
X140970000Y-116205000D03*
G04 #@! TO.P,J1,4*
G04 #@! TO.N,Net-(IC1-Pad17)*
X143510000Y-116205000D03*
G04 #@! TO.P,J1,5*
G04 #@! TO.N,Net-(IC1-Pad16)*
X146050000Y-116205000D03*
G04 #@! TO.P,J1,6*
G04 #@! TO.N,Net-(IC1-Pad11)*
X148590000Y-116205000D03*
G04 #@! TD*
D18*
G04 #@! TO.P,J2,1*
G04 #@! TO.N,Net-(J2-Pad1)*
X165100000Y-115570000D03*
D19*
G04 #@! TO.P,J2,2*
G04 #@! TO.N,GND*
X167640000Y-115570000D03*
G04 #@! TD*
D18*
G04 #@! TO.P,J3,1*
G04 #@! TO.N,Net-(IC1-Pad8)*
X116840000Y-85090000D03*
D19*
G04 #@! TO.P,J3,2*
G04 #@! TO.N,Net-(IC1-Pad9)*
X116840000Y-87630000D03*
G04 #@! TO.P,J3,3*
G04 #@! TO.N,Net-(IC1-Pad10)*
X116840000Y-90170000D03*
G04 #@! TO.P,J3,4*
G04 #@! TO.N,Net-(IC1-Pad11)*
X116840000Y-92710000D03*
G04 #@! TO.P,J3,5*
G04 #@! TO.N,Net-(IC1-Pad14)*
X116840000Y-95250000D03*
G04 #@! TO.P,J3,6*
G04 #@! TO.N,Net-(IC1-Pad15)*
X116840000Y-97790000D03*
G04 #@! TO.P,J3,7*
G04 #@! TO.N,Net-(IC1-Pad16)*
X116840000Y-100330000D03*
G04 #@! TO.P,J3,8*
G04 #@! TO.N,Net-(IC1-Pad17)*
X116840000Y-102870000D03*
G04 #@! TD*
G04 #@! TO.P,J4,6*
G04 #@! TO.N,Net-(IC1-Pad24)*
X148590000Y-108585000D03*
G04 #@! TO.P,J4,5*
G04 #@! TO.N,Net-(IC1-Pad23)*
X146050000Y-108585000D03*
G04 #@! TO.P,J4,4*
G04 #@! TO.N,Net-(IC1-Pad22)*
X143510000Y-108585000D03*
G04 #@! TO.P,J4,3*
G04 #@! TO.N,Net-(IC1-Pad21)*
X140970000Y-108585000D03*
G04 #@! TO.P,J4,2*
G04 #@! TO.N,Net-(IC1-Pad20)*
X138430000Y-108585000D03*
D18*
G04 #@! TO.P,J4,1*
G04 #@! TO.N,Net-(IC1-Pad19)*
X135890000Y-108585000D03*
G04 #@! TD*
G04 #@! TO.P,J5,1*
G04 #@! TO.N,Net-(IC1-Pad38)*
X124460000Y-85090000D03*
D19*
G04 #@! TO.P,J5,2*
G04 #@! TO.N,Net-(IC1-Pad39)*
X124460000Y-87630000D03*
G04 #@! TO.P,J5,3*
G04 #@! TO.N,Net-(IC1-Pad40)*
X124460000Y-90170000D03*
G04 #@! TO.P,J5,4*
G04 #@! TO.N,Net-(IC1-Pad41)*
X124460000Y-92710000D03*
G04 #@! TO.P,J5,5*
G04 #@! TO.N,Net-(IC1-Pad2)*
X124460000Y-95250000D03*
G04 #@! TO.P,J5,6*
G04 #@! TO.N,Net-(IC1-Pad3)*
X124460000Y-97790000D03*
G04 #@! TO.P,J5,7*
G04 #@! TO.N,Net-(IC1-Pad4)*
X124460000Y-100330000D03*
G04 #@! TO.P,J5,8*
G04 #@! TO.N,Net-(IC1-Pad5)*
X124460000Y-102870000D03*
G04 #@! TD*
G04 #@! TO.P,J6,8*
G04 #@! TO.N,Net-(IC1-Pad1)*
X135890000Y-74295000D03*
G04 #@! TO.P,J6,7*
G04 #@! TO.N,Net-(IC1-Pad44)*
X138430000Y-74295000D03*
G04 #@! TO.P,J6,6*
G04 #@! TO.N,Net-(IC1-Pad43)*
X140970000Y-74295000D03*
G04 #@! TO.P,J6,5*
G04 #@! TO.N,Net-(IC1-Pad42)*
X143510000Y-74295000D03*
G04 #@! TO.P,J6,4*
G04 #@! TO.N,Net-(IC1-Pad37)*
X146050000Y-74295000D03*
G04 #@! TO.P,J6,3*
G04 #@! TO.N,Net-(IC1-Pad36)*
X148590000Y-74295000D03*
G04 #@! TO.P,J6,2*
G04 #@! TO.N,Net-(IC1-Pad35)*
X151130000Y-74295000D03*
D18*
G04 #@! TO.P,J6,1*
G04 #@! TO.N,Net-(IC1-Pad32)*
X153670000Y-74295000D03*
G04 #@! TD*
G04 #@! TO.P,J7,1*
G04 #@! TO.N,Net-(IC1-Pad25)*
X166370000Y-89535000D03*
D19*
G04 #@! TO.P,J7,2*
G04 #@! TO.N,Net-(IC1-Pad26)*
X166370000Y-86995000D03*
G04 #@! TO.P,J7,3*
G04 #@! TO.N,Net-(IC1-Pad27)*
X166370000Y-84455000D03*
G04 #@! TD*
D12*
G04 #@! TO.N,Net-(IC1-Pad7)*
G04 #@! TO.C,R1*
G36*
X126330142Y-107886174D02*
X126353803Y-107889684D01*
X126377007Y-107895496D01*
X126399529Y-107903554D01*
X126421153Y-107913782D01*
X126441670Y-107926079D01*
X126460883Y-107940329D01*
X126478607Y-107956393D01*
X126494671Y-107974117D01*
X126508921Y-107993330D01*
X126521218Y-108013847D01*
X126531446Y-108035471D01*
X126539504Y-108057993D01*
X126545316Y-108081197D01*
X126548826Y-108104858D01*
X126550000Y-108128750D01*
X126550000Y-109041250D01*
X126548826Y-109065142D01*
X126545316Y-109088803D01*
X126539504Y-109112007D01*
X126531446Y-109134529D01*
X126521218Y-109156153D01*
X126508921Y-109176670D01*
X126494671Y-109195883D01*
X126478607Y-109213607D01*
X126460883Y-109229671D01*
X126441670Y-109243921D01*
X126421153Y-109256218D01*
X126399529Y-109266446D01*
X126377007Y-109274504D01*
X126353803Y-109280316D01*
X126330142Y-109283826D01*
X126306250Y-109285000D01*
X125818750Y-109285000D01*
X125794858Y-109283826D01*
X125771197Y-109280316D01*
X125747993Y-109274504D01*
X125725471Y-109266446D01*
X125703847Y-109256218D01*
X125683330Y-109243921D01*
X125664117Y-109229671D01*
X125646393Y-109213607D01*
X125630329Y-109195883D01*
X125616079Y-109176670D01*
X125603782Y-109156153D01*
X125593554Y-109134529D01*
X125585496Y-109112007D01*
X125579684Y-109088803D01*
X125576174Y-109065142D01*
X125575000Y-109041250D01*
X125575000Y-108128750D01*
X125576174Y-108104858D01*
X125579684Y-108081197D01*
X125585496Y-108057993D01*
X125593554Y-108035471D01*
X125603782Y-108013847D01*
X125616079Y-107993330D01*
X125630329Y-107974117D01*
X125646393Y-107956393D01*
X125664117Y-107940329D01*
X125683330Y-107926079D01*
X125703847Y-107913782D01*
X125725471Y-107903554D01*
X125747993Y-107895496D01*
X125771197Y-107889684D01*
X125794858Y-107886174D01*
X125818750Y-107885000D01*
X126306250Y-107885000D01*
X126330142Y-107886174D01*
X126330142Y-107886174D01*
G37*
D20*
G04 #@! TD*
G04 #@! TO.P,R1,1*
G04 #@! TO.N,Net-(IC1-Pad7)*
X126062500Y-108585000D03*
D12*
G04 #@! TO.N,Net-(IC1-Pad18)*
G04 #@! TO.C,R1*
G36*
X128205142Y-107886174D02*
X128228803Y-107889684D01*
X128252007Y-107895496D01*
X128274529Y-107903554D01*
X128296153Y-107913782D01*
X128316670Y-107926079D01*
X128335883Y-107940329D01*
X128353607Y-107956393D01*
X128369671Y-107974117D01*
X128383921Y-107993330D01*
X128396218Y-108013847D01*
X128406446Y-108035471D01*
X128414504Y-108057993D01*
X128420316Y-108081197D01*
X128423826Y-108104858D01*
X128425000Y-108128750D01*
X128425000Y-109041250D01*
X128423826Y-109065142D01*
X128420316Y-109088803D01*
X128414504Y-109112007D01*
X128406446Y-109134529D01*
X128396218Y-109156153D01*
X128383921Y-109176670D01*
X128369671Y-109195883D01*
X128353607Y-109213607D01*
X128335883Y-109229671D01*
X128316670Y-109243921D01*
X128296153Y-109256218D01*
X128274529Y-109266446D01*
X128252007Y-109274504D01*
X128228803Y-109280316D01*
X128205142Y-109283826D01*
X128181250Y-109285000D01*
X127693750Y-109285000D01*
X127669858Y-109283826D01*
X127646197Y-109280316D01*
X127622993Y-109274504D01*
X127600471Y-109266446D01*
X127578847Y-109256218D01*
X127558330Y-109243921D01*
X127539117Y-109229671D01*
X127521393Y-109213607D01*
X127505329Y-109195883D01*
X127491079Y-109176670D01*
X127478782Y-109156153D01*
X127468554Y-109134529D01*
X127460496Y-109112007D01*
X127454684Y-109088803D01*
X127451174Y-109065142D01*
X127450000Y-109041250D01*
X127450000Y-108128750D01*
X127451174Y-108104858D01*
X127454684Y-108081197D01*
X127460496Y-108057993D01*
X127468554Y-108035471D01*
X127478782Y-108013847D01*
X127491079Y-107993330D01*
X127505329Y-107974117D01*
X127521393Y-107956393D01*
X127539117Y-107940329D01*
X127558330Y-107926079D01*
X127578847Y-107913782D01*
X127600471Y-107903554D01*
X127622993Y-107895496D01*
X127646197Y-107889684D01*
X127669858Y-107886174D01*
X127693750Y-107885000D01*
X128181250Y-107885000D01*
X128205142Y-107886174D01*
X128205142Y-107886174D01*
G37*
D20*
G04 #@! TD*
G04 #@! TO.P,R1,2*
G04 #@! TO.N,Net-(IC1-Pad18)*
X127937500Y-108585000D03*
D12*
G04 #@! TO.N,Net-(C3-Pad1)*
G04 #@! TO.C,R2*
G36*
X165065142Y-103441174D02*
X165088803Y-103444684D01*
X165112007Y-103450496D01*
X165134529Y-103458554D01*
X165156153Y-103468782D01*
X165176670Y-103481079D01*
X165195883Y-103495329D01*
X165213607Y-103511393D01*
X165229671Y-103529117D01*
X165243921Y-103548330D01*
X165256218Y-103568847D01*
X165266446Y-103590471D01*
X165274504Y-103612993D01*
X165280316Y-103636197D01*
X165283826Y-103659858D01*
X165285000Y-103683750D01*
X165285000Y-104596250D01*
X165283826Y-104620142D01*
X165280316Y-104643803D01*
X165274504Y-104667007D01*
X165266446Y-104689529D01*
X165256218Y-104711153D01*
X165243921Y-104731670D01*
X165229671Y-104750883D01*
X165213607Y-104768607D01*
X165195883Y-104784671D01*
X165176670Y-104798921D01*
X165156153Y-104811218D01*
X165134529Y-104821446D01*
X165112007Y-104829504D01*
X165088803Y-104835316D01*
X165065142Y-104838826D01*
X165041250Y-104840000D01*
X164553750Y-104840000D01*
X164529858Y-104838826D01*
X164506197Y-104835316D01*
X164482993Y-104829504D01*
X164460471Y-104821446D01*
X164438847Y-104811218D01*
X164418330Y-104798921D01*
X164399117Y-104784671D01*
X164381393Y-104768607D01*
X164365329Y-104750883D01*
X164351079Y-104731670D01*
X164338782Y-104711153D01*
X164328554Y-104689529D01*
X164320496Y-104667007D01*
X164314684Y-104643803D01*
X164311174Y-104620142D01*
X164310000Y-104596250D01*
X164310000Y-103683750D01*
X164311174Y-103659858D01*
X164314684Y-103636197D01*
X164320496Y-103612993D01*
X164328554Y-103590471D01*
X164338782Y-103568847D01*
X164351079Y-103548330D01*
X164365329Y-103529117D01*
X164381393Y-103511393D01*
X164399117Y-103495329D01*
X164418330Y-103481079D01*
X164438847Y-103468782D01*
X164460471Y-103458554D01*
X164482993Y-103450496D01*
X164506197Y-103444684D01*
X164529858Y-103441174D01*
X164553750Y-103440000D01*
X165041250Y-103440000D01*
X165065142Y-103441174D01*
X165065142Y-103441174D01*
G37*
D20*
G04 #@! TD*
G04 #@! TO.P,R2,2*
G04 #@! TO.N,Net-(C3-Pad1)*
X164797500Y-104140000D03*
D12*
G04 #@! TO.N,Net-(D1-Pad2)*
G04 #@! TO.C,R2*
G36*
X166940142Y-103441174D02*
X166963803Y-103444684D01*
X166987007Y-103450496D01*
X167009529Y-103458554D01*
X167031153Y-103468782D01*
X167051670Y-103481079D01*
X167070883Y-103495329D01*
X167088607Y-103511393D01*
X167104671Y-103529117D01*
X167118921Y-103548330D01*
X167131218Y-103568847D01*
X167141446Y-103590471D01*
X167149504Y-103612993D01*
X167155316Y-103636197D01*
X167158826Y-103659858D01*
X167160000Y-103683750D01*
X167160000Y-104596250D01*
X167158826Y-104620142D01*
X167155316Y-104643803D01*
X167149504Y-104667007D01*
X167141446Y-104689529D01*
X167131218Y-104711153D01*
X167118921Y-104731670D01*
X167104671Y-104750883D01*
X167088607Y-104768607D01*
X167070883Y-104784671D01*
X167051670Y-104798921D01*
X167031153Y-104811218D01*
X167009529Y-104821446D01*
X166987007Y-104829504D01*
X166963803Y-104835316D01*
X166940142Y-104838826D01*
X166916250Y-104840000D01*
X166428750Y-104840000D01*
X166404858Y-104838826D01*
X166381197Y-104835316D01*
X166357993Y-104829504D01*
X166335471Y-104821446D01*
X166313847Y-104811218D01*
X166293330Y-104798921D01*
X166274117Y-104784671D01*
X166256393Y-104768607D01*
X166240329Y-104750883D01*
X166226079Y-104731670D01*
X166213782Y-104711153D01*
X166203554Y-104689529D01*
X166195496Y-104667007D01*
X166189684Y-104643803D01*
X166186174Y-104620142D01*
X166185000Y-104596250D01*
X166185000Y-103683750D01*
X166186174Y-103659858D01*
X166189684Y-103636197D01*
X166195496Y-103612993D01*
X166203554Y-103590471D01*
X166213782Y-103568847D01*
X166226079Y-103548330D01*
X166240329Y-103529117D01*
X166256393Y-103511393D01*
X166274117Y-103495329D01*
X166293330Y-103481079D01*
X166313847Y-103468782D01*
X166335471Y-103458554D01*
X166357993Y-103450496D01*
X166381197Y-103444684D01*
X166404858Y-103441174D01*
X166428750Y-103440000D01*
X166916250Y-103440000D01*
X166940142Y-103441174D01*
X166940142Y-103441174D01*
G37*
D20*
G04 #@! TD*
G04 #@! TO.P,R2,1*
G04 #@! TO.N,Net-(D1-Pad2)*
X166672500Y-104140000D03*
D21*
G04 #@! TO.P,Y1,1*
G04 #@! TO.N,Net-(C1-Pad1)*
X168080000Y-77470000D03*
G04 #@! TO.P,Y1,2*
G04 #@! TO.N,Net-(C2-Pad1)*
X159580000Y-77470000D03*
G04 #@! TD*
D22*
G04 #@! TO.N,Net-(IC1-Pad2)*
X126365000Y-95250000D03*
X132080000Y-88265000D03*
G04 #@! TO.N,Net-(IC1-Pad3)*
X126365000Y-97790000D03*
X132080000Y-89535000D03*
G04 #@! TO.N,Net-(IC1-Pad4)*
X126365000Y-100965000D03*
X132080000Y-90805000D03*
G04 #@! TO.N,Net-(IC1-Pad5)*
X126365000Y-102870000D03*
X132715000Y-92075000D03*
G04 #@! TO.N,Net-(IC1-Pad7)*
X137795000Y-94615000D03*
X123825000Y-108585000D03*
G04 #@! TO.N,Net-(IC1-Pad25)*
X163195000Y-89535000D03*
X151130000Y-97155000D03*
G04 #@! TO.N,Net-(IC1-Pad26)*
X163195000Y-86995000D03*
X151130000Y-95885000D03*
G04 #@! TO.N,Net-(IC1-Pad27)*
X163195000Y-84455000D03*
X151130000Y-94615000D03*
G04 #@! TO.N,Net-(IC1-Pad38)*
X141605000Y-81915000D03*
X126365000Y-85090000D03*
G04 #@! TO.N,Net-(IC1-Pad39)*
X140970000Y-83185000D03*
X126365000Y-88265000D03*
G04 #@! TO.N,Net-(IC1-Pad40)*
X140335000Y-84455000D03*
X126365000Y-90170000D03*
G04 #@! TO.N,Net-(IC1-Pad41)*
X139700000Y-85725000D03*
X126365000Y-92075000D03*
G04 #@! TD*
D23*
G04 #@! TO.N,*
X140970000Y-107315000D02*
X140970000Y-107409999D01*
G04 #@! TO.N,Net-(C1-Pad1)*
X155909168Y-83970832D02*
X155927400Y-83970832D01*
X155575000Y-88265000D02*
X155995000Y-88265000D01*
X152095000Y-91745000D02*
X146670000Y-91745000D01*
X155575000Y-88265000D02*
X152095000Y-91745000D01*
X157285000Y-88265000D02*
X168080000Y-77470000D01*
X155575000Y-88265000D02*
X157285000Y-88265000D01*
G04 #@! TO.N,GND*
X158884501Y-106794399D02*
X158115000Y-107563900D01*
X161119501Y-106794399D02*
X158884501Y-106794399D01*
X158115000Y-107563900D02*
X158115000Y-107856000D01*
X167640000Y-113314898D02*
X161119501Y-106794399D01*
X167640000Y-115570000D02*
X167640000Y-113314898D01*
X146670000Y-92545000D02*
X147790000Y-92545000D01*
X145859998Y-92545000D02*
X146670000Y-92545000D01*
X145059998Y-93345000D02*
X145859998Y-92545000D01*
X135270000Y-93345000D02*
X145059998Y-93345000D01*
G04 #@! TO.N,Net-(C2-Pad1)*
X155909168Y-84455832D02*
X156078810Y-84455832D01*
X155575000Y-84790000D02*
X155909168Y-84455832D01*
X149420000Y-90945000D02*
X146670000Y-90945000D01*
X155575000Y-84790000D02*
X149420000Y-90945000D01*
X159580000Y-78720000D02*
X159580000Y-77470000D01*
X159580000Y-80954642D02*
X159580000Y-78720000D01*
X156078810Y-84455832D02*
X159580000Y-80954642D01*
G04 #@! TO.N,Net-(C3-Pad1)*
X154620000Y-93645000D02*
X154620000Y-93345000D01*
X154620000Y-105674400D02*
X154620000Y-93645000D01*
X155815000Y-106869400D02*
X154620000Y-105674400D01*
X154620000Y-93345000D02*
X146670000Y-93345000D01*
X164210000Y-104140000D02*
X164797500Y-104140000D01*
X158544400Y-104140000D02*
X164210000Y-104140000D01*
X155815000Y-106869400D02*
X158544400Y-104140000D01*
X155815000Y-107856000D02*
X155815000Y-106869400D01*
G04 #@! TO.N,Net-(IC1-Pad1)*
X135270000Y-74915000D02*
X135890000Y-74295000D01*
X135270000Y-89345000D02*
X135270000Y-74915000D01*
G04 #@! TO.N,Net-(IC1-Pad2)*
X126365000Y-95250000D02*
X124460000Y-95250000D01*
X133960000Y-90145000D02*
X132080000Y-88265000D01*
X135270000Y-90145000D02*
X133960000Y-90145000D01*
G04 #@! TO.N,Net-(IC1-Pad3)*
X126365000Y-97790000D02*
X124460000Y-97790000D01*
X133140010Y-90595010D02*
X132479999Y-89934999D01*
X134270000Y-90945000D02*
X133920010Y-90595010D01*
X132479999Y-89934999D02*
X132080000Y-89535000D01*
X133920010Y-90595010D02*
X133140010Y-90595010D01*
X135270000Y-90945000D02*
X134270000Y-90945000D01*
G04 #@! TO.N,Net-(IC1-Pad4)*
X125095000Y-100965000D02*
X124460000Y-100330000D01*
X126365000Y-100965000D02*
X125095000Y-100965000D01*
X132645685Y-90805000D02*
X132080000Y-90805000D01*
X132713590Y-90805000D02*
X132645685Y-90805000D01*
X133653590Y-91745000D02*
X132713590Y-90805000D01*
X135270000Y-91745000D02*
X133653590Y-91745000D01*
G04 #@! TO.N,Net-(IC1-Pad5)*
X126365000Y-102870000D02*
X124460000Y-102870000D01*
X133185000Y-92545000D02*
X132715000Y-92075000D01*
X135270000Y-92545000D02*
X133185000Y-92545000D01*
G04 #@! TO.N,Net-(IC1-Pad7)*
X137254999Y-117380001D02*
X137580001Y-117054999D01*
X134857501Y-117380001D02*
X137254999Y-117380001D01*
X137580001Y-117054999D02*
X138430000Y-116205000D01*
X126062500Y-108585000D02*
X134857501Y-117380001D01*
X126062500Y-108585000D02*
X123825000Y-108585000D01*
X137325000Y-94145000D02*
X135270000Y-94145000D01*
X137795000Y-94615000D02*
X137325000Y-94145000D01*
G04 #@! TO.N,Net-(IC1-Pad8)*
X119304999Y-86454999D02*
X125779999Y-86454999D01*
X134270000Y-94945000D02*
X135270000Y-94945000D01*
X117940000Y-85090000D02*
X119304999Y-86454999D01*
X125779999Y-86454999D02*
X134270000Y-94945000D01*
X116840000Y-85090000D02*
X117940000Y-85090000D01*
G04 #@! TO.N,Net-(IC1-Pad9)*
X127519999Y-88994999D02*
X134270000Y-95745000D01*
X134270000Y-95745000D02*
X135270000Y-95745000D01*
X118204999Y-88994999D02*
X127519999Y-88994999D01*
X116840000Y-87630000D02*
X118204999Y-88994999D01*
G04 #@! TO.N,Net-(IC1-Pad10)*
X134106410Y-96545000D02*
X134270000Y-96545000D01*
X134270000Y-96545000D02*
X135270000Y-96545000D01*
X128906411Y-91345001D02*
X134106410Y-96545000D01*
X118015001Y-91345001D02*
X128906411Y-91345001D01*
X116840000Y-90170000D02*
X118015001Y-91345001D01*
G04 #@! TO.N,Net-(IC1-Pad11)*
X133797189Y-122370009D02*
X115214989Y-103787809D01*
X142424991Y-122370009D02*
X133797189Y-122370009D01*
X148590000Y-116205000D02*
X142424991Y-122370009D01*
X115214989Y-94335011D02*
X116840000Y-92710000D01*
X115214989Y-103787809D02*
X115214989Y-94335011D01*
X120744999Y-96614999D02*
X133539999Y-96614999D01*
X134270000Y-97345000D02*
X135270000Y-97345000D01*
X133539999Y-96614999D02*
X134270000Y-97345000D01*
X116840000Y-92710000D02*
X120744999Y-96614999D01*
G04 #@! TO.N,Net-(IC1-Pad14)*
X116840000Y-95250000D02*
X120650000Y-99060000D01*
X138305001Y-100120001D02*
X138570000Y-99855002D01*
X138570000Y-99855002D02*
X138570000Y-99045000D01*
X124929002Y-99060000D02*
X125989003Y-100120001D01*
X125989003Y-100120001D02*
X138305001Y-100120001D01*
X120650000Y-99060000D02*
X124929002Y-99060000D01*
G04 #@! TO.N,Net-(IC1-Pad15)*
X139370000Y-99855002D02*
X139370000Y-99045000D01*
X137720001Y-101505001D02*
X139370000Y-99855002D01*
X120555001Y-101505001D02*
X137720001Y-101505001D01*
X116840000Y-97790000D02*
X120555001Y-101505001D01*
G04 #@! TO.N,Net-(IC1-Pad16)*
X115664999Y-103601409D02*
X115664999Y-101505001D01*
X133983590Y-121920000D02*
X115664999Y-103601409D01*
X115664999Y-101505001D02*
X115990001Y-101179999D01*
X140335000Y-121920000D02*
X133983590Y-121920000D01*
X115990001Y-101179999D02*
X116840000Y-100330000D01*
X146050000Y-116205000D02*
X140335000Y-121920000D01*
X140170000Y-99855002D02*
X140170000Y-99045000D01*
X135980001Y-104045001D02*
X140170000Y-99855002D01*
X120555001Y-104045001D02*
X135980001Y-104045001D01*
X116840000Y-100330000D02*
X120555001Y-104045001D01*
G04 #@! TO.N,Net-(IC1-Pad17)*
X141083989Y-117830012D02*
X130530012Y-117830012D01*
X142709002Y-116205000D02*
X141083989Y-117830012D01*
X143510000Y-116205000D02*
X142709002Y-116205000D01*
X116840000Y-104140000D02*
X116840000Y-102870000D01*
X130530012Y-117830012D02*
X116840000Y-104140000D01*
X140970000Y-99855002D02*
X140970000Y-99045000D01*
X133265012Y-107559990D02*
X140970000Y-99855002D01*
X121529990Y-107559990D02*
X133265012Y-107559990D01*
X116840000Y-102870000D02*
X121529990Y-107559990D01*
G04 #@! TO.N,Net-(IC1-Pad18)*
X141770000Y-100045000D02*
X141770000Y-99045000D01*
X133230000Y-108585000D02*
X141770000Y-100045000D01*
X127937500Y-108585000D02*
X133230000Y-108585000D01*
X128525000Y-108585000D02*
X127937500Y-108585000D01*
X129370000Y-108585000D02*
X128525000Y-108585000D01*
X135890000Y-115105000D02*
X129370000Y-108585000D01*
X135890000Y-116205000D02*
X135890000Y-115105000D01*
G04 #@! TO.N,Net-(IC1-Pad19)*
X142570000Y-100045000D02*
X142570000Y-99045000D01*
X142570000Y-100805000D02*
X142570000Y-100045000D01*
X135890000Y-107485000D02*
X142570000Y-100805000D01*
X135890000Y-108585000D02*
X135890000Y-107485000D01*
G04 #@! TO.N,Net-(IC1-Pad20)*
X143370000Y-103645000D02*
X143370000Y-99045000D01*
X138430000Y-108585000D02*
X143370000Y-103645000D01*
G04 #@! TO.N,Net-(IC1-Pad21)*
X144170000Y-105385000D02*
X144170000Y-99045000D01*
X140970000Y-108585000D02*
X144170000Y-105385000D01*
G04 #@! TO.N,Net-(IC1-Pad22)*
X144970000Y-107125000D02*
X144970000Y-99045000D01*
X143510000Y-108585000D02*
X144970000Y-107125000D01*
G04 #@! TO.N,Net-(IC1-Pad23)*
X146050000Y-97965000D02*
X146670000Y-97345000D01*
X146050000Y-108585000D02*
X146050000Y-97965000D01*
G04 #@! TO.N,Net-(IC1-Pad24)*
X147670000Y-96545000D02*
X146670000Y-96545000D01*
X148590000Y-97465000D02*
X147670000Y-96545000D01*
X148590000Y-108585000D02*
X148590000Y-97465000D01*
G04 #@! TO.N,Net-(IC1-Pad25)*
X149720000Y-95745000D02*
X151130000Y-97155000D01*
X146670000Y-95745000D02*
X149720000Y-95745000D01*
X166370000Y-89535000D02*
X163195000Y-89535000D01*
G04 #@! TO.N,Net-(IC1-Pad26)*
X150190000Y-94945000D02*
X151130000Y-95885000D01*
X146670000Y-94945000D02*
X150190000Y-94945000D01*
X166370000Y-86995000D02*
X163195000Y-86995000D01*
G04 #@! TO.N,Net-(IC1-Pad27)*
X150660000Y-94145000D02*
X151130000Y-94615000D01*
X146670000Y-94145000D02*
X150660000Y-94145000D01*
X166370000Y-84455000D02*
X163195000Y-84455000D01*
G04 #@! TO.N,Net-(IC1-Pad32)*
X153670000Y-84145000D02*
X153670000Y-74295000D01*
X147670000Y-90145000D02*
X153670000Y-84145000D01*
X146670000Y-90145000D02*
X147670000Y-90145000D01*
G04 #@! TO.N,Net-(IC1-Pad35)*
X144170000Y-81255000D02*
X151130000Y-74295000D01*
X144170000Y-87645000D02*
X144170000Y-81255000D01*
G04 #@! TO.N,Net-(IC1-Pad36)*
X143370000Y-79515000D02*
X148590000Y-74295000D01*
X143370000Y-87645000D02*
X143370000Y-79515000D01*
G04 #@! TO.N,Net-(IC1-Pad37)*
X142570000Y-77775000D02*
X146050000Y-74295000D01*
X142570000Y-87645000D02*
X142570000Y-77775000D01*
G04 #@! TO.N,Net-(IC1-Pad38)*
X126365000Y-85090000D02*
X124460000Y-85090000D01*
X141770000Y-82080000D02*
X141605000Y-81915000D01*
X141770000Y-87645000D02*
X141770000Y-82080000D01*
G04 #@! TO.N,Net-(IC1-Pad39)*
X125095000Y-88265000D02*
X124460000Y-87630000D01*
X126365000Y-88265000D02*
X125095000Y-88265000D01*
X140970000Y-83750685D02*
X140970000Y-83185000D01*
X141060001Y-83840686D02*
X140970000Y-83750685D01*
X141060001Y-84803001D02*
X141060001Y-83840686D01*
X140970000Y-84893002D02*
X141060001Y-84803001D01*
X140970000Y-87645000D02*
X140970000Y-84893002D01*
G04 #@! TO.N,Net-(IC1-Pad40)*
X126365000Y-90170000D02*
X124460000Y-90170000D01*
X140335000Y-85020685D02*
X140335000Y-84455000D01*
X140425001Y-85110686D02*
X140335000Y-85020685D01*
X140425001Y-86073001D02*
X140425001Y-85110686D01*
X140170000Y-86328002D02*
X140425001Y-86073001D01*
X140170000Y-87645000D02*
X140170000Y-86328002D01*
G04 #@! TO.N,Net-(IC1-Pad41)*
X139370000Y-87300000D02*
X139300001Y-87230001D01*
X139370000Y-87645000D02*
X139370000Y-87300000D01*
X125095000Y-92075000D02*
X124460000Y-92710000D01*
X126365000Y-92075000D02*
X125095000Y-92075000D01*
X139370000Y-86055000D02*
X139700000Y-85725000D01*
X139370000Y-87645000D02*
X139370000Y-86055000D01*
G04 #@! TO.N,Net-(IC1-Pad42)*
X138570000Y-79235000D02*
X143510000Y-74295000D01*
X138570000Y-87645000D02*
X138570000Y-79235000D01*
G04 #@! TO.N,Net-(IC1-Pad43)*
X137770000Y-77495000D02*
X140970000Y-74295000D01*
X137770000Y-87645000D02*
X137770000Y-77495000D01*
G04 #@! TO.N,Net-(IC1-Pad44)*
X136970000Y-75755000D02*
X138430000Y-74295000D01*
X136970000Y-87645000D02*
X136970000Y-75755000D01*
G04 #@! TO.N,Net-(J2-Pad1)*
X161109500Y-107856000D02*
X160415000Y-107856000D01*
X165100000Y-111846500D02*
X161109500Y-107856000D01*
X165100000Y-115570000D02*
X165100000Y-111846500D01*
G04 #@! TO.N,Net-(D1-Pad2)*
X166672500Y-99085000D02*
X166697500Y-99060000D01*
X166672500Y-104140000D02*
X166672500Y-99085000D01*
G04 #@! TD*
D24*
G04 #@! TO.N,GND*
G36*
X172670001Y-124975204D02*
X166039346Y-125045000D01*
X113715000Y-125045000D01*
X113715000Y-94335011D01*
X114440101Y-94335011D01*
X114454990Y-94409863D01*
X114454989Y-103712962D01*
X114440101Y-103787809D01*
X114454989Y-103862656D01*
X114454989Y-103862660D01*
X114499085Y-104084345D01*
X114667060Y-104335738D01*
X114730519Y-104378140D01*
X133206860Y-122854482D01*
X133249260Y-122917938D01*
X133500652Y-123085913D01*
X133722337Y-123130009D01*
X133722341Y-123130009D01*
X133797188Y-123144897D01*
X133872035Y-123130009D01*
X142350144Y-123130009D01*
X142424991Y-123144897D01*
X142499838Y-123130009D01*
X142499843Y-123130009D01*
X142721528Y-123085913D01*
X142972920Y-122917938D01*
X143015322Y-122854479D01*
X148223593Y-117646209D01*
X148443744Y-117690000D01*
X148736256Y-117690000D01*
X149169418Y-117603839D01*
X149660625Y-117275625D01*
X149988839Y-116784418D01*
X150104092Y-116205000D01*
X149988839Y-115625582D01*
X149660625Y-115134375D01*
X149169418Y-114806161D01*
X148736256Y-114720000D01*
X148443744Y-114720000D01*
X148010582Y-114806161D01*
X147519375Y-115134375D01*
X147320000Y-115432761D01*
X147120625Y-115134375D01*
X146629418Y-114806161D01*
X146196256Y-114720000D01*
X145903744Y-114720000D01*
X145470582Y-114806161D01*
X144979375Y-115134375D01*
X144780000Y-115432761D01*
X144580625Y-115134375D01*
X144089418Y-114806161D01*
X143656256Y-114720000D01*
X143363744Y-114720000D01*
X142930582Y-114806161D01*
X142439375Y-115134375D01*
X142226157Y-115453478D01*
X142165183Y-115323642D01*
X141736924Y-114933355D01*
X141326890Y-114763524D01*
X141097000Y-114884845D01*
X141097000Y-116078000D01*
X141117000Y-116078000D01*
X141117000Y-116332000D01*
X141097000Y-116332000D01*
X141097000Y-116352000D01*
X140843000Y-116352000D01*
X140843000Y-116332000D01*
X140823000Y-116332000D01*
X140823000Y-116078000D01*
X140843000Y-116078000D01*
X140843000Y-114884845D01*
X140613110Y-114763524D01*
X140203076Y-114933355D01*
X139774817Y-115323642D01*
X139713843Y-115453478D01*
X139500625Y-115134375D01*
X139009418Y-114806161D01*
X138576256Y-114720000D01*
X138283744Y-114720000D01*
X137850582Y-114806161D01*
X137359375Y-115134375D01*
X137347184Y-115152619D01*
X137338157Y-115107235D01*
X137197809Y-114897191D01*
X136987765Y-114756843D01*
X136740000Y-114707560D01*
X136538483Y-114707560D01*
X136508552Y-114662765D01*
X136480329Y-114620526D01*
X136480327Y-114620524D01*
X136437929Y-114557071D01*
X136374476Y-114514673D01*
X134774803Y-112915000D01*
X156467560Y-112915000D01*
X156467560Y-114415000D01*
X156516843Y-114662765D01*
X156657191Y-114872809D01*
X156867235Y-115013157D01*
X157115000Y-115062440D01*
X159115000Y-115062440D01*
X159362765Y-115013157D01*
X159572809Y-114872809D01*
X159713157Y-114662765D01*
X159762440Y-114415000D01*
X159762440Y-112915000D01*
X159713157Y-112667235D01*
X159572809Y-112457191D01*
X159362765Y-112316843D01*
X159115000Y-112267560D01*
X157115000Y-112267560D01*
X156867235Y-112316843D01*
X156657191Y-112457191D01*
X156516843Y-112667235D01*
X156467560Y-112915000D01*
X134774803Y-112915000D01*
X131204801Y-109345000D01*
X133155153Y-109345000D01*
X133230000Y-109359888D01*
X133304847Y-109345000D01*
X133304852Y-109345000D01*
X133526537Y-109300904D01*
X133777929Y-109132929D01*
X133820331Y-109069470D01*
X134392560Y-108497241D01*
X134392560Y-109435000D01*
X134441843Y-109682765D01*
X134582191Y-109892809D01*
X134792235Y-110033157D01*
X135040000Y-110082440D01*
X136740000Y-110082440D01*
X136987765Y-110033157D01*
X137197809Y-109892809D01*
X137338157Y-109682765D01*
X137347184Y-109637381D01*
X137359375Y-109655625D01*
X137850582Y-109983839D01*
X138283744Y-110070000D01*
X138576256Y-110070000D01*
X139009418Y-109983839D01*
X139500625Y-109655625D01*
X139700000Y-109357239D01*
X139899375Y-109655625D01*
X140390582Y-109983839D01*
X140823744Y-110070000D01*
X141116256Y-110070000D01*
X141549418Y-109983839D01*
X142040625Y-109655625D01*
X142240000Y-109357239D01*
X142439375Y-109655625D01*
X142930582Y-109983839D01*
X143363744Y-110070000D01*
X143656256Y-110070000D01*
X144089418Y-109983839D01*
X144580625Y-109655625D01*
X144780000Y-109357239D01*
X144979375Y-109655625D01*
X145470582Y-109983839D01*
X145903744Y-110070000D01*
X146196256Y-110070000D01*
X146629418Y-109983839D01*
X147120625Y-109655625D01*
X147320000Y-109357239D01*
X147519375Y-109655625D01*
X148010582Y-109983839D01*
X148443744Y-110070000D01*
X148736256Y-110070000D01*
X149169418Y-109983839D01*
X149660625Y-109655625D01*
X149988839Y-109164418D01*
X150104092Y-108585000D01*
X149988839Y-108005582D01*
X149660625Y-107514375D01*
X149350000Y-107306822D01*
X149350000Y-97539846D01*
X149364888Y-97464999D01*
X149350000Y-97390152D01*
X149350000Y-97390148D01*
X149305904Y-97168463D01*
X149225723Y-97048464D01*
X149180329Y-96980526D01*
X149180327Y-96980524D01*
X149137929Y-96917071D01*
X149074475Y-96874673D01*
X148704802Y-96505000D01*
X149405199Y-96505000D01*
X150095000Y-97194802D01*
X150095000Y-97360874D01*
X150252569Y-97741280D01*
X150543720Y-98032431D01*
X150924126Y-98190000D01*
X151335874Y-98190000D01*
X151716280Y-98032431D01*
X152007431Y-97741280D01*
X152165000Y-97360874D01*
X152165000Y-96949126D01*
X152007431Y-96568720D01*
X151958711Y-96520000D01*
X152007431Y-96471280D01*
X152165000Y-96090874D01*
X152165000Y-95679126D01*
X152007431Y-95298720D01*
X151958711Y-95250000D01*
X152007431Y-95201280D01*
X152165000Y-94820874D01*
X152165000Y-94409126D01*
X152039027Y-94105000D01*
X153860001Y-94105000D01*
X153860000Y-105599553D01*
X153845112Y-105674400D01*
X153860000Y-105749247D01*
X153860000Y-105749251D01*
X153904096Y-105970936D01*
X154072071Y-106222329D01*
X154135530Y-106264731D01*
X154767381Y-106896582D01*
X154723060Y-107119400D01*
X154723060Y-108592600D01*
X154772343Y-108840365D01*
X154912691Y-109050409D01*
X155122735Y-109190757D01*
X155370500Y-109240040D01*
X156259500Y-109240040D01*
X156507265Y-109190757D01*
X156717309Y-109050409D01*
X156857657Y-108840365D01*
X156906940Y-108592600D01*
X156906940Y-108141750D01*
X157035500Y-108141750D01*
X157035500Y-108718910D01*
X157132173Y-108952299D01*
X157310802Y-109130927D01*
X157544191Y-109227600D01*
X157829250Y-109227600D01*
X157988000Y-109068850D01*
X157988000Y-107983000D01*
X158242000Y-107983000D01*
X158242000Y-109068850D01*
X158400750Y-109227600D01*
X158685809Y-109227600D01*
X158919198Y-109130927D01*
X159097827Y-108952299D01*
X159194500Y-108718910D01*
X159194500Y-108141750D01*
X159035750Y-107983000D01*
X158242000Y-107983000D01*
X157988000Y-107983000D01*
X157194250Y-107983000D01*
X157035500Y-108141750D01*
X156906940Y-108141750D01*
X156906940Y-107119400D01*
X156881816Y-106993090D01*
X157035500Y-106993090D01*
X157035500Y-107570250D01*
X157194250Y-107729000D01*
X157988000Y-107729000D01*
X157988000Y-106643150D01*
X158242000Y-106643150D01*
X158242000Y-107729000D01*
X159035750Y-107729000D01*
X159194500Y-107570250D01*
X159194500Y-107119400D01*
X159323060Y-107119400D01*
X159323060Y-108592600D01*
X159372343Y-108840365D01*
X159512691Y-109050409D01*
X159722735Y-109190757D01*
X159970500Y-109240040D01*
X160859500Y-109240040D01*
X161107265Y-109190757D01*
X161264436Y-109085738D01*
X164340001Y-112161303D01*
X164340000Y-114072560D01*
X164250000Y-114072560D01*
X164002235Y-114121843D01*
X163792191Y-114262191D01*
X163651843Y-114472235D01*
X163602560Y-114720000D01*
X163602560Y-116420000D01*
X163651843Y-116667765D01*
X163792191Y-116877809D01*
X164002235Y-117018157D01*
X164250000Y-117067440D01*
X165950000Y-117067440D01*
X166197765Y-117018157D01*
X166407809Y-116877809D01*
X166548157Y-116667765D01*
X166568739Y-116564292D01*
X166873076Y-116841645D01*
X167283110Y-117011476D01*
X167513000Y-116890155D01*
X167513000Y-115697000D01*
X167767000Y-115697000D01*
X167767000Y-116890155D01*
X167996890Y-117011476D01*
X168406924Y-116841645D01*
X168835183Y-116451358D01*
X169081486Y-115926892D01*
X168960819Y-115697000D01*
X167767000Y-115697000D01*
X167513000Y-115697000D01*
X167493000Y-115697000D01*
X167493000Y-115443000D01*
X167513000Y-115443000D01*
X167513000Y-114249845D01*
X167767000Y-114249845D01*
X167767000Y-115443000D01*
X168960819Y-115443000D01*
X169081486Y-115213108D01*
X168835183Y-114688642D01*
X168406924Y-114298355D01*
X167996890Y-114128524D01*
X167767000Y-114249845D01*
X167513000Y-114249845D01*
X167283110Y-114128524D01*
X166873076Y-114298355D01*
X166568739Y-114575708D01*
X166548157Y-114472235D01*
X166407809Y-114262191D01*
X166197765Y-114121843D01*
X165950000Y-114072560D01*
X165860000Y-114072560D01*
X165860000Y-111921346D01*
X165874888Y-111846499D01*
X165860000Y-111771652D01*
X165860000Y-111771648D01*
X165815904Y-111549963D01*
X165647929Y-111298571D01*
X165584473Y-111256171D01*
X161699831Y-107371530D01*
X161657429Y-107308071D01*
X161506940Y-107207517D01*
X161506940Y-107119400D01*
X161457657Y-106871635D01*
X161317309Y-106661591D01*
X161107265Y-106521243D01*
X160859500Y-106471960D01*
X159970500Y-106471960D01*
X159722735Y-106521243D01*
X159512691Y-106661591D01*
X159372343Y-106871635D01*
X159323060Y-107119400D01*
X159194500Y-107119400D01*
X159194500Y-106993090D01*
X159097827Y-106759701D01*
X158919198Y-106581073D01*
X158685809Y-106484400D01*
X158400750Y-106484400D01*
X158242000Y-106643150D01*
X157988000Y-106643150D01*
X157829250Y-106484400D01*
X157544191Y-106484400D01*
X157310802Y-106581073D01*
X157132173Y-106759701D01*
X157035500Y-106993090D01*
X156881816Y-106993090D01*
X156862619Y-106896582D01*
X158859203Y-104900000D01*
X163722980Y-104900000D01*
X163730398Y-104937294D01*
X163923584Y-105226416D01*
X164212706Y-105419602D01*
X164553750Y-105487440D01*
X165041250Y-105487440D01*
X165382294Y-105419602D01*
X165671416Y-105226416D01*
X165735000Y-105131256D01*
X165798584Y-105226416D01*
X166087706Y-105419602D01*
X166428750Y-105487440D01*
X166916250Y-105487440D01*
X167257294Y-105419602D01*
X167546416Y-105226416D01*
X167739602Y-104937294D01*
X167807440Y-104596250D01*
X167807440Y-103683750D01*
X167739602Y-103342706D01*
X167546416Y-103053584D01*
X167432500Y-102977467D01*
X167432500Y-100293290D01*
X167453435Y-100289126D01*
X167744586Y-100094586D01*
X167939126Y-99803435D01*
X168007440Y-99460000D01*
X168007440Y-98660000D01*
X167939126Y-98316565D01*
X167744586Y-98025414D01*
X167453435Y-97830874D01*
X167110000Y-97762560D01*
X166285000Y-97762560D01*
X165941565Y-97830874D01*
X165829067Y-97906042D01*
X165794698Y-97871673D01*
X165561309Y-97775000D01*
X165058250Y-97775000D01*
X164899500Y-97933750D01*
X164899500Y-98933000D01*
X164919500Y-98933000D01*
X164919500Y-99187000D01*
X164899500Y-99187000D01*
X164899500Y-100186250D01*
X165058250Y-100345000D01*
X165561309Y-100345000D01*
X165794698Y-100248327D01*
X165829067Y-100213958D01*
X165912501Y-100269706D01*
X165912500Y-102977467D01*
X165798584Y-103053584D01*
X165735000Y-103148744D01*
X165671416Y-103053584D01*
X165382294Y-102860398D01*
X165041250Y-102792560D01*
X164553750Y-102792560D01*
X164212706Y-102860398D01*
X163923584Y-103053584D01*
X163730398Y-103342706D01*
X163722980Y-103380000D01*
X158619246Y-103380000D01*
X158544399Y-103365112D01*
X158469552Y-103380000D01*
X158469548Y-103380000D01*
X158247863Y-103424096D01*
X158247861Y-103424097D01*
X158247862Y-103424097D01*
X158059926Y-103549671D01*
X158059924Y-103549673D01*
X157996471Y-103592071D01*
X157954073Y-103655524D01*
X155815000Y-105794599D01*
X155380000Y-105359599D01*
X155380000Y-99345750D01*
X163475000Y-99345750D01*
X163475000Y-99836310D01*
X163571673Y-100069699D01*
X163750302Y-100248327D01*
X163983691Y-100345000D01*
X164486750Y-100345000D01*
X164645500Y-100186250D01*
X164645500Y-99187000D01*
X163633750Y-99187000D01*
X163475000Y-99345750D01*
X155380000Y-99345750D01*
X155380000Y-98283690D01*
X163475000Y-98283690D01*
X163475000Y-98774250D01*
X163633750Y-98933000D01*
X164645500Y-98933000D01*
X164645500Y-97933750D01*
X164486750Y-97775000D01*
X163983691Y-97775000D01*
X163750302Y-97871673D01*
X163571673Y-98050301D01*
X163475000Y-98283690D01*
X155380000Y-98283690D01*
X155380000Y-94180000D01*
X155387002Y-94180000D01*
X155387002Y-94033252D01*
X155533750Y-94180000D01*
X155616309Y-94180000D01*
X155849698Y-94083327D01*
X156028327Y-93904699D01*
X156125000Y-93671310D01*
X156125000Y-93603750D01*
X155966250Y-93445000D01*
X155497440Y-93445000D01*
X155497440Y-93245000D01*
X155966250Y-93245000D01*
X156125000Y-93086250D01*
X156125000Y-93018690D01*
X156028327Y-92785301D01*
X155849698Y-92606673D01*
X155616309Y-92510000D01*
X155533750Y-92510000D01*
X155375000Y-92668750D01*
X155375000Y-92860872D01*
X155278520Y-92716480D01*
X155036033Y-92554455D01*
X155029382Y-92553132D01*
X154986250Y-92510000D01*
X154903691Y-92510000D01*
X154874120Y-92522249D01*
X154750000Y-92497560D01*
X154490000Y-92497560D01*
X154203967Y-92554455D01*
X154158253Y-92585000D01*
X147837115Y-92585000D01*
X147777251Y-92545000D01*
X147837115Y-92505000D01*
X152020153Y-92505000D01*
X152095000Y-92519888D01*
X152169847Y-92505000D01*
X152169852Y-92505000D01*
X152391537Y-92460904D01*
X152642929Y-92292929D01*
X152685331Y-92229470D01*
X155707362Y-89207440D01*
X155747500Y-89207440D01*
X156051710Y-89146929D01*
X156234189Y-89025000D01*
X157210153Y-89025000D01*
X157285000Y-89039888D01*
X157359847Y-89025000D01*
X157359852Y-89025000D01*
X157581537Y-88980904D01*
X157832929Y-88812929D01*
X157875331Y-88749470D01*
X162160000Y-84464802D01*
X162160000Y-84660874D01*
X162317569Y-85041280D01*
X162608720Y-85332431D01*
X162989126Y-85490000D01*
X163400874Y-85490000D01*
X163781280Y-85332431D01*
X163898711Y-85215000D01*
X165091822Y-85215000D01*
X165299375Y-85525625D01*
X165597761Y-85725000D01*
X165299375Y-85924375D01*
X165091822Y-86235000D01*
X163898711Y-86235000D01*
X163781280Y-86117569D01*
X163400874Y-85960000D01*
X162989126Y-85960000D01*
X162608720Y-86117569D01*
X162317569Y-86408720D01*
X162160000Y-86789126D01*
X162160000Y-87200874D01*
X162317569Y-87581280D01*
X162608720Y-87872431D01*
X162989126Y-88030000D01*
X163400874Y-88030000D01*
X163781280Y-87872431D01*
X163898711Y-87755000D01*
X165091822Y-87755000D01*
X165299375Y-88065625D01*
X165317619Y-88077816D01*
X165272235Y-88086843D01*
X165062191Y-88227191D01*
X164921843Y-88437235D01*
X164872560Y-88685000D01*
X164872560Y-88775000D01*
X163898711Y-88775000D01*
X163781280Y-88657569D01*
X163400874Y-88500000D01*
X162989126Y-88500000D01*
X162608720Y-88657569D01*
X162317569Y-88948720D01*
X162160000Y-89329126D01*
X162160000Y-89740874D01*
X162317569Y-90121280D01*
X162608720Y-90412431D01*
X162989126Y-90570000D01*
X163400874Y-90570000D01*
X163781280Y-90412431D01*
X163898711Y-90295000D01*
X164872560Y-90295000D01*
X164872560Y-90385000D01*
X164921843Y-90632765D01*
X165062191Y-90842809D01*
X165272235Y-90983157D01*
X165520000Y-91032440D01*
X167220000Y-91032440D01*
X167467765Y-90983157D01*
X167677809Y-90842809D01*
X167818157Y-90632765D01*
X167867440Y-90385000D01*
X167867440Y-88685000D01*
X167818157Y-88437235D01*
X167677809Y-88227191D01*
X167467765Y-88086843D01*
X167422381Y-88077816D01*
X167440625Y-88065625D01*
X167768839Y-87574418D01*
X167884092Y-86995000D01*
X167768839Y-86415582D01*
X167440625Y-85924375D01*
X167142239Y-85725000D01*
X167440625Y-85525625D01*
X167768839Y-85034418D01*
X167884092Y-84455000D01*
X167768839Y-83875582D01*
X167440625Y-83384375D01*
X166949418Y-83056161D01*
X166516256Y-82970000D01*
X166223744Y-82970000D01*
X165790582Y-83056161D01*
X165299375Y-83384375D01*
X165091822Y-83695000D01*
X163898711Y-83695000D01*
X163781280Y-83577569D01*
X163400874Y-83420000D01*
X163204802Y-83420000D01*
X167507363Y-79117440D01*
X170330000Y-79117440D01*
X170577765Y-79068157D01*
X170787809Y-78927809D01*
X170928157Y-78717765D01*
X170977440Y-78470000D01*
X170977440Y-76470000D01*
X170928157Y-76222235D01*
X170787809Y-76012191D01*
X170577765Y-75871843D01*
X170330000Y-75822560D01*
X165830000Y-75822560D01*
X165582235Y-75871843D01*
X165372191Y-76012191D01*
X165231843Y-76222235D01*
X165182560Y-76470000D01*
X165182560Y-78470000D01*
X165231843Y-78717765D01*
X165372191Y-78927809D01*
X165477214Y-78997984D01*
X156970199Y-87505000D01*
X156454250Y-87505000D01*
X156371250Y-87422000D01*
X156109971Y-87422000D01*
X156051710Y-87383071D01*
X155747500Y-87322560D01*
X155402500Y-87322560D01*
X155098290Y-87383071D01*
X155040029Y-87422000D01*
X154778750Y-87422000D01*
X154620000Y-87580750D01*
X154620000Y-87716309D01*
X154665508Y-87826175D01*
X154607560Y-88117500D01*
X154607560Y-88157638D01*
X151780199Y-90985000D01*
X150454801Y-90985000D01*
X154658105Y-86781698D01*
X154620000Y-86873691D01*
X154620000Y-87009250D01*
X154778750Y-87168000D01*
X155448000Y-87168000D01*
X155448000Y-86523750D01*
X155702000Y-86523750D01*
X155702000Y-87168000D01*
X156371250Y-87168000D01*
X156530000Y-87009250D01*
X156530000Y-86873691D01*
X156433327Y-86640302D01*
X156254699Y-86461673D01*
X156021310Y-86365000D01*
X155860750Y-86365000D01*
X155702000Y-86523750D01*
X155448000Y-86523750D01*
X155289250Y-86365000D01*
X155128690Y-86365000D01*
X155036698Y-86403104D01*
X155707363Y-85732440D01*
X155747500Y-85732440D01*
X156051710Y-85671929D01*
X156309607Y-85499607D01*
X156481929Y-85241710D01*
X156514318Y-85078878D01*
X156626739Y-85003761D01*
X156669141Y-84940302D01*
X160064476Y-81544969D01*
X160127929Y-81502571D01*
X160170327Y-81439118D01*
X160170329Y-81439116D01*
X160295903Y-81251180D01*
X160295904Y-81251179D01*
X160340000Y-81029494D01*
X160340000Y-81029490D01*
X160354888Y-80954643D01*
X160340000Y-80879796D01*
X160340000Y-79117440D01*
X161830000Y-79117440D01*
X162077765Y-79068157D01*
X162287809Y-78927809D01*
X162428157Y-78717765D01*
X162477440Y-78470000D01*
X162477440Y-76470000D01*
X162428157Y-76222235D01*
X162287809Y-76012191D01*
X162077765Y-75871843D01*
X161830000Y-75822560D01*
X157330000Y-75822560D01*
X157082235Y-75871843D01*
X156872191Y-76012191D01*
X156731843Y-76222235D01*
X156682560Y-76470000D01*
X156682560Y-78470000D01*
X156731843Y-78717765D01*
X156872191Y-78927809D01*
X157082235Y-79068157D01*
X157330000Y-79117440D01*
X158820001Y-79117440D01*
X158820000Y-80639839D01*
X156363933Y-83095908D01*
X156254699Y-82986673D01*
X156021310Y-82890000D01*
X155860750Y-82890000D01*
X155702000Y-83048750D01*
X155702000Y-83237151D01*
X155612631Y-83254928D01*
X155448000Y-83364931D01*
X155448000Y-83048750D01*
X155289250Y-82890000D01*
X155128690Y-82890000D01*
X154895301Y-82986673D01*
X154716673Y-83165302D01*
X154620000Y-83398691D01*
X154620000Y-83534250D01*
X154778750Y-83693000D01*
X155189543Y-83693000D01*
X155148760Y-83898032D01*
X155098290Y-83908071D01*
X155040029Y-83947000D01*
X154778750Y-83947000D01*
X154620000Y-84105750D01*
X154620000Y-84241309D01*
X154665508Y-84351175D01*
X154607560Y-84642500D01*
X154607560Y-84682637D01*
X149105199Y-90185000D01*
X148704801Y-90185000D01*
X154154476Y-84735327D01*
X154217929Y-84692929D01*
X154260327Y-84629476D01*
X154260329Y-84629474D01*
X154385903Y-84441538D01*
X154385904Y-84441537D01*
X154430000Y-84219852D01*
X154430000Y-84219848D01*
X154444888Y-84145001D01*
X154430000Y-84070154D01*
X154430000Y-75792440D01*
X154520000Y-75792440D01*
X154767765Y-75743157D01*
X154977809Y-75602809D01*
X155118157Y-75392765D01*
X155167440Y-75145000D01*
X155167440Y-73445000D01*
X155118157Y-73197235D01*
X154977809Y-72987191D01*
X154767765Y-72846843D01*
X154520000Y-72797560D01*
X152820000Y-72797560D01*
X152572235Y-72846843D01*
X152362191Y-72987191D01*
X152221843Y-73197235D01*
X152212816Y-73242619D01*
X152200625Y-73224375D01*
X151709418Y-72896161D01*
X151276256Y-72810000D01*
X150983744Y-72810000D01*
X150550582Y-72896161D01*
X150059375Y-73224375D01*
X149860000Y-73522761D01*
X149660625Y-73224375D01*
X149169418Y-72896161D01*
X148736256Y-72810000D01*
X148443744Y-72810000D01*
X148010582Y-72896161D01*
X147519375Y-73224375D01*
X147320000Y-73522761D01*
X147120625Y-73224375D01*
X146629418Y-72896161D01*
X146196256Y-72810000D01*
X145903744Y-72810000D01*
X145470582Y-72896161D01*
X144979375Y-73224375D01*
X144780000Y-73522761D01*
X144580625Y-73224375D01*
X144089418Y-72896161D01*
X143656256Y-72810000D01*
X143363744Y-72810000D01*
X142930582Y-72896161D01*
X142439375Y-73224375D01*
X142240000Y-73522761D01*
X142040625Y-73224375D01*
X141549418Y-72896161D01*
X141116256Y-72810000D01*
X140823744Y-72810000D01*
X140390582Y-72896161D01*
X139899375Y-73224375D01*
X139700000Y-73522761D01*
X139500625Y-73224375D01*
X139009418Y-72896161D01*
X138576256Y-72810000D01*
X138283744Y-72810000D01*
X137850582Y-72896161D01*
X137359375Y-73224375D01*
X137160000Y-73522761D01*
X136960625Y-73224375D01*
X136469418Y-72896161D01*
X136036256Y-72810000D01*
X135743744Y-72810000D01*
X135310582Y-72896161D01*
X134819375Y-73224375D01*
X134491161Y-73715582D01*
X134375908Y-74295000D01*
X134491161Y-74874418D01*
X134500426Y-74888284D01*
X134495112Y-74915000D01*
X134510001Y-74989852D01*
X134510000Y-88424549D01*
X134272235Y-88471843D01*
X134062191Y-88612191D01*
X133921843Y-88822235D01*
X133887034Y-88997232D01*
X133115000Y-88225198D01*
X133115000Y-88059126D01*
X132957431Y-87678720D01*
X132666280Y-87387569D01*
X132285874Y-87230000D01*
X131874126Y-87230000D01*
X131493720Y-87387569D01*
X131202569Y-87678720D01*
X131045000Y-88059126D01*
X131045000Y-88470874D01*
X131202569Y-88851280D01*
X131251289Y-88900000D01*
X131202569Y-88948720D01*
X131045000Y-89329126D01*
X131045000Y-89740874D01*
X131202569Y-90121280D01*
X131251289Y-90170000D01*
X131202569Y-90218720D01*
X131045000Y-90599126D01*
X131045000Y-90645198D01*
X126524801Y-86125000D01*
X126570874Y-86125000D01*
X126951280Y-85967431D01*
X127242431Y-85676280D01*
X127400000Y-85295874D01*
X127400000Y-84884126D01*
X127242431Y-84503720D01*
X126951280Y-84212569D01*
X126570874Y-84055000D01*
X126159126Y-84055000D01*
X125938795Y-84146264D01*
X125908157Y-83992235D01*
X125767809Y-83782191D01*
X125557765Y-83641843D01*
X125310000Y-83592560D01*
X123610000Y-83592560D01*
X123362235Y-83641843D01*
X123152191Y-83782191D01*
X123011843Y-83992235D01*
X122962560Y-84240000D01*
X122962560Y-85694999D01*
X119619801Y-85694999D01*
X118530331Y-84605530D01*
X118487929Y-84542071D01*
X118337440Y-84441517D01*
X118337440Y-84240000D01*
X118288157Y-83992235D01*
X118147809Y-83782191D01*
X117937765Y-83641843D01*
X117690000Y-83592560D01*
X115990000Y-83592560D01*
X115742235Y-83641843D01*
X115532191Y-83782191D01*
X115391843Y-83992235D01*
X115342560Y-84240000D01*
X115342560Y-85940000D01*
X115391843Y-86187765D01*
X115532191Y-86397809D01*
X115742235Y-86538157D01*
X115787619Y-86547184D01*
X115769375Y-86559375D01*
X115441161Y-87050582D01*
X115325908Y-87630000D01*
X115441161Y-88209418D01*
X115769375Y-88700625D01*
X116067761Y-88900000D01*
X115769375Y-89099375D01*
X115441161Y-89590582D01*
X115325908Y-90170000D01*
X115441161Y-90749418D01*
X115769375Y-91240625D01*
X116067761Y-91440000D01*
X115769375Y-91639375D01*
X115441161Y-92130582D01*
X115325908Y-92710000D01*
X115398791Y-93076408D01*
X114730517Y-93744682D01*
X114667061Y-93787082D01*
X114624661Y-93850538D01*
X114624660Y-93850539D01*
X114563858Y-93941536D01*
X114499086Y-94038474D01*
X114485090Y-94108839D01*
X114440101Y-94335011D01*
X113715000Y-94335011D01*
X113715000Y-71805000D01*
X172670000Y-71805000D01*
X172670001Y-124975204D01*
X172670001Y-124975204D01*
G37*
X172670001Y-124975204D02*
X166039346Y-125045000D01*
X113715000Y-125045000D01*
X113715000Y-94335011D01*
X114440101Y-94335011D01*
X114454990Y-94409863D01*
X114454989Y-103712962D01*
X114440101Y-103787809D01*
X114454989Y-103862656D01*
X114454989Y-103862660D01*
X114499085Y-104084345D01*
X114667060Y-104335738D01*
X114730519Y-104378140D01*
X133206860Y-122854482D01*
X133249260Y-122917938D01*
X133500652Y-123085913D01*
X133722337Y-123130009D01*
X133722341Y-123130009D01*
X133797188Y-123144897D01*
X133872035Y-123130009D01*
X142350144Y-123130009D01*
X142424991Y-123144897D01*
X142499838Y-123130009D01*
X142499843Y-123130009D01*
X142721528Y-123085913D01*
X142972920Y-122917938D01*
X143015322Y-122854479D01*
X148223593Y-117646209D01*
X148443744Y-117690000D01*
X148736256Y-117690000D01*
X149169418Y-117603839D01*
X149660625Y-117275625D01*
X149988839Y-116784418D01*
X150104092Y-116205000D01*
X149988839Y-115625582D01*
X149660625Y-115134375D01*
X149169418Y-114806161D01*
X148736256Y-114720000D01*
X148443744Y-114720000D01*
X148010582Y-114806161D01*
X147519375Y-115134375D01*
X147320000Y-115432761D01*
X147120625Y-115134375D01*
X146629418Y-114806161D01*
X146196256Y-114720000D01*
X145903744Y-114720000D01*
X145470582Y-114806161D01*
X144979375Y-115134375D01*
X144780000Y-115432761D01*
X144580625Y-115134375D01*
X144089418Y-114806161D01*
X143656256Y-114720000D01*
X143363744Y-114720000D01*
X142930582Y-114806161D01*
X142439375Y-115134375D01*
X142226157Y-115453478D01*
X142165183Y-115323642D01*
X141736924Y-114933355D01*
X141326890Y-114763524D01*
X141097000Y-114884845D01*
X141097000Y-116078000D01*
X141117000Y-116078000D01*
X141117000Y-116332000D01*
X141097000Y-116332000D01*
X141097000Y-116352000D01*
X140843000Y-116352000D01*
X140843000Y-116332000D01*
X140823000Y-116332000D01*
X140823000Y-116078000D01*
X140843000Y-116078000D01*
X140843000Y-114884845D01*
X140613110Y-114763524D01*
X140203076Y-114933355D01*
X139774817Y-115323642D01*
X139713843Y-115453478D01*
X139500625Y-115134375D01*
X139009418Y-114806161D01*
X138576256Y-114720000D01*
X138283744Y-114720000D01*
X137850582Y-114806161D01*
X137359375Y-115134375D01*
X137347184Y-115152619D01*
X137338157Y-115107235D01*
X137197809Y-114897191D01*
X136987765Y-114756843D01*
X136740000Y-114707560D01*
X136538483Y-114707560D01*
X136508552Y-114662765D01*
X136480329Y-114620526D01*
X136480327Y-114620524D01*
X136437929Y-114557071D01*
X136374476Y-114514673D01*
X134774803Y-112915000D01*
X156467560Y-112915000D01*
X156467560Y-114415000D01*
X156516843Y-114662765D01*
X156657191Y-114872809D01*
X156867235Y-115013157D01*
X157115000Y-115062440D01*
X159115000Y-115062440D01*
X159362765Y-115013157D01*
X159572809Y-114872809D01*
X159713157Y-114662765D01*
X159762440Y-114415000D01*
X159762440Y-112915000D01*
X159713157Y-112667235D01*
X159572809Y-112457191D01*
X159362765Y-112316843D01*
X159115000Y-112267560D01*
X157115000Y-112267560D01*
X156867235Y-112316843D01*
X156657191Y-112457191D01*
X156516843Y-112667235D01*
X156467560Y-112915000D01*
X134774803Y-112915000D01*
X131204801Y-109345000D01*
X133155153Y-109345000D01*
X133230000Y-109359888D01*
X133304847Y-109345000D01*
X133304852Y-109345000D01*
X133526537Y-109300904D01*
X133777929Y-109132929D01*
X133820331Y-109069470D01*
X134392560Y-108497241D01*
X134392560Y-109435000D01*
X134441843Y-109682765D01*
X134582191Y-109892809D01*
X134792235Y-110033157D01*
X135040000Y-110082440D01*
X136740000Y-110082440D01*
X136987765Y-110033157D01*
X137197809Y-109892809D01*
X137338157Y-109682765D01*
X137347184Y-109637381D01*
X137359375Y-109655625D01*
X137850582Y-109983839D01*
X138283744Y-110070000D01*
X138576256Y-110070000D01*
X139009418Y-109983839D01*
X139500625Y-109655625D01*
X139700000Y-109357239D01*
X139899375Y-109655625D01*
X140390582Y-109983839D01*
X140823744Y-110070000D01*
X141116256Y-110070000D01*
X141549418Y-109983839D01*
X142040625Y-109655625D01*
X142240000Y-109357239D01*
X142439375Y-109655625D01*
X142930582Y-109983839D01*
X143363744Y-110070000D01*
X143656256Y-110070000D01*
X144089418Y-109983839D01*
X144580625Y-109655625D01*
X144780000Y-109357239D01*
X144979375Y-109655625D01*
X145470582Y-109983839D01*
X145903744Y-110070000D01*
X146196256Y-110070000D01*
X146629418Y-109983839D01*
X147120625Y-109655625D01*
X147320000Y-109357239D01*
X147519375Y-109655625D01*
X148010582Y-109983839D01*
X148443744Y-110070000D01*
X148736256Y-110070000D01*
X149169418Y-109983839D01*
X149660625Y-109655625D01*
X149988839Y-109164418D01*
X150104092Y-108585000D01*
X149988839Y-108005582D01*
X149660625Y-107514375D01*
X149350000Y-107306822D01*
X149350000Y-97539846D01*
X149364888Y-97464999D01*
X149350000Y-97390152D01*
X149350000Y-97390148D01*
X149305904Y-97168463D01*
X149225723Y-97048464D01*
X149180329Y-96980526D01*
X149180327Y-96980524D01*
X149137929Y-96917071D01*
X149074475Y-96874673D01*
X148704802Y-96505000D01*
X149405199Y-96505000D01*
X150095000Y-97194802D01*
X150095000Y-97360874D01*
X150252569Y-97741280D01*
X150543720Y-98032431D01*
X150924126Y-98190000D01*
X151335874Y-98190000D01*
X151716280Y-98032431D01*
X152007431Y-97741280D01*
X152165000Y-97360874D01*
X152165000Y-96949126D01*
X152007431Y-96568720D01*
X151958711Y-96520000D01*
X152007431Y-96471280D01*
X152165000Y-96090874D01*
X152165000Y-95679126D01*
X152007431Y-95298720D01*
X151958711Y-95250000D01*
X152007431Y-95201280D01*
X152165000Y-94820874D01*
X152165000Y-94409126D01*
X152039027Y-94105000D01*
X153860001Y-94105000D01*
X153860000Y-105599553D01*
X153845112Y-105674400D01*
X153860000Y-105749247D01*
X153860000Y-105749251D01*
X153904096Y-105970936D01*
X154072071Y-106222329D01*
X154135530Y-106264731D01*
X154767381Y-106896582D01*
X154723060Y-107119400D01*
X154723060Y-108592600D01*
X154772343Y-108840365D01*
X154912691Y-109050409D01*
X155122735Y-109190757D01*
X155370500Y-109240040D01*
X156259500Y-109240040D01*
X156507265Y-109190757D01*
X156717309Y-109050409D01*
X156857657Y-108840365D01*
X156906940Y-108592600D01*
X156906940Y-108141750D01*
X157035500Y-108141750D01*
X157035500Y-108718910D01*
X157132173Y-108952299D01*
X157310802Y-109130927D01*
X157544191Y-109227600D01*
X157829250Y-109227600D01*
X157988000Y-109068850D01*
X157988000Y-107983000D01*
X158242000Y-107983000D01*
X158242000Y-109068850D01*
X158400750Y-109227600D01*
X158685809Y-109227600D01*
X158919198Y-109130927D01*
X159097827Y-108952299D01*
X159194500Y-108718910D01*
X159194500Y-108141750D01*
X159035750Y-107983000D01*
X158242000Y-107983000D01*
X157988000Y-107983000D01*
X157194250Y-107983000D01*
X157035500Y-108141750D01*
X156906940Y-108141750D01*
X156906940Y-107119400D01*
X156881816Y-106993090D01*
X157035500Y-106993090D01*
X157035500Y-107570250D01*
X157194250Y-107729000D01*
X157988000Y-107729000D01*
X157988000Y-106643150D01*
X158242000Y-106643150D01*
X158242000Y-107729000D01*
X159035750Y-107729000D01*
X159194500Y-107570250D01*
X159194500Y-107119400D01*
X159323060Y-107119400D01*
X159323060Y-108592600D01*
X159372343Y-108840365D01*
X159512691Y-109050409D01*
X159722735Y-109190757D01*
X159970500Y-109240040D01*
X160859500Y-109240040D01*
X161107265Y-109190757D01*
X161264436Y-109085738D01*
X164340001Y-112161303D01*
X164340000Y-114072560D01*
X164250000Y-114072560D01*
X164002235Y-114121843D01*
X163792191Y-114262191D01*
X163651843Y-114472235D01*
X163602560Y-114720000D01*
X163602560Y-116420000D01*
X163651843Y-116667765D01*
X163792191Y-116877809D01*
X164002235Y-117018157D01*
X164250000Y-117067440D01*
X165950000Y-117067440D01*
X166197765Y-117018157D01*
X166407809Y-116877809D01*
X166548157Y-116667765D01*
X166568739Y-116564292D01*
X166873076Y-116841645D01*
X167283110Y-117011476D01*
X167513000Y-116890155D01*
X167513000Y-115697000D01*
X167767000Y-115697000D01*
X167767000Y-116890155D01*
X167996890Y-117011476D01*
X168406924Y-116841645D01*
X168835183Y-116451358D01*
X169081486Y-115926892D01*
X168960819Y-115697000D01*
X167767000Y-115697000D01*
X167513000Y-115697000D01*
X167493000Y-115697000D01*
X167493000Y-115443000D01*
X167513000Y-115443000D01*
X167513000Y-114249845D01*
X167767000Y-114249845D01*
X167767000Y-115443000D01*
X168960819Y-115443000D01*
X169081486Y-115213108D01*
X168835183Y-114688642D01*
X168406924Y-114298355D01*
X167996890Y-114128524D01*
X167767000Y-114249845D01*
X167513000Y-114249845D01*
X167283110Y-114128524D01*
X166873076Y-114298355D01*
X166568739Y-114575708D01*
X166548157Y-114472235D01*
X166407809Y-114262191D01*
X166197765Y-114121843D01*
X165950000Y-114072560D01*
X165860000Y-114072560D01*
X165860000Y-111921346D01*
X165874888Y-111846499D01*
X165860000Y-111771652D01*
X165860000Y-111771648D01*
X165815904Y-111549963D01*
X165647929Y-111298571D01*
X165584473Y-111256171D01*
X161699831Y-107371530D01*
X161657429Y-107308071D01*
X161506940Y-107207517D01*
X161506940Y-107119400D01*
X161457657Y-106871635D01*
X161317309Y-106661591D01*
X161107265Y-106521243D01*
X160859500Y-106471960D01*
X159970500Y-106471960D01*
X159722735Y-106521243D01*
X159512691Y-106661591D01*
X159372343Y-106871635D01*
X159323060Y-107119400D01*
X159194500Y-107119400D01*
X159194500Y-106993090D01*
X159097827Y-106759701D01*
X158919198Y-106581073D01*
X158685809Y-106484400D01*
X158400750Y-106484400D01*
X158242000Y-106643150D01*
X157988000Y-106643150D01*
X157829250Y-106484400D01*
X157544191Y-106484400D01*
X157310802Y-106581073D01*
X157132173Y-106759701D01*
X157035500Y-106993090D01*
X156881816Y-106993090D01*
X156862619Y-106896582D01*
X158859203Y-104900000D01*
X163722980Y-104900000D01*
X163730398Y-104937294D01*
X163923584Y-105226416D01*
X164212706Y-105419602D01*
X164553750Y-105487440D01*
X165041250Y-105487440D01*
X165382294Y-105419602D01*
X165671416Y-105226416D01*
X165735000Y-105131256D01*
X165798584Y-105226416D01*
X166087706Y-105419602D01*
X166428750Y-105487440D01*
X166916250Y-105487440D01*
X167257294Y-105419602D01*
X167546416Y-105226416D01*
X167739602Y-104937294D01*
X167807440Y-104596250D01*
X167807440Y-103683750D01*
X167739602Y-103342706D01*
X167546416Y-103053584D01*
X167432500Y-102977467D01*
X167432500Y-100293290D01*
X167453435Y-100289126D01*
X167744586Y-100094586D01*
X167939126Y-99803435D01*
X168007440Y-99460000D01*
X168007440Y-98660000D01*
X167939126Y-98316565D01*
X167744586Y-98025414D01*
X167453435Y-97830874D01*
X167110000Y-97762560D01*
X166285000Y-97762560D01*
X165941565Y-97830874D01*
X165829067Y-97906042D01*
X165794698Y-97871673D01*
X165561309Y-97775000D01*
X165058250Y-97775000D01*
X164899500Y-97933750D01*
X164899500Y-98933000D01*
X164919500Y-98933000D01*
X164919500Y-99187000D01*
X164899500Y-99187000D01*
X164899500Y-100186250D01*
X165058250Y-100345000D01*
X165561309Y-100345000D01*
X165794698Y-100248327D01*
X165829067Y-100213958D01*
X165912501Y-100269706D01*
X165912500Y-102977467D01*
X165798584Y-103053584D01*
X165735000Y-103148744D01*
X165671416Y-103053584D01*
X165382294Y-102860398D01*
X165041250Y-102792560D01*
X164553750Y-102792560D01*
X164212706Y-102860398D01*
X163923584Y-103053584D01*
X163730398Y-103342706D01*
X163722980Y-103380000D01*
X158619246Y-103380000D01*
X158544399Y-103365112D01*
X158469552Y-103380000D01*
X158469548Y-103380000D01*
X158247863Y-103424096D01*
X158247861Y-103424097D01*
X158247862Y-103424097D01*
X158059926Y-103549671D01*
X158059924Y-103549673D01*
X157996471Y-103592071D01*
X157954073Y-103655524D01*
X155815000Y-105794599D01*
X155380000Y-105359599D01*
X155380000Y-99345750D01*
X163475000Y-99345750D01*
X163475000Y-99836310D01*
X163571673Y-100069699D01*
X163750302Y-100248327D01*
X163983691Y-100345000D01*
X164486750Y-100345000D01*
X164645500Y-100186250D01*
X164645500Y-99187000D01*
X163633750Y-99187000D01*
X163475000Y-99345750D01*
X155380000Y-99345750D01*
X155380000Y-98283690D01*
X163475000Y-98283690D01*
X163475000Y-98774250D01*
X163633750Y-98933000D01*
X164645500Y-98933000D01*
X164645500Y-97933750D01*
X164486750Y-97775000D01*
X163983691Y-97775000D01*
X163750302Y-97871673D01*
X163571673Y-98050301D01*
X163475000Y-98283690D01*
X155380000Y-98283690D01*
X155380000Y-94180000D01*
X155387002Y-94180000D01*
X155387002Y-94033252D01*
X155533750Y-94180000D01*
X155616309Y-94180000D01*
X155849698Y-94083327D01*
X156028327Y-93904699D01*
X156125000Y-93671310D01*
X156125000Y-93603750D01*
X155966250Y-93445000D01*
X155497440Y-93445000D01*
X155497440Y-93245000D01*
X155966250Y-93245000D01*
X156125000Y-93086250D01*
X156125000Y-93018690D01*
X156028327Y-92785301D01*
X155849698Y-92606673D01*
X155616309Y-92510000D01*
X155533750Y-92510000D01*
X155375000Y-92668750D01*
X155375000Y-92860872D01*
X155278520Y-92716480D01*
X155036033Y-92554455D01*
X155029382Y-92553132D01*
X154986250Y-92510000D01*
X154903691Y-92510000D01*
X154874120Y-92522249D01*
X154750000Y-92497560D01*
X154490000Y-92497560D01*
X154203967Y-92554455D01*
X154158253Y-92585000D01*
X147837115Y-92585000D01*
X147777251Y-92545000D01*
X147837115Y-92505000D01*
X152020153Y-92505000D01*
X152095000Y-92519888D01*
X152169847Y-92505000D01*
X152169852Y-92505000D01*
X152391537Y-92460904D01*
X152642929Y-92292929D01*
X152685331Y-92229470D01*
X155707362Y-89207440D01*
X155747500Y-89207440D01*
X156051710Y-89146929D01*
X156234189Y-89025000D01*
X157210153Y-89025000D01*
X157285000Y-89039888D01*
X157359847Y-89025000D01*
X157359852Y-89025000D01*
X157581537Y-88980904D01*
X157832929Y-88812929D01*
X157875331Y-88749470D01*
X162160000Y-84464802D01*
X162160000Y-84660874D01*
X162317569Y-85041280D01*
X162608720Y-85332431D01*
X162989126Y-85490000D01*
X163400874Y-85490000D01*
X163781280Y-85332431D01*
X163898711Y-85215000D01*
X165091822Y-85215000D01*
X165299375Y-85525625D01*
X165597761Y-85725000D01*
X165299375Y-85924375D01*
X165091822Y-86235000D01*
X163898711Y-86235000D01*
X163781280Y-86117569D01*
X163400874Y-85960000D01*
X162989126Y-85960000D01*
X162608720Y-86117569D01*
X162317569Y-86408720D01*
X162160000Y-86789126D01*
X162160000Y-87200874D01*
X162317569Y-87581280D01*
X162608720Y-87872431D01*
X162989126Y-88030000D01*
X163400874Y-88030000D01*
X163781280Y-87872431D01*
X163898711Y-87755000D01*
X165091822Y-87755000D01*
X165299375Y-88065625D01*
X165317619Y-88077816D01*
X165272235Y-88086843D01*
X165062191Y-88227191D01*
X164921843Y-88437235D01*
X164872560Y-88685000D01*
X164872560Y-88775000D01*
X163898711Y-88775000D01*
X163781280Y-88657569D01*
X163400874Y-88500000D01*
X162989126Y-88500000D01*
X162608720Y-88657569D01*
X162317569Y-88948720D01*
X162160000Y-89329126D01*
X162160000Y-89740874D01*
X162317569Y-90121280D01*
X162608720Y-90412431D01*
X162989126Y-90570000D01*
X163400874Y-90570000D01*
X163781280Y-90412431D01*
X163898711Y-90295000D01*
X164872560Y-90295000D01*
X164872560Y-90385000D01*
X164921843Y-90632765D01*
X165062191Y-90842809D01*
X165272235Y-90983157D01*
X165520000Y-91032440D01*
X167220000Y-91032440D01*
X167467765Y-90983157D01*
X167677809Y-90842809D01*
X167818157Y-90632765D01*
X167867440Y-90385000D01*
X167867440Y-88685000D01*
X167818157Y-88437235D01*
X167677809Y-88227191D01*
X167467765Y-88086843D01*
X167422381Y-88077816D01*
X167440625Y-88065625D01*
X167768839Y-87574418D01*
X167884092Y-86995000D01*
X167768839Y-86415582D01*
X167440625Y-85924375D01*
X167142239Y-85725000D01*
X167440625Y-85525625D01*
X167768839Y-85034418D01*
X167884092Y-84455000D01*
X167768839Y-83875582D01*
X167440625Y-83384375D01*
X166949418Y-83056161D01*
X166516256Y-82970000D01*
X166223744Y-82970000D01*
X165790582Y-83056161D01*
X165299375Y-83384375D01*
X165091822Y-83695000D01*
X163898711Y-83695000D01*
X163781280Y-83577569D01*
X163400874Y-83420000D01*
X163204802Y-83420000D01*
X167507363Y-79117440D01*
X170330000Y-79117440D01*
X170577765Y-79068157D01*
X170787809Y-78927809D01*
X170928157Y-78717765D01*
X170977440Y-78470000D01*
X170977440Y-76470000D01*
X170928157Y-76222235D01*
X170787809Y-76012191D01*
X170577765Y-75871843D01*
X170330000Y-75822560D01*
X165830000Y-75822560D01*
X165582235Y-75871843D01*
X165372191Y-76012191D01*
X165231843Y-76222235D01*
X165182560Y-76470000D01*
X165182560Y-78470000D01*
X165231843Y-78717765D01*
X165372191Y-78927809D01*
X165477214Y-78997984D01*
X156970199Y-87505000D01*
X156454250Y-87505000D01*
X156371250Y-87422000D01*
X156109971Y-87422000D01*
X156051710Y-87383071D01*
X155747500Y-87322560D01*
X155402500Y-87322560D01*
X155098290Y-87383071D01*
X155040029Y-87422000D01*
X154778750Y-87422000D01*
X154620000Y-87580750D01*
X154620000Y-87716309D01*
X154665508Y-87826175D01*
X154607560Y-88117500D01*
X154607560Y-88157638D01*
X151780199Y-90985000D01*
X150454801Y-90985000D01*
X154658105Y-86781698D01*
X154620000Y-86873691D01*
X154620000Y-87009250D01*
X154778750Y-87168000D01*
X155448000Y-87168000D01*
X155448000Y-86523750D01*
X155702000Y-86523750D01*
X155702000Y-87168000D01*
X156371250Y-87168000D01*
X156530000Y-87009250D01*
X156530000Y-86873691D01*
X156433327Y-86640302D01*
X156254699Y-86461673D01*
X156021310Y-86365000D01*
X155860750Y-86365000D01*
X155702000Y-86523750D01*
X155448000Y-86523750D01*
X155289250Y-86365000D01*
X155128690Y-86365000D01*
X155036698Y-86403104D01*
X155707363Y-85732440D01*
X155747500Y-85732440D01*
X156051710Y-85671929D01*
X156309607Y-85499607D01*
X156481929Y-85241710D01*
X156514318Y-85078878D01*
X156626739Y-85003761D01*
X156669141Y-84940302D01*
X160064476Y-81544969D01*
X160127929Y-81502571D01*
X160170327Y-81439118D01*
X160170329Y-81439116D01*
X160295903Y-81251180D01*
X160295904Y-81251179D01*
X160340000Y-81029494D01*
X160340000Y-81029490D01*
X160354888Y-80954643D01*
X160340000Y-80879796D01*
X160340000Y-79117440D01*
X161830000Y-79117440D01*
X162077765Y-79068157D01*
X162287809Y-78927809D01*
X162428157Y-78717765D01*
X162477440Y-78470000D01*
X162477440Y-76470000D01*
X162428157Y-76222235D01*
X162287809Y-76012191D01*
X162077765Y-75871843D01*
X161830000Y-75822560D01*
X157330000Y-75822560D01*
X157082235Y-75871843D01*
X156872191Y-76012191D01*
X156731843Y-76222235D01*
X156682560Y-76470000D01*
X156682560Y-78470000D01*
X156731843Y-78717765D01*
X156872191Y-78927809D01*
X157082235Y-79068157D01*
X157330000Y-79117440D01*
X158820001Y-79117440D01*
X158820000Y-80639839D01*
X156363933Y-83095908D01*
X156254699Y-82986673D01*
X156021310Y-82890000D01*
X155860750Y-82890000D01*
X155702000Y-83048750D01*
X155702000Y-83237151D01*
X155612631Y-83254928D01*
X155448000Y-83364931D01*
X155448000Y-83048750D01*
X155289250Y-82890000D01*
X155128690Y-82890000D01*
X154895301Y-82986673D01*
X154716673Y-83165302D01*
X154620000Y-83398691D01*
X154620000Y-83534250D01*
X154778750Y-83693000D01*
X155189543Y-83693000D01*
X155148760Y-83898032D01*
X155098290Y-83908071D01*
X155040029Y-83947000D01*
X154778750Y-83947000D01*
X154620000Y-84105750D01*
X154620000Y-84241309D01*
X154665508Y-84351175D01*
X154607560Y-84642500D01*
X154607560Y-84682637D01*
X149105199Y-90185000D01*
X148704801Y-90185000D01*
X154154476Y-84735327D01*
X154217929Y-84692929D01*
X154260327Y-84629476D01*
X154260329Y-84629474D01*
X154385903Y-84441538D01*
X154385904Y-84441537D01*
X154430000Y-84219852D01*
X154430000Y-84219848D01*
X154444888Y-84145001D01*
X154430000Y-84070154D01*
X154430000Y-75792440D01*
X154520000Y-75792440D01*
X154767765Y-75743157D01*
X154977809Y-75602809D01*
X155118157Y-75392765D01*
X155167440Y-75145000D01*
X155167440Y-73445000D01*
X155118157Y-73197235D01*
X154977809Y-72987191D01*
X154767765Y-72846843D01*
X154520000Y-72797560D01*
X152820000Y-72797560D01*
X152572235Y-72846843D01*
X152362191Y-72987191D01*
X152221843Y-73197235D01*
X152212816Y-73242619D01*
X152200625Y-73224375D01*
X151709418Y-72896161D01*
X151276256Y-72810000D01*
X150983744Y-72810000D01*
X150550582Y-72896161D01*
X150059375Y-73224375D01*
X149860000Y-73522761D01*
X149660625Y-73224375D01*
X149169418Y-72896161D01*
X148736256Y-72810000D01*
X148443744Y-72810000D01*
X148010582Y-72896161D01*
X147519375Y-73224375D01*
X147320000Y-73522761D01*
X147120625Y-73224375D01*
X146629418Y-72896161D01*
X146196256Y-72810000D01*
X145903744Y-72810000D01*
X145470582Y-72896161D01*
X144979375Y-73224375D01*
X144780000Y-73522761D01*
X144580625Y-73224375D01*
X144089418Y-72896161D01*
X143656256Y-72810000D01*
X143363744Y-72810000D01*
X142930582Y-72896161D01*
X142439375Y-73224375D01*
X142240000Y-73522761D01*
X142040625Y-73224375D01*
X141549418Y-72896161D01*
X141116256Y-72810000D01*
X140823744Y-72810000D01*
X140390582Y-72896161D01*
X139899375Y-73224375D01*
X139700000Y-73522761D01*
X139500625Y-73224375D01*
X139009418Y-72896161D01*
X138576256Y-72810000D01*
X138283744Y-72810000D01*
X137850582Y-72896161D01*
X137359375Y-73224375D01*
X137160000Y-73522761D01*
X136960625Y-73224375D01*
X136469418Y-72896161D01*
X136036256Y-72810000D01*
X135743744Y-72810000D01*
X135310582Y-72896161D01*
X134819375Y-73224375D01*
X134491161Y-73715582D01*
X134375908Y-74295000D01*
X134491161Y-74874418D01*
X134500426Y-74888284D01*
X134495112Y-74915000D01*
X134510001Y-74989852D01*
X134510000Y-88424549D01*
X134272235Y-88471843D01*
X134062191Y-88612191D01*
X133921843Y-88822235D01*
X133887034Y-88997232D01*
X133115000Y-88225198D01*
X133115000Y-88059126D01*
X132957431Y-87678720D01*
X132666280Y-87387569D01*
X132285874Y-87230000D01*
X131874126Y-87230000D01*
X131493720Y-87387569D01*
X131202569Y-87678720D01*
X131045000Y-88059126D01*
X131045000Y-88470874D01*
X131202569Y-88851280D01*
X131251289Y-88900000D01*
X131202569Y-88948720D01*
X131045000Y-89329126D01*
X131045000Y-89740874D01*
X131202569Y-90121280D01*
X131251289Y-90170000D01*
X131202569Y-90218720D01*
X131045000Y-90599126D01*
X131045000Y-90645198D01*
X126524801Y-86125000D01*
X126570874Y-86125000D01*
X126951280Y-85967431D01*
X127242431Y-85676280D01*
X127400000Y-85295874D01*
X127400000Y-84884126D01*
X127242431Y-84503720D01*
X126951280Y-84212569D01*
X126570874Y-84055000D01*
X126159126Y-84055000D01*
X125938795Y-84146264D01*
X125908157Y-83992235D01*
X125767809Y-83782191D01*
X125557765Y-83641843D01*
X125310000Y-83592560D01*
X123610000Y-83592560D01*
X123362235Y-83641843D01*
X123152191Y-83782191D01*
X123011843Y-83992235D01*
X122962560Y-84240000D01*
X122962560Y-85694999D01*
X119619801Y-85694999D01*
X118530331Y-84605530D01*
X118487929Y-84542071D01*
X118337440Y-84441517D01*
X118337440Y-84240000D01*
X118288157Y-83992235D01*
X118147809Y-83782191D01*
X117937765Y-83641843D01*
X117690000Y-83592560D01*
X115990000Y-83592560D01*
X115742235Y-83641843D01*
X115532191Y-83782191D01*
X115391843Y-83992235D01*
X115342560Y-84240000D01*
X115342560Y-85940000D01*
X115391843Y-86187765D01*
X115532191Y-86397809D01*
X115742235Y-86538157D01*
X115787619Y-86547184D01*
X115769375Y-86559375D01*
X115441161Y-87050582D01*
X115325908Y-87630000D01*
X115441161Y-88209418D01*
X115769375Y-88700625D01*
X116067761Y-88900000D01*
X115769375Y-89099375D01*
X115441161Y-89590582D01*
X115325908Y-90170000D01*
X115441161Y-90749418D01*
X115769375Y-91240625D01*
X116067761Y-91440000D01*
X115769375Y-91639375D01*
X115441161Y-92130582D01*
X115325908Y-92710000D01*
X115398791Y-93076408D01*
X114730517Y-93744682D01*
X114667061Y-93787082D01*
X114624661Y-93850538D01*
X114624660Y-93850539D01*
X114563858Y-93941536D01*
X114499086Y-94038474D01*
X114485090Y-94108839D01*
X114440101Y-94335011D01*
X113715000Y-94335011D01*
X113715000Y-71805000D01*
X172670000Y-71805000D01*
X172670001Y-124975204D01*
G36*
X144695000Y-89042440D02*
X145245000Y-89042440D01*
X145279403Y-89035597D01*
X145272560Y-89070000D01*
X145272560Y-89620000D01*
X145297424Y-89745000D01*
X145272560Y-89870000D01*
X145272560Y-90420000D01*
X145297424Y-90545000D01*
X145272560Y-90670000D01*
X145272560Y-91220000D01*
X145297424Y-91345000D01*
X145272560Y-91470000D01*
X145272560Y-92020000D01*
X145293217Y-92123852D01*
X145285000Y-92143690D01*
X145285000Y-92259250D01*
X145378888Y-92353138D01*
X145462191Y-92477809D01*
X145562749Y-92545000D01*
X145462191Y-92612191D01*
X145378888Y-92736862D01*
X145285000Y-92830750D01*
X145285000Y-92946310D01*
X145293217Y-92966148D01*
X145272560Y-93070000D01*
X145272560Y-93620000D01*
X145297424Y-93745000D01*
X145272560Y-93870000D01*
X145272560Y-94420000D01*
X145297424Y-94545000D01*
X145272560Y-94670000D01*
X145272560Y-95220000D01*
X145297424Y-95345000D01*
X145272560Y-95470000D01*
X145272560Y-96020000D01*
X145297424Y-96145000D01*
X145272560Y-96270000D01*
X145272560Y-96820000D01*
X145297424Y-96945000D01*
X145272560Y-97070000D01*
X145272560Y-97620000D01*
X145279403Y-97654403D01*
X145245000Y-97647560D01*
X144695000Y-97647560D01*
X144570000Y-97672424D01*
X144445000Y-97647560D01*
X143895000Y-97647560D01*
X143770000Y-97672424D01*
X143645000Y-97647560D01*
X143095000Y-97647560D01*
X142970000Y-97672424D01*
X142845000Y-97647560D01*
X142295000Y-97647560D01*
X142170000Y-97672424D01*
X142045000Y-97647560D01*
X141495000Y-97647560D01*
X141370000Y-97672424D01*
X141245000Y-97647560D01*
X140695000Y-97647560D01*
X140570000Y-97672424D01*
X140445000Y-97647560D01*
X139895000Y-97647560D01*
X139770000Y-97672424D01*
X139645000Y-97647560D01*
X139095000Y-97647560D01*
X138970000Y-97672424D01*
X138845000Y-97647560D01*
X138295000Y-97647560D01*
X138170000Y-97672424D01*
X138045000Y-97647560D01*
X137495000Y-97647560D01*
X137370000Y-97672424D01*
X137245000Y-97647560D01*
X136695000Y-97647560D01*
X136660597Y-97654403D01*
X136667440Y-97620000D01*
X136667440Y-97070000D01*
X136642576Y-96945000D01*
X136667440Y-96820000D01*
X136667440Y-96270000D01*
X136642576Y-96145000D01*
X136667440Y-96020000D01*
X136667440Y-95470000D01*
X136642576Y-95345000D01*
X136667440Y-95220000D01*
X136667440Y-94905000D01*
X136794846Y-94905000D01*
X136917569Y-95201280D01*
X137208720Y-95492431D01*
X137589126Y-95650000D01*
X138000874Y-95650000D01*
X138381280Y-95492431D01*
X138672431Y-95201280D01*
X138830000Y-94820874D01*
X138830000Y-94409126D01*
X138672431Y-94028720D01*
X138381280Y-93737569D01*
X138000874Y-93580000D01*
X137847380Y-93580000D01*
X137621537Y-93429096D01*
X137399852Y-93385000D01*
X137399847Y-93385000D01*
X137325000Y-93370112D01*
X137250153Y-93385000D01*
X136437115Y-93385000D01*
X136377251Y-93345000D01*
X136477809Y-93277809D01*
X136561112Y-93153138D01*
X136655000Y-93059250D01*
X136655000Y-92943690D01*
X136646783Y-92923852D01*
X136667440Y-92820000D01*
X136667440Y-92270000D01*
X136642576Y-92145000D01*
X136667440Y-92020000D01*
X136667440Y-91470000D01*
X136642576Y-91345000D01*
X136667440Y-91220000D01*
X136667440Y-90670000D01*
X136642576Y-90545000D01*
X136667440Y-90420000D01*
X136667440Y-89870000D01*
X136642576Y-89745000D01*
X136667440Y-89620000D01*
X136667440Y-89070000D01*
X136660597Y-89035597D01*
X136695000Y-89042440D01*
X137245000Y-89042440D01*
X137370000Y-89017576D01*
X137495000Y-89042440D01*
X138045000Y-89042440D01*
X138170000Y-89017576D01*
X138295000Y-89042440D01*
X138845000Y-89042440D01*
X138970000Y-89017576D01*
X139095000Y-89042440D01*
X139645000Y-89042440D01*
X139770000Y-89017576D01*
X139895000Y-89042440D01*
X140445000Y-89042440D01*
X140570000Y-89017576D01*
X140695000Y-89042440D01*
X141245000Y-89042440D01*
X141370000Y-89017576D01*
X141495000Y-89042440D01*
X142045000Y-89042440D01*
X142170000Y-89017576D01*
X142295000Y-89042440D01*
X142845000Y-89042440D01*
X142970000Y-89017576D01*
X143095000Y-89042440D01*
X143645000Y-89042440D01*
X143770000Y-89017576D01*
X143895000Y-89042440D01*
X144445000Y-89042440D01*
X144570000Y-89017576D01*
X144695000Y-89042440D01*
X144695000Y-89042440D01*
G37*
X144695000Y-89042440D02*
X145245000Y-89042440D01*
X145279403Y-89035597D01*
X145272560Y-89070000D01*
X145272560Y-89620000D01*
X145297424Y-89745000D01*
X145272560Y-89870000D01*
X145272560Y-90420000D01*
X145297424Y-90545000D01*
X145272560Y-90670000D01*
X145272560Y-91220000D01*
X145297424Y-91345000D01*
X145272560Y-91470000D01*
X145272560Y-92020000D01*
X145293217Y-92123852D01*
X145285000Y-92143690D01*
X145285000Y-92259250D01*
X145378888Y-92353138D01*
X145462191Y-92477809D01*
X145562749Y-92545000D01*
X145462191Y-92612191D01*
X145378888Y-92736862D01*
X145285000Y-92830750D01*
X145285000Y-92946310D01*
X145293217Y-92966148D01*
X145272560Y-93070000D01*
X145272560Y-93620000D01*
X145297424Y-93745000D01*
X145272560Y-93870000D01*
X145272560Y-94420000D01*
X145297424Y-94545000D01*
X145272560Y-94670000D01*
X145272560Y-95220000D01*
X145297424Y-95345000D01*
X145272560Y-95470000D01*
X145272560Y-96020000D01*
X145297424Y-96145000D01*
X145272560Y-96270000D01*
X145272560Y-96820000D01*
X145297424Y-96945000D01*
X145272560Y-97070000D01*
X145272560Y-97620000D01*
X145279403Y-97654403D01*
X145245000Y-97647560D01*
X144695000Y-97647560D01*
X144570000Y-97672424D01*
X144445000Y-97647560D01*
X143895000Y-97647560D01*
X143770000Y-97672424D01*
X143645000Y-97647560D01*
X143095000Y-97647560D01*
X142970000Y-97672424D01*
X142845000Y-97647560D01*
X142295000Y-97647560D01*
X142170000Y-97672424D01*
X142045000Y-97647560D01*
X141495000Y-97647560D01*
X141370000Y-97672424D01*
X141245000Y-97647560D01*
X140695000Y-97647560D01*
X140570000Y-97672424D01*
X140445000Y-97647560D01*
X139895000Y-97647560D01*
X139770000Y-97672424D01*
X139645000Y-97647560D01*
X139095000Y-97647560D01*
X138970000Y-97672424D01*
X138845000Y-97647560D01*
X138295000Y-97647560D01*
X138170000Y-97672424D01*
X138045000Y-97647560D01*
X137495000Y-97647560D01*
X137370000Y-97672424D01*
X137245000Y-97647560D01*
X136695000Y-97647560D01*
X136660597Y-97654403D01*
X136667440Y-97620000D01*
X136667440Y-97070000D01*
X136642576Y-96945000D01*
X136667440Y-96820000D01*
X136667440Y-96270000D01*
X136642576Y-96145000D01*
X136667440Y-96020000D01*
X136667440Y-95470000D01*
X136642576Y-95345000D01*
X136667440Y-95220000D01*
X136667440Y-94905000D01*
X136794846Y-94905000D01*
X136917569Y-95201280D01*
X137208720Y-95492431D01*
X137589126Y-95650000D01*
X138000874Y-95650000D01*
X138381280Y-95492431D01*
X138672431Y-95201280D01*
X138830000Y-94820874D01*
X138830000Y-94409126D01*
X138672431Y-94028720D01*
X138381280Y-93737569D01*
X138000874Y-93580000D01*
X137847380Y-93580000D01*
X137621537Y-93429096D01*
X137399852Y-93385000D01*
X137399847Y-93385000D01*
X137325000Y-93370112D01*
X137250153Y-93385000D01*
X136437115Y-93385000D01*
X136377251Y-93345000D01*
X136477809Y-93277809D01*
X136561112Y-93153138D01*
X136655000Y-93059250D01*
X136655000Y-92943690D01*
X136646783Y-92923852D01*
X136667440Y-92820000D01*
X136667440Y-92270000D01*
X136642576Y-92145000D01*
X136667440Y-92020000D01*
X136667440Y-91470000D01*
X136642576Y-91345000D01*
X136667440Y-91220000D01*
X136667440Y-90670000D01*
X136642576Y-90545000D01*
X136667440Y-90420000D01*
X136667440Y-89870000D01*
X136642576Y-89745000D01*
X136667440Y-89620000D01*
X136667440Y-89070000D01*
X136660597Y-89035597D01*
X136695000Y-89042440D01*
X137245000Y-89042440D01*
X137370000Y-89017576D01*
X137495000Y-89042440D01*
X138045000Y-89042440D01*
X138170000Y-89017576D01*
X138295000Y-89042440D01*
X138845000Y-89042440D01*
X138970000Y-89017576D01*
X139095000Y-89042440D01*
X139645000Y-89042440D01*
X139770000Y-89017576D01*
X139895000Y-89042440D01*
X140445000Y-89042440D01*
X140570000Y-89017576D01*
X140695000Y-89042440D01*
X141245000Y-89042440D01*
X141370000Y-89017576D01*
X141495000Y-89042440D01*
X142045000Y-89042440D01*
X142170000Y-89017576D01*
X142295000Y-89042440D01*
X142845000Y-89042440D01*
X142970000Y-89017576D01*
X143095000Y-89042440D01*
X143645000Y-89042440D01*
X143770000Y-89017576D01*
X143895000Y-89042440D01*
X144445000Y-89042440D01*
X144570000Y-89017576D01*
X144695000Y-89042440D01*
G04 #@! TD*
M02*
