G04 #@! TF.GenerationSoftware,KiCad,Pcbnew,(5.0.0-3-g5ebb6b6)*
G04 #@! TF.CreationDate,2021-02-23T05:46:04-05:00*
G04 #@! TF.ProjectId,PIC16F74Breakout,5049433136463734427265616B6F7574,rev?*
G04 #@! TF.SameCoordinates,Original*
G04 #@! TF.FileFunction,Copper,L2,Bot,Signal*
G04 #@! TF.FilePolarity,Positive*
%FSLAX46Y46*%
G04 Gerber Fmt 4.6, Leading zero omitted, Abs format (unit mm)*
G04 Created by KiCad (PCBNEW (5.0.0-3-g5ebb6b6)) date Tuesday, February 23, 2021 at 05:46:04 AM*
%MOMM*%
%LPD*%
G01*
G04 APERTURE LIST*
G04 #@! TA.AperFunction,ComponentPad*
%ADD10R,1.700000X1.700000*%
G04 #@! TD*
G04 #@! TA.AperFunction,ComponentPad*
%ADD11O,1.700000X1.700000*%
G04 #@! TD*
G04 #@! TA.AperFunction,ViaPad*
%ADD12C,0.800000*%
G04 #@! TD*
G04 #@! TA.AperFunction,Conductor*
%ADD13C,0.250000*%
G04 #@! TD*
G04 APERTURE END LIST*
D10*
G04 #@! TO.P,J1,1*
G04 #@! TO.N,Net-(IC1-Pad18)*
X135890000Y-116205000D03*
D11*
G04 #@! TO.P,J1,2*
G04 #@! TO.N,Net-(IC1-Pad7)*
X138430000Y-116205000D03*
G04 #@! TO.P,J1,3*
G04 #@! TO.N,GND*
X140970000Y-116205000D03*
G04 #@! TO.P,J1,4*
G04 #@! TO.N,Net-(IC1-Pad17)*
X143510000Y-116205000D03*
G04 #@! TO.P,J1,5*
G04 #@! TO.N,Net-(IC1-Pad16)*
X146050000Y-116205000D03*
G04 #@! TO.P,J1,6*
G04 #@! TO.N,Net-(IC1-Pad11)*
X148590000Y-116205000D03*
G04 #@! TD*
D10*
G04 #@! TO.P,J2,1*
G04 #@! TO.N,Net-(J2-Pad1)*
X165100000Y-115570000D03*
D11*
G04 #@! TO.P,J2,2*
G04 #@! TO.N,GND*
X167640000Y-115570000D03*
G04 #@! TD*
D10*
G04 #@! TO.P,J3,1*
G04 #@! TO.N,Net-(IC1-Pad8)*
X116840000Y-85090000D03*
D11*
G04 #@! TO.P,J3,2*
G04 #@! TO.N,Net-(IC1-Pad9)*
X116840000Y-87630000D03*
G04 #@! TO.P,J3,3*
G04 #@! TO.N,Net-(IC1-Pad10)*
X116840000Y-90170000D03*
G04 #@! TO.P,J3,4*
G04 #@! TO.N,Net-(IC1-Pad11)*
X116840000Y-92710000D03*
G04 #@! TO.P,J3,5*
G04 #@! TO.N,Net-(IC1-Pad14)*
X116840000Y-95250000D03*
G04 #@! TO.P,J3,6*
G04 #@! TO.N,Net-(IC1-Pad15)*
X116840000Y-97790000D03*
G04 #@! TO.P,J3,7*
G04 #@! TO.N,Net-(IC1-Pad16)*
X116840000Y-100330000D03*
G04 #@! TO.P,J3,8*
G04 #@! TO.N,Net-(IC1-Pad17)*
X116840000Y-102870000D03*
G04 #@! TD*
G04 #@! TO.P,J4,6*
G04 #@! TO.N,Net-(IC1-Pad24)*
X148590000Y-108585000D03*
G04 #@! TO.P,J4,5*
G04 #@! TO.N,Net-(IC1-Pad23)*
X146050000Y-108585000D03*
G04 #@! TO.P,J4,4*
G04 #@! TO.N,Net-(IC1-Pad22)*
X143510000Y-108585000D03*
G04 #@! TO.P,J4,3*
G04 #@! TO.N,Net-(IC1-Pad21)*
X140970000Y-108585000D03*
G04 #@! TO.P,J4,2*
G04 #@! TO.N,Net-(IC1-Pad20)*
X138430000Y-108585000D03*
D10*
G04 #@! TO.P,J4,1*
G04 #@! TO.N,Net-(IC1-Pad19)*
X135890000Y-108585000D03*
G04 #@! TD*
G04 #@! TO.P,J5,1*
G04 #@! TO.N,Net-(IC1-Pad38)*
X124460000Y-85090000D03*
D11*
G04 #@! TO.P,J5,2*
G04 #@! TO.N,Net-(IC1-Pad39)*
X124460000Y-87630000D03*
G04 #@! TO.P,J5,3*
G04 #@! TO.N,Net-(IC1-Pad40)*
X124460000Y-90170000D03*
G04 #@! TO.P,J5,4*
G04 #@! TO.N,Net-(IC1-Pad41)*
X124460000Y-92710000D03*
G04 #@! TO.P,J5,5*
G04 #@! TO.N,Net-(IC1-Pad2)*
X124460000Y-95250000D03*
G04 #@! TO.P,J5,6*
G04 #@! TO.N,Net-(IC1-Pad3)*
X124460000Y-97790000D03*
G04 #@! TO.P,J5,7*
G04 #@! TO.N,Net-(IC1-Pad4)*
X124460000Y-100330000D03*
G04 #@! TO.P,J5,8*
G04 #@! TO.N,Net-(IC1-Pad5)*
X124460000Y-102870000D03*
G04 #@! TD*
G04 #@! TO.P,J6,8*
G04 #@! TO.N,Net-(IC1-Pad1)*
X135890000Y-74295000D03*
G04 #@! TO.P,J6,7*
G04 #@! TO.N,Net-(IC1-Pad44)*
X138430000Y-74295000D03*
G04 #@! TO.P,J6,6*
G04 #@! TO.N,Net-(IC1-Pad43)*
X140970000Y-74295000D03*
G04 #@! TO.P,J6,5*
G04 #@! TO.N,Net-(IC1-Pad42)*
X143510000Y-74295000D03*
G04 #@! TO.P,J6,4*
G04 #@! TO.N,Net-(IC1-Pad37)*
X146050000Y-74295000D03*
G04 #@! TO.P,J6,3*
G04 #@! TO.N,Net-(IC1-Pad36)*
X148590000Y-74295000D03*
G04 #@! TO.P,J6,2*
G04 #@! TO.N,Net-(IC1-Pad35)*
X151130000Y-74295000D03*
D10*
G04 #@! TO.P,J6,1*
G04 #@! TO.N,Net-(IC1-Pad32)*
X153670000Y-74295000D03*
G04 #@! TD*
G04 #@! TO.P,J7,1*
G04 #@! TO.N,Net-(IC1-Pad25)*
X166370000Y-89535000D03*
D11*
G04 #@! TO.P,J7,2*
G04 #@! TO.N,Net-(IC1-Pad26)*
X166370000Y-86995000D03*
G04 #@! TO.P,J7,3*
G04 #@! TO.N,Net-(IC1-Pad27)*
X166370000Y-84455000D03*
G04 #@! TD*
D12*
G04 #@! TO.N,Net-(IC1-Pad2)*
X126365000Y-95250000D03*
X132080000Y-88265000D03*
G04 #@! TO.N,Net-(IC1-Pad3)*
X126365000Y-97790000D03*
X132080000Y-89535000D03*
G04 #@! TO.N,Net-(IC1-Pad4)*
X126365000Y-100965000D03*
X132080000Y-90805000D03*
G04 #@! TO.N,Net-(IC1-Pad5)*
X126365000Y-102870000D03*
X132715000Y-92075000D03*
G04 #@! TO.N,Net-(IC1-Pad7)*
X137795000Y-94615000D03*
X123825000Y-108585000D03*
G04 #@! TO.N,Net-(IC1-Pad25)*
X163195000Y-89535000D03*
X151130000Y-97155000D03*
G04 #@! TO.N,Net-(IC1-Pad26)*
X163195000Y-86995000D03*
X151130000Y-95885000D03*
G04 #@! TO.N,Net-(IC1-Pad27)*
X163195000Y-84455000D03*
X151130000Y-94615000D03*
G04 #@! TO.N,Net-(IC1-Pad38)*
X141605000Y-81915000D03*
X126365000Y-85090000D03*
G04 #@! TO.N,Net-(IC1-Pad39)*
X140970000Y-83185000D03*
X126365000Y-88265000D03*
G04 #@! TO.N,Net-(IC1-Pad40)*
X140335000Y-84455000D03*
X126365000Y-90170000D03*
G04 #@! TO.N,Net-(IC1-Pad41)*
X139700000Y-85725000D03*
X126365000Y-92075000D03*
G04 #@! TD*
D13*
G04 #@! TO.N,Net-(IC1-Pad2)*
X126365000Y-93980000D02*
X126365000Y-95250000D01*
X132080000Y-88265000D02*
X126365000Y-93980000D01*
G04 #@! TO.N,Net-(IC1-Pad3)*
X128270000Y-93345000D02*
X128270000Y-95885000D01*
X126764999Y-97390001D02*
X126365000Y-97790000D01*
X128270000Y-95885000D02*
X126764999Y-97390001D01*
X132080000Y-89535000D02*
X128270000Y-93345000D01*
G04 #@! TO.N,Net-(IC1-Pad4)*
X126764999Y-100565001D02*
X126365000Y-100965000D01*
X130175000Y-92710000D02*
X130175000Y-97155000D01*
X130175000Y-97155000D02*
X126764999Y-100565001D01*
X132080000Y-90805000D02*
X130175000Y-92710000D01*
G04 #@! TO.N,Net-(IC1-Pad5)*
X132715000Y-96520000D02*
X126365000Y-102870000D01*
X132715000Y-92075000D02*
X132715000Y-96520000D01*
G04 #@! TO.N,Net-(IC1-Pad7)*
X137795000Y-94615000D02*
X123825000Y-108585000D01*
G04 #@! TO.N,Net-(IC1-Pad25)*
X158750000Y-89535000D02*
X151130000Y-97155000D01*
X163195000Y-89535000D02*
X158750000Y-89535000D01*
G04 #@! TO.N,Net-(IC1-Pad26)*
X160020000Y-86995000D02*
X151130000Y-95885000D01*
X163195000Y-86995000D02*
X160020000Y-86995000D01*
G04 #@! TO.N,Net-(IC1-Pad27)*
X161290000Y-84455000D02*
X151130000Y-94615000D01*
X163195000Y-84455000D02*
X161290000Y-84455000D01*
G04 #@! TO.N,Net-(IC1-Pad38)*
X129540000Y-81915000D02*
X126365000Y-85090000D01*
X141605000Y-81915000D02*
X129540000Y-81915000D01*
G04 #@! TO.N,Net-(IC1-Pad39)*
X131445000Y-83185000D02*
X126365000Y-88265000D01*
X140970000Y-83185000D02*
X131445000Y-83185000D01*
G04 #@! TO.N,Net-(IC1-Pad40)*
X132080000Y-84455000D02*
X126365000Y-90170000D01*
X140335000Y-84455000D02*
X132080000Y-84455000D01*
G04 #@! TO.N,Net-(IC1-Pad41)*
X132715000Y-85725000D02*
X126365000Y-92075000D01*
X139700000Y-85725000D02*
X132715000Y-85725000D01*
G04 #@! TD*
M02*
